<svg xmlns="http://www.w3.org/2000/svg" viewBox="0 0 100 16.2488"><defs><style>.e0e1e5e0-507f-4ca3-8724-647a4a3b94de{fill:#ffcb60;}</style></defs><g id="e64bfe0f-f3b0-42e4-a219-6e70d8e64af0" data-name="Layer 2"><g id="b041b073-74a7-40f7-af96-7504869485f9" data-name="Content"><path class="e0e1e5e0-507f-4ca3-8724-647a4a3b94de" d="M9.23947.45967l2.17968,4.41651,4.87391.70823a.82461.82461,0,0,1,.457,1.40654l-3.52679,3.43778.83256,4.85422a.82462.82462,0,0,1-1.19648.86929L8.5,13.86039,4.14064,16.15224A.82462.82462,0,0,1,2.94416,15.283l.83256-4.85422L.24993,6.991a.82461.82461,0,0,1,.457-1.40654l4.87391-.70823L7.76053.45967A.82463.82463,0,0,1,9.23947.45967Z"/><path class="e0e1e5e0-507f-4ca3-8724-647a4a3b94de" d="M29.98947.45967l2.17968,4.41651,4.87391.70823a.82461.82461,0,0,1,.457,1.40654l-3.52679,3.43778.83256,4.85422a.82462.82462,0,0,1-1.19648.86929L29.25,13.86039l-4.35936,2.29185a.82462.82462,0,0,1-1.19648-.86929l.83256-4.85422L20.99993,6.991a.82461.82461,0,0,1,.457-1.40654l4.87391-.70823L28.51053.45967A.82463.82463,0,0,1,29.98947.45967Z"/><path class="e0e1e5e0-507f-4ca3-8724-647a4a3b94de" d="M50.73947.45967l2.17968,4.41651,4.87391.70823a.82461.82461,0,0,1,.457,1.40654l-3.52679,3.43778.83256,4.85422a.82462.82462,0,0,1-1.19648.86929L50,13.86039l-4.35936,2.29185a.82462.82462,0,0,1-1.19648-.86929l.83256-4.85422L41.74993,6.991a.82461.82461,0,0,1,.457-1.40654l4.87391-.70823L49.26053.45967A.82463.82463,0,0,1,50.73947.45967Z"/><path class="e0e1e5e0-507f-4ca3-8724-647a4a3b94de" d="M71.48947.45967l2.17968,4.41651,4.87391.70823a.82461.82461,0,0,1,.457,1.40654l-3.52679,3.43778.83256,4.85422a.82462.82462,0,0,1-1.19648.86929L70.75,13.86039l-4.35936,2.29185a.82462.82462,0,0,1-1.19648-.86929l.83256-4.85422L62.49993,6.991a.82461.82461,0,0,1,.457-1.40654l4.87391-.70823L70.01053.45967A.82463.82463,0,0,1,71.48947.45967Z"/><path class="e0e1e5e0-507f-4ca3-8724-647a4a3b94de" d="M92.23947.45967l2.17968,4.41651,4.87391.70823a.82461.82461,0,0,1,.457,1.40654l-3.52679,3.43778.83256,4.85422a.82462.82462,0,0,1-1.19648.86929L91.5,13.86039l-4.35936,2.29185a.82462.82462,0,0,1-1.19648-.86929l.83256-4.85422L83.24993,6.991a.82461.82461,0,0,1,.457-1.40654l4.87391-.70823L90.76053.45967A.82463.82463,0,0,1,92.23947.45967Z"/></g></g></svg>