<?xml version="1.0" encoding="UTF-8"?><svg id="uuid-ca31ae7c-c87a-4708-8803-8e9643407ead" xmlns="http://www.w3.org/2000/svg" viewBox="0 0 135 40.0002"><defs><style>.uuid-932d3764-62c8-4c3c-b248-a37ff847f04c{fill:#4285f4;}.uuid-af598cbd-b532-4688-bd04-02d51f899d40{fill:#a6a6a6;}.uuid-2dfb5006-14ac-46a1-893b-77375ec658d3{stroke:#fff;stroke-miterlimit:10;stroke-width:.2px;}.uuid-2dfb5006-14ac-46a1-893b-77375ec658d3,.uuid-48464390-4a87-4c1e-8081-c6871c06d92f{fill:#fff;}.uuid-a2586f75-10ed-4efe-9e51-48b904afe277{fill:#34a853;}.uuid-fce1e38c-ab8e-4af9-8c7d-69dbd4efbdfe{fill:#fbbc04;}.uuid-a42ada9a-52b5-4b15-949c-2734d53f7a2b{fill:#ea4335;}</style></defs><rect width="135" height="40" rx="5" ry="5"/><path class="uuid-af598cbd-b532-4688-bd04-02d51f899d40" d="M130,.8c2.3159,0,4.1999,1.8842,4.1999,4.2002v30c0,2.3159-1.884,4.2002-4.1999,4.2002H5c-2.316,0-4.2-1.8843-4.2-4.2002V5.0002C.8,2.6842,2.684.8,5,.8h125M130,.0002H5C2.25.0002,0,2.2502,0,5.0002v30c0,2.75,2.25,5,5,5h125c2.75,0,5-2.25,5-5V5.0002C135,2.2502,132.75.0002,130,.0002h0Z"/><path class="uuid-2dfb5006-14ac-46a1-893b-77375ec658d3" d="M47.4184,10.2433c0,.8379-.2481,1.5053-.7452,2.0029-.5644.5918-1.2998.8877-2.2041.8877-.8662,0-1.6025-.2998-2.208-.9004-.6064-.6006-.9091-1.3452-.9091-2.2334,0-.8887.3027-1.6328.9091-2.2334.6055-.6006,1.3418-.9009,2.208-.9009.4297,0,.8409.084,1.2315.2515.3906.168.7041.3911.9385.6704l-.5274.5278c-.3974-.4746-.9443-.7119-1.6426-.7119-.6318,0-1.1777.2217-1.6386.666-.461.4444-.6914,1.021-.6914,1.7305s.2304,1.2861.6914,1.7305c.4609.4443,1.0068.666,1.6386.666.67,0,1.2286-.2232,1.6758-.6699.2901-.2911.458-.6958.5029-1.2154h-2.1787v-.7207h2.9073c.0283.1568.042.3072.042.4527Z"/><path class="uuid-2dfb5006-14ac-46a1-893b-77375ec658d3" d="M52.0277,7.7374h-2.7324v1.9023h2.4639v.7208h-2.4639v1.9023h2.7324v.7373h-3.5029v-6h3.5029v.7373Z"/><path class="uuid-2dfb5006-14ac-46a1-893b-77375ec658d3" d="M55.2787,13.0001h-.7715v-5.2627h-1.6758v-.7373h4.1231v.7373h-1.6758v5.2627Z"/><path class="uuid-2dfb5006-14ac-46a1-893b-77375ec658d3" d="M59.9379,13.0001v-6h.7705v6h-.7705Z"/><path class="uuid-2dfb5006-14ac-46a1-893b-77375ec658d3" d="M64.1283,13.0001h-.7715v-5.2627h-1.6757v-.7373h4.123v.7373h-1.6758v5.2627Z"/><path class="uuid-2dfb5006-14ac-46a1-893b-77375ec658d3" d="M73.6093,12.2247c-.5899.6065-1.3233.9092-2.2002.9092-.877,0-1.6104-.3027-2.1992-.9092-.5899-.6059-.8838-1.3476-.8838-2.2246s.2939-1.6187.8838-2.2246c.5888-.6065,1.3222-.9097,2.1992-.9097.8721,0,1.6035.3047,2.1963.9136.5918.6089.8877,1.3491.8877,2.2207,0,.877-.295,1.6187-.8838,2.2246ZM69.7792,11.7223c.4443.4497.9873.6743,1.6299.6743s1.1865-.2246,1.6299-.6743c.4443-.4497.667-1.024.667-1.7222s-.2227-1.2725-.667-1.7222c-.4434-.4497-.9873-.6743-1.6299-.6743s-1.1856.2246-1.6299.6743c-.4434.4497-.666,1.024-.666,1.7222s.2226,1.2725.666,1.7222Z"/><path class="uuid-2dfb5006-14ac-46a1-893b-77375ec658d3" d="M75.5751,13.0001v-6h.9385l2.916,4.6675h.0332l-.0332-1.1563v-3.5112h.7715v6h-.8047l-3.0508-4.8936h-.0332l.0332,1.1563v3.7373h-.7705Z"/><path class="uuid-48464390-4a87-4c1e-8081-c6871c06d92f" d="M68.1358,21.7517c-2.3522,0-4.2693,1.7882-4.2693,4.2531,0,2.4488,1.9171,4.2532,4.2693,4.2532s4.2693-1.8044,4.2693-4.2532c0-2.4649-1.9172-4.2531-4.2693-4.2531ZM68.1358,28.5825c-1.2888,0-2.4005-1.0633-2.4005-2.5777,0-1.5305,1.1117-2.5776,2.4005-2.5776s2.4004,1.0471,2.4004,2.5776c0,1.5144-1.1116,2.5777-2.4004,2.5777ZM58.8224,21.7517c-2.3522,0-4.2693,1.7882-4.2693,4.2531,0,2.4488,1.9171,4.2532,4.2693,4.2532s4.2692-1.8044,4.2692-4.2532c0-2.4649-1.9171-4.2531-4.2692-4.2531ZM58.8224,28.5825c-1.2889,0-2.4005-1.0633-2.4005-2.5777,0-1.5305,1.1116-2.5776,2.4005-2.5776,1.2888,0,2.4004,1.0471,2.4004,2.5776,0,1.5144-1.1116,2.5777-2.4004,2.5777ZM47.7436,23.0567v1.8043h4.3177c-.129,1.015-.4672,1.756-.9828,2.2716-.6283.6283-1.6111,1.321-3.3349,1.321-2.6582,0-4.7364-2.1427-4.7364-4.8009s2.0782-4.8009,4.7364-4.8009c1.4339,0,2.4811.5639,3.2544,1.2888l1.2727-1.2727c-1.0794-1.031-2.5132-1.8205-4.5271-1.8205-3.641,0-6.702,2.9644-6.702,6.6053s3.061,6.6053,6.702,6.6053c1.9655,0,3.4477-.6444,4.6076-1.8527,1.1922-1.1922,1.5628-2.8676,1.5628-4.2209,0-.4189-.0322-.8055-.0968-1.1277h-6.0736ZM93.0519,24.4582c-.3544-.9505-1.4338-2.7065-3.641-2.7065-2.191,0-4.0114,1.7238-4.0114,4.2531,0,2.3844,1.8043,4.2532,4.2209,4.2532,1.9493,0,3.0771-1.1922,3.5442-1.8849l-1.4499-.9666c-.4833.7088-1.1438,1.176-2.0943,1.176-.9506,0-1.6272-.435-2.0622-1.2888l5.6871-2.3521-.1934-.4834ZM87.2522,25.876c-.0484-1.6433,1.2727-2.481,2.2231-2.481.7412,0,1.3695.3705,1.5789.9022l-3.802,1.5788ZM82.6284,30.0002h1.8688v-12.5016h-1.8688v12.5016ZM79.5674,22.7022h-.0644c-.4189-.4994-1.2244-.9505-2.2394-.9505-2.1265,0-4.0759,1.8688-4.0759,4.2692,0,2.3844,1.9494,4.2371,4.0759,4.2371,1.015,0,1.8205-.4511,2.2394-.9666h.0644v.6122c0,1.6272-.8699,2.4971-2.2716,2.4971-1.1437,0-1.8527-.8216-2.1426-1.5144l-1.6272.6767c.4672,1.1277,1.7077,2.5132,3.7698,2.5132,2.1911,0,4.0438-1.2888,4.0438-4.4304v-7.6364h-1.7722v.6928ZM77.4248,28.5825c-1.2888,0-2.3683-1.0794-2.3683-2.5616,0-1.4982,1.0795-2.5937,2.3683-2.5937,1.2727,0,2.2715,1.0955,2.2715,2.5937,0,1.4822-.9988,2.5616-2.2715,2.5616ZM101.8058,17.4988h-4.4712v12.5014h1.8657v-4.7364h2.6055c2.0684,0,4.1012-1.4973,4.1012-3.8825s-2.0328-3.8825-4.1012-3.8825ZM101.854,23.524h-2.6537v-4.2853h2.6537c1.3951,0,2.1873,1.1551,2.1873,2.1426,0,.9689-.7922,2.1427-2.1873,2.1427ZM113.3857,21.7287c-1.351,0-2.7503.5951-3.3293,1.9139l1.6566.6916c.3538-.6916,1.0132-.9168,1.7048-.9168.965,0,1.9461.579,1.9622,1.6083v.1287c-.3378-.193-1.0615-.4825-1.9461-.4825-1.7852,0-3.6026.9811-3.6026,2.8146,0,1.6726,1.4635,2.7502,3.104,2.7502,1.2545,0,1.9461-.5629,2.3804-1.2223h.0643v.965h1.8013v-4.7928c0-2.2195-1.6566-3.4579-3.7956-3.4579ZM113.1605,28.5801c-.6112,0-1.4636-.3055-1.4636-1.0615,0-.9649,1.0615-1.3349,1.9783-1.3349.8202,0,1.2062.177,1.7048.4182-.1448,1.158-1.1419,1.9782-2.2195,1.9782ZM123.7433,22.0021l-2.1391,5.42h-.0644l-2.2194-5.42h-2.0104l3.3292,7.5752-1.8978,4.2138h1.946l5.1306-11.789h-2.0747ZM106.9363,30.0002h1.8656v-12.5014h-1.8656v12.5014Z"/><path class="uuid-a42ada9a-52b5-4b15-949c-2734d53f7a2b" d="M20.71724,19.4242l-10.64654,11.29996c.00063.00227.00103.00464.00166.00691.32665,1.22682,1.44707,2.13044,2.77736,2.13044.53144,0,1.03073-.14384,1.45893-.39597l.03384-.02031,11.9839-6.91463-5.60914-6.1064Z"/><path class="uuid-fce1e38c-ab8e-4af9-8c7d-69dbd4efbdfe" d="M31.4881,17.50003l-.01015-.00676-5.17368-2.99967-5.82877,5.18719,5.84933,5.84824,5.14635-2.96942c.90208-.48734,1.51476-1.43834,1.51476-2.53486,0-1.08975-.60421-2.03568-1.49784-2.52472Z"/><path class="uuid-932d3764-62c8-4c3c-b248-a37ff847f04c" d="M10.07001,9.27724c-.06384.23606-.09751.48383-.09751.74004v19.96754c0,.25641.03343.50445.09819.73932l11.0127-11.01064-11.01338-10.43627Z"/><path class="uuid-a2586f75-10ed-4efe-9e51-48b904afe277" d="M20.79578,20.00105l5.51007-5.50904-11.97013-6.94022c-.43497-.26059-.94271-.41119-1.486-.41119-1.33029,0-2.4524.9053-2.77905,2.13382-.00026.00094-.00041.00191-.00067.00285l10.72579,10.72378Z"/></svg>