<?xml version="1.0" encoding="UTF-8"?><svg id="uuid-edadd20f-e80d-4b55-9522-ffd8097da0a2" xmlns="http://www.w3.org/2000/svg" viewBox="0 0 800 220"><defs><style>.uuid-628ef56c-1042-4836-9d90-ef35b4b8c787{fill:none;}.uuid-61ac02f1-abaa-4f9e-89be-a7f8ffc488bc{fill:#f15270;}.uuid-1988f44d-4c60-43ed-b6a6-ffbb66293812{fill:#8178b0;}.uuid-c8331677-6dfb-4446-905d-9e19cabfd57d{fill:#2697d4;}.uuid-526f8ec4-8ab9-41c4-9d36-34d3d39e0bdd{fill:#44d094;}.uuid-b35d83f5-4b00-4f9d-b78b-988e8657b612,.uuid-81718110-ee02-4380-9900-bb2b53f99297{fill:#fff;}.uuid-81718110-ee02-4380-9900-bb2b53f99297{opacity:0;}</style></defs><rect class="uuid-81718110-ee02-4380-9900-bb2b53f99297" x="0" y="0" width="800" height="220"/><path class="uuid-61ac02f1-abaa-4f9e-89be-a7f8ffc488bc" d="M249.12646,75.31445c-1.77832,0-3.42969-.29199-4.95508-.87305s-2.84766-1.41016-3.9668-2.48535c-1.12012-1.0752-1.99219-2.33789-2.61719-3.78613-.62598-1.44824-.93848-3.04004-.93848-4.77344s.3125-3.3252.93848-4.77344c.625-1.44922,1.50293-2.71094,2.63379-3.78613,1.12988-1.0752,2.45703-1.9043,3.9834-2.48633,1.52441-.58105,3.17676-.87207,4.9541-.87207,1.99707,0,3.80762.3457,5.43262,1.03711,1.62402.69141,2.98438,1.70703,4.08203,3.04492l-3.45703,3.16113c-.76855-.90039-1.64062-1.58008-2.61719-2.04102s-2.03613-.69141-3.17676-.69141c-1.0752,0-2.06348.18066-2.96289.54297-.90039.3623-1.67871.87207-2.33789,1.53027-.6582.65918-1.16797,1.43848-1.53027,2.33789-.3623.90039-.54297,1.89844-.54297,2.99609s.18066,2.0957.54297,2.99609c.3623.89941.87207,1.67871,1.53027,2.33691.65918.6582,1.4375,1.16895,2.33789,1.53125.89941.3623,1.8877.54297,2.96289.54297,1.14062,0,2.2002-.23535,3.17676-.70801.97656-.47168,1.84863-1.15723,2.61719-2.05762l3.45703,3.16113c-1.09766,1.33887-2.45801,2.35938-4.08203,3.06152-1.625.70215-3.44629,1.05371-5.46484,1.05371Z"/><path class="uuid-61ac02f1-abaa-4f9e-89be-a7f8ffc488bc" d="M262.22803,74.91895v-23.04492h9.97559c2.0625,0,3.84082.33496,5.33301,1.00391,1.49219.66992,2.64453,1.62988,3.45703,2.88086.81152,1.25098,1.21777,2.73242,1.21777,4.44434,0,1.7334-.40625,3.2207-1.21777,4.46094-.8125,1.24023-1.96484,2.18359-3.45703,2.83105s-3.27051.9707-5.33301.9707h-7.0459l2.43652-2.30371v8.75684h-5.36621ZM267.59424,66.75391l-2.43652-2.53418h6.74902c1.62402,0,2.85352-.35156,3.6875-1.05371s1.25098-1.69043,1.25098-2.96289-.41699-2.25586-1.25098-2.94629c-.83398-.69141-2.06348-1.03711-3.6875-1.03711h-6.74902l2.43652-2.53516v13.06934ZM276.91162,74.91895l-5.79492-8.3623h5.72852l5.79492,8.3623h-5.72852Z"/><path class="uuid-61ac02f1-abaa-4f9e-89be-a7f8ffc488bc" d="M286.42529,74.91895v-23.04492h5.36621v23.04492h-5.36621Z"/><path class="uuid-61ac02f1-abaa-4f9e-89be-a7f8ffc488bc" d="M301.99658,74.91895v-18.69922h-7.37402v-4.3457h20.08203v4.3457h-7.37402v18.69922h-5.33398Z"/><path class="uuid-61ac02f1-abaa-4f9e-89be-a7f8ffc488bc" d="M317.56885,74.91895v-23.04492h5.36621v23.04492h-5.36621Z"/><path class="uuid-61ac02f1-abaa-4f9e-89be-a7f8ffc488bc" d="M339.396,75.31445c-1.77832,0-3.42969-.29199-4.95508-.87305s-2.84766-1.41016-3.9668-2.48535c-1.12012-1.0752-1.99219-2.33789-2.61719-3.78613-.62598-1.44824-.93848-3.04004-.93848-4.77344s.3125-3.3252.93848-4.77344c.625-1.44922,1.50293-2.71094,2.63379-3.78613,1.12988-1.0752,2.45703-1.9043,3.9834-2.48633,1.52441-.58105,3.17676-.87207,4.9541-.87207,1.99707,0,3.80762.3457,5.43262,1.03711,1.62402.69141,2.98438,1.70703,4.08203,3.04492l-3.45703,3.16113c-.76855-.90039-1.64062-1.58008-2.61719-2.04102s-2.03613-.69141-3.17676-.69141c-1.0752,0-2.06348.18066-2.96289.54297-.90039.3623-1.67871.87207-2.33789,1.53027-.6582.65918-1.16797,1.43848-1.53027,2.33789-.3623.90039-.54297,1.89844-.54297,2.99609s.18066,2.0957.54297,2.99609c.3623.89941.87207,1.67871,1.53027,2.33691.65918.6582,1.4375,1.16895,2.33789,1.53125.89941.3623,1.8877.54297,2.96289.54297,1.14062,0,2.2002-.23535,3.17676-.70801.97656-.47168,1.84863-1.15723,2.61719-2.05762l3.45703,3.16113c-1.09766,1.33887-2.45801,2.35938-4.08203,3.06152-1.625.70215-3.44629,1.05371-5.46484,1.05371Z"/><path class="uuid-61ac02f1-abaa-4f9e-89be-a7f8ffc488bc" d="M349.47021,74.91895l10.23828-23.04492h5.26758l10.33691,23.04492h-5.59668l-8.46094-20.3457h2.14062l-8.46094,20.3457h-5.46484ZM354.63818,69.98047l1.35059-4.04883h11.91699l1.38281,4.04883h-14.65039Z"/><path class="uuid-61ac02f1-abaa-4f9e-89be-a7f8ffc488bc" d="M377.71631,74.91895v-23.04492h5.36621v18.69922h11.49023v4.3457h-16.85645Z"/><path class="uuid-61ac02f1-abaa-4f9e-89be-a7f8ffc488bc" d="M403.88867,74.91895l10.23828-23.04492h5.26758l10.33789,23.04492h-5.59766l-8.46094-20.3457h2.14062l-8.46094,20.3457h-5.46484ZM409.05664,69.98047l1.35156-4.04883h11.91602l1.38281,4.04883h-14.65039Z"/><path class="uuid-61ac02f1-abaa-4f9e-89be-a7f8ffc488bc" d="M432.13477,74.91895v-23.04492h5.36719v18.69922h11.49023v4.3457h-16.85742Z"/><path class="uuid-61ac02f1-abaa-4f9e-89be-a7f8ffc488bc" d="M457.32031,70.63867h12.54297v4.28027h-17.84375v-23.04492h17.41602v4.2793h-12.11523v14.48535ZM456.92383,61.125h11.0957v4.18066h-11.0957v-4.18066Z"/><path class="uuid-61ac02f1-abaa-4f9e-89be-a7f8ffc488bc" d="M474.10938,74.91895v-23.04492h9.97656c2.0625,0,3.83984.33496,5.33203,1.00391,1.49219.66992,2.64453,1.62988,3.45703,2.88086s1.21875,2.73242,1.21875,4.44434c0,1.7334-.40625,3.2207-1.21875,4.46094s-1.96484,2.18359-3.45703,2.83105-3.26953.9707-5.33203.9707h-7.04688l2.4375-2.30371v8.75684h-5.36719ZM479.47656,66.75391l-2.4375-2.53418h6.75c1.62305,0,2.85352-.35156,3.6875-1.05371s1.25-1.69043,1.25-2.96289-.41602-2.25586-1.25-2.94629c-.83398-.69141-2.06445-1.03711-3.6875-1.03711h-6.75l2.4375-2.53516v13.06934ZM488.79297,74.91895l-5.79492-8.3623h5.72852l5.79492,8.3623h-5.72852Z"/><path class="uuid-61ac02f1-abaa-4f9e-89be-a7f8ffc488bc" d="M503.08008,74.91895v-18.69922h-7.375v-4.3457h20.08203v4.3457h-7.37305v18.69922h-5.33398Z"/><path class="uuid-61ac02f1-abaa-4f9e-89be-a7f8ffc488bc" d="M210.99044,52.86058l-10.55591,18.28338c-1.23461,2.13841.30865,4.81142,2.77787,4.81142h21.11183c2.46922,0,4.01248-2.67301,2.77787-4.81142l-10.55591-18.28338c-1.23461-2.13841-4.32113-2.13841-5.55574,0Z"/><path class="uuid-b35d83f5-4b00-4f9d-b78b-988e8657b612" d="M213.76831,67.29482c-.70856,0-1.28304-.57449-1.28304-1.28304v-7.69827c0-.70856.57449-1.28304,1.28304-1.28304s1.28304.57449,1.28304,1.28304v7.69827c0,.70856-.57449,1.28304-1.28304,1.28304Z"/><circle class="uuid-b35d83f5-4b00-4f9d-b78b-988e8657b612" cx="213.76831" cy="70.8232" r="1.60381"/><path class="uuid-c8331677-6dfb-4446-905d-9e19cabfd57d" d="M149.10649,117.8575s-1.58904,22.89223-24.61034,21.95419c0,0-8.79934,15.18831-26.47747,15.18831s-26.71583-15.70722-26.71583-15.70722c0,0-18.63156,3.11351-25.36514-15.50764,0,0-5.42262-15.46773,9.81236-21.95419,0,0,2.46302-23.55086,26.75556-21.19577,8.37213-14.82379,27.11877-20.02133,41.87179-11.60904,4.64075,2.64619,8.51533,6.46154,11.24207,11.07016,0,0,13.58634-1.33721,20.63773,9.97918h-.03973c7.03153,11.31639,4.80687,22.45315-7.11098,27.78203Z"/><path class="uuid-b35d83f5-4b00-4f9d-b78b-988e8657b612" d="M119.62941,104.40696h-11.14297c-.2805,0-.54651-.13121-.71094-.3596-.16927-.22354-.22248-.51511-.1451-.78724l5.76983-20.92487v.00486c.05804-.37418-.11607-.74352-.44495-.92332-.32404-.18467-.73029-.14579-1.01563.10205l-25.70559,30.97428c-.21764.26727-.26599.6366-.12091.95247.1451.31101.45945.51511.80284.51511h11.14297c.2805,0,.54651.13121.71094.3596.16927.22354.22248.51511.1451.78724l-5.81811,20.91989c-.12574.41306.05804.85528.43527,1.05452.37724.19924.84153.10205,1.11237-.23326l25.66596-30.97428c.21764-.26727.26599-.6366.12091-.95247-.1451-.31101-.45945-.51511-.80284-.51511l.00085.00012Z"/><rect class="uuid-628ef56c-1042-4836-9d90-ef35b4b8c787" x="200.03267" y="97.22864" width="467.45282" height="70.00063"/><path class="uuid-1988f44d-4c60-43ed-b6a6-ffbb66293812" d="M209.07617,126.12891l-7.95605-23.80029h3.50195l7.31055,21.96436h-1.76855l7.58203-21.96436h3.12793l7.41211,21.96436h-1.7002l7.41211-21.96436h3.23047l-7.95605,23.80029h-3.57031l-6.93555-20.3667h.91797l-6.9707,20.3667h-3.6377Z"/><path class="uuid-1988f44d-4c60-43ed-b6a6-ffbb66293812" d="M249.43457,126.33203c-1.92676,0-3.62109-.39648-5.08301-1.18945s-2.5957-1.88086-3.40039-3.26367-1.20703-2.96875-1.20703-4.75977.3916-3.37695,1.17285-4.75977c.78223-1.3833,1.8584-2.46631,3.23047-3.24756,1.37109-.78223,2.91797-1.17383,4.64062-1.17383,1.74512,0,3.28711.38574,4.62402,1.15625,1.33789.77148,2.38574,1.85352,3.14551,3.24756.75879,1.39453,1.13867,3.01953,1.13867,4.87891,0,.13477-.00586.29492-.0166.47656-.01172.18164-.0293.35156-.05176.50977h-15.33398v-2.3457h13.63477l-1.32617.81445c.02246-1.15625-.21582-2.18555-.71387-3.09375-.49902-.90625-1.18457-1.61523-2.05762-2.125-.87207-.50928-1.88672-.76416-3.04297-.76416-1.13379,0-2.1416.25488-3.02539.76416-.88477.50977-1.57617,1.22461-2.07422,2.14258-.49902.91797-.74805,1.9668-.74805,3.14453v.54492c0,1.20117.27734,2.27148.83301,3.21289.55469.93945,1.33105,1.67188,2.3291,2.19336.99707.52148,2.1416.78125,3.43359.78125,1.06543,0,2.03418-.18164,2.90723-.54492.87207-.36133,1.6377-.90625,2.29492-1.63086l1.80176,2.10742c-.81543.95312-1.83008,1.67773-3.04297,2.17578-1.21289.5-2.56641.74805-4.0625.74805Z"/><path class="uuid-1988f44d-4c60-43ed-b6a6-ffbb66293812" d="M261.46973,111.50781l-.2041-9.1792h2.85645l-.23828,9.1792h-2.41406Z"/><path class="uuid-1988f44d-4c60-43ed-b6a6-ffbb66293812" d="M274.08398,126.12891l-7.88867-18.02002h3.40039l7.00391,16.31885h-1.63184l7.13965-16.31885h3.19629l-7.8877,18.02002h-3.33203Z"/><path class="uuid-1988f44d-4c60-43ed-b6a6-ffbb66293812" d="M296.3877,126.33203c-1.92676,0-3.62109-.39648-5.08301-1.18945s-2.5957-1.88086-3.40039-3.26367-1.20703-2.96875-1.20703-4.75977.3916-3.37695,1.17285-4.75977c.78223-1.3833,1.8584-2.46631,3.23047-3.24756,1.37109-.78223,2.91797-1.17383,4.64062-1.17383,1.74512,0,3.28711.38574,4.62402,1.15625,1.33789.77148,2.38574,1.85352,3.14551,3.24756.75879,1.39453,1.13867,3.01953,1.13867,4.87891,0,.13477-.00586.29492-.0166.47656-.01172.18164-.0293.35156-.05176.50977h-15.33398v-2.3457h13.63477l-1.32617.81445c.02246-1.15625-.21582-2.18555-.71387-3.09375-.49902-.90625-1.18457-1.61523-2.05762-2.125-.87207-.50928-1.88672-.76416-3.04297-.76416-1.13379,0-2.1416.25488-3.02539.76416-.88477.50977-1.57617,1.22461-2.07422,2.14258-.49902.91797-.74805,1.9668-.74805,3.14453v.54492c0,1.20117.27734,2.27148.83301,3.21289.55469.93945,1.33105,1.67188,2.3291,2.19336.99707.52148,2.1416.78125,3.43359.78125,1.06543,0,2.03418-.18164,2.90723-.54492.87207-.36133,1.6377-.90625,2.29492-1.63086l1.80176,2.10742c-.81543.95312-1.83008,1.67773-3.04297,2.17578-1.21289.5-2.56641.74805-4.0625.74805Z"/><path class="uuid-1988f44d-4c60-43ed-b6a6-ffbb66293812" d="M325.7627,126.33203c-1.74609,0-3.30371-.38477-4.6748-1.15625-1.37207-.76953-2.4541-1.8457-3.24707-3.22852-.79395-1.38281-1.19043-2.99219-1.19043-4.82812s.39648-3.43945,1.19043-4.8125c.79297-1.37061,1.875-2.44092,3.24707-3.2124,1.37109-.77051,2.92871-1.15625,4.6748-1.15625,1.51855,0,2.88965.34082,4.11426,1.02051,1.22363.67969,2.2041,1.7002,2.94043,3.05908.73633,1.36133,1.10547,3.06055,1.10547,5.10156,0,2.03906-.35742,3.74023-1.07129,5.09961s-1.68262,2.38477-2.90723,3.07617c-1.22363.69141-2.61816,1.03711-4.18164,1.03711ZM326.03418,123.47656c1.13379,0,2.15918-.25977,3.07715-.78125s1.64355-1.26367,2.17676-2.22852c.53223-.96289.79883-2.07812.79883-3.34766,0-1.29297-.2666-2.4082-.79883-3.34961-.5332-.93945-1.25879-1.67188-2.17676-2.19336s-1.94336-.78174-3.07715-.78174c-1.15527,0-2.1875.26025-3.09375.78174s-1.63184,1.25391-2.17578,2.19336c-.54395.94141-.81641,2.05664-.81641,3.34961,0,1.26953.27246,2.38477.81641,3.34766.54395.96484,1.26953,1.70703,2.17578,2.22852s1.93848.78125,3.09375.78125ZM332.18848,126.12891v-4.86328l.2041-4.18164-.33984-4.18164v-12.00146h3.26367v25.22803h-3.12793Z"/><path class="uuid-1988f44d-4c60-43ed-b6a6-ffbb66293812" d="M349.52832,126.33203c-1.92676,0-3.62109-.39648-5.08301-1.18945s-2.5957-1.88086-3.40039-3.26367-1.20703-2.96875-1.20703-4.75977.3916-3.37695,1.17285-4.75977c.78223-1.3833,1.8584-2.46631,3.23047-3.24756,1.37109-.78223,2.91797-1.17383,4.64062-1.17383,1.74512,0,3.28711.38574,4.62402,1.15625,1.33789.77148,2.38574,1.85352,3.14551,3.24756.75879,1.39453,1.13867,3.01953,1.13867,4.87891,0,.13477-.00586.29492-.0166.47656-.01172.18164-.0293.35156-.05176.50977h-15.33398v-2.3457h13.63477l-1.32617.81445c.02246-1.15625-.21582-2.18555-.71387-3.09375-.49902-.90625-1.18457-1.61523-2.05762-2.125-.87207-.50928-1.88672-.76416-3.04297-.76416-1.13379,0-2.1416.25488-3.02539.76416-.88477.50977-1.57617,1.22461-2.07422,2.14258-.49902.91797-.74805,1.9668-.74805,3.14453v.54492c0,1.20117.27734,2.27148.83301,3.21289.55469.93945,1.33105,1.67188,2.3291,2.19336.99707.52148,2.1416.78125,3.43359.78125,1.06543,0,2.03418-.18164,2.90723-.54492.87207-.36133,1.6377-.90625,2.29492-1.63086l1.80176,2.10742c-.81543.95312-1.83008,1.67773-3.04297,2.17578-1.21289.5-2.56641.74805-4.0625.74805Z"/><path class="uuid-1988f44d-4c60-43ed-b6a6-ffbb66293812" d="M359.72754,110.79443v-2.68555h11.49219v2.68555h-11.49219ZM368.5,126.33203c-1.81348,0-3.21875-.48633-4.21582-1.46094-.99805-.97461-1.49609-2.36914-1.49609-4.18359v-16.52295h3.26367v16.38818c0,.97461.24316,1.72266.73145,2.24414.48633.52148,1.18359.78125,2.09082.78125,1.01953,0,1.87012-.2832,2.5498-.84961l1.01953,2.3457c-.49805.43164-1.09375.74805-1.78418.95312-.69238.20312-1.41113.30469-2.15918.30469Z"/><path class="uuid-1988f44d-4c60-43ed-b6a6-ffbb66293812" d="M384.41113,126.33203c-1.92676,0-3.62109-.39648-5.08301-1.18945s-2.5957-1.88086-3.40039-3.26367-1.20703-2.96875-1.20703-4.75977.3916-3.37695,1.17285-4.75977c.78223-1.3833,1.8584-2.46631,3.23047-3.24756,1.37109-.78223,2.91797-1.17383,4.64062-1.17383,1.74512,0,3.28711.38574,4.62402,1.15625,1.33789.77148,2.38574,1.85352,3.14551,3.24756.75879,1.39453,1.13867,3.01953,1.13867,4.87891,0,.13477-.00586.29492-.0166.47656-.01172.18164-.0293.35156-.05176.50977h-15.33398v-2.3457h13.63477l-1.32617.81445c.02246-1.15625-.21582-2.18555-.71387-3.09375-.49902-.90625-1.18457-1.61523-2.05762-2.125-.87207-.50928-1.88672-.76416-3.04297-.76416-1.13379,0-2.1416.25488-3.02539.76416-.88477.50977-1.57617,1.22461-2.07422,2.14258-.49902.91797-.74805,1.9668-.74805,3.14453v.54492c0,1.20117.27734,2.27148.83301,3.21289.55469.93945,1.33105,1.67188,2.3291,2.19336.99707.52148,2.1416.78125,3.43359.78125,1.06543,0,2.03418-.18164,2.90723-.54492.87207-.36133,1.6377-.90625,2.29492-1.63086l1.80176,2.10742c-.81543.95312-1.83008,1.67773-3.04297,2.17578-1.21289.5-2.56641.74805-4.0625.74805Z"/><path class="uuid-1988f44d-4c60-43ed-b6a6-ffbb66293812" d="M405.04883,126.33203c-1.83594,0-3.47363-.39648-4.91309-1.18945s-2.56738-1.88086-3.38281-3.26367c-.81641-1.38281-1.22461-2.96875-1.22461-4.75977s.4082-3.37695,1.22461-4.75977c.81543-1.3833,1.94336-2.46631,3.38281-3.24756,1.43945-.78223,3.07715-1.17383,4.91309-1.17383,1.63184,0,3.08789.32324,4.36914.96973,1.28027.64551,2.27148,1.60352,2.97461,2.87354l-2.48242,1.59766c-.58887-.88477-1.30859-1.53516-2.1582-1.95508-.85059-.41992-1.7627-.62939-2.7373-.62939-1.17871,0-2.23242.26025-3.16211.78174s-1.66602,1.25391-2.20996,2.19336c-.54395.94141-.81641,2.05664-.81641,3.34961,0,1.29102.27246,2.41406.81641,3.36523s1.28027,1.68945,2.20996,2.21094,1.9834.78125,3.16211.78125c.97461,0,1.88672-.20898,2.7373-.62891.84961-.41992,1.56934-1.07031,2.1582-1.95508l2.48242,1.56445c-.70312,1.24609-1.69434,2.20312-2.97461,2.87305-1.28125.66797-2.7373,1.00195-4.36914,1.00195Z"/><path class="uuid-1988f44d-4c60-43ed-b6a6-ffbb66293812" d="M414.02441,110.79443v-2.68555h11.49219v2.68555h-11.49219ZM422.79688,126.33203c-1.81348,0-3.21875-.48633-4.21582-1.46094-.99805-.97461-1.49609-2.36914-1.49609-4.18359v-16.52295h3.26367v16.38818c0,.97461.24316,1.72266.73145,2.24414.48633.52148,1.18359.78125,2.09082.78125,1.01953,0,1.87012-.2832,2.5498-.84961l1.01953,2.3457c-.49805.43164-1.09375.74805-1.78418.95312-.69238.20312-1.41113.30469-2.15918.30469Z"/><path class="uuid-1988f44d-4c60-43ed-b6a6-ffbb66293812" d="M438.70801,126.33203c-1.92676,0-3.62109-.39648-5.08301-1.18945s-2.5957-1.88086-3.40039-3.26367-1.20703-2.96875-1.20703-4.75977.3916-3.37695,1.17285-4.75977c.78223-1.3833,1.8584-2.46631,3.23047-3.24756,1.37109-.78223,2.91797-1.17383,4.64062-1.17383,1.74512,0,3.28711.38574,4.62402,1.15625,1.33789.77148,2.38574,1.85352,3.14551,3.24756.75879,1.39453,1.13867,3.01953,1.13867,4.87891,0,.13477-.00586.29492-.0166.47656-.01172.18164-.0293.35156-.05176.50977h-15.33398v-2.3457h13.63477l-1.32617.81445c.02246-1.15625-.21582-2.18555-.71387-3.09375-.49902-.90625-1.18457-1.61523-2.05762-2.125-.87207-.50928-1.88672-.76416-3.04297-.76416-1.13379,0-2.1416.25488-3.02539.76416-.88477.50977-1.57617,1.22461-2.07422,2.14258-.49902.91797-.74805,1.9668-.74805,3.14453v.54492c0,1.20117.27734,2.27148.83301,3.21289.55469.93945,1.33105,1.67188,2.3291,2.19336.99707.52148,2.1416.78125,3.43359.78125,1.06543,0,2.03418-.18164,2.90723-.54492.87207-.36133,1.6377-.90625,2.29492-1.63086l1.80176,2.10742c-.81543.95312-1.83008,1.67773-3.04297,2.17578-1.21289.5-2.56641.74805-4.0625.74805Z"/><path class="uuid-1988f44d-4c60-43ed-b6a6-ffbb66293812" d="M458.9375,126.33203c-1.74609,0-3.30371-.38477-4.6748-1.15625-1.37207-.76953-2.4541-1.8457-3.24707-3.22852-.79395-1.38281-1.19043-2.99219-1.19043-4.82812s.39648-3.43945,1.19043-4.8125c.79297-1.37061,1.875-2.44092,3.24707-3.2124,1.37109-.77051,2.92871-1.15625,4.6748-1.15625,1.51855,0,2.88965.34082,4.11426,1.02051,1.22363.67969,2.2041,1.7002,2.94043,3.05908.73633,1.36133,1.10547,3.06055,1.10547,5.10156,0,2.03906-.35742,3.74023-1.07129,5.09961s-1.68262,2.38477-2.90723,3.07617c-1.22363.69141-2.61816,1.03711-4.18164,1.03711ZM459.20898,123.47656c1.13379,0,2.15918-.25977,3.07715-.78125s1.64355-1.26367,2.17676-2.22852c.53223-.96289.79883-2.07812.79883-3.34766,0-1.29297-.2666-2.4082-.79883-3.34961-.5332-.93945-1.25879-1.67188-2.17676-2.19336s-1.94336-.78174-3.07715-.78174c-1.15527,0-2.1875.26025-3.09375.78174s-1.63184,1.25391-2.17578,2.19336c-.54395.94141-.81641,2.05664-.81641,3.34961,0,1.26953.27246,2.38477.81641,3.34766.54395.96484,1.26953,1.70703,2.17578,2.22852s1.93848.78125,3.09375.78125ZM465.36328,126.12891v-4.86328l.2041-4.18164-.33984-4.18164v-12.00146h3.26367v25.22803h-3.12793Z"/><path class="uuid-1988f44d-4c60-43ed-b6a6-ffbb66293812" d="M484.60645,132.92773c-.86133,0-1.7002-.14062-2.51562-.42383-.81641-.2832-1.51855-.69727-2.1084-1.24219l1.39453-2.44727c.45312.42969.95117.75977,1.49512.98633s1.12207.33984,1.73438.33984c.79297,0,1.4502-.20508,1.97168-.61133.52148-.4082,1.00879-1.13477,1.46191-2.17773l1.12207-2.48047.34082-.4082,7.07129-16.354h3.19629l-8.73828,19.8208c-.52148,1.26953-1.10449,2.26758-1.75098,2.99219-.64551.72656-1.35449,1.24219-2.125,1.54688-.77051.30664-1.62109.45898-2.5498.45898ZM488.89062,126.70703l-8.22852-18.59814h3.40039l7.00391,16.04736-2.17578,2.55078Z"/><path class="uuid-1988f44d-4c60-43ed-b6a6-ffbb66293812" d="M510.54785,126.33203c-1.79004,0-3.39453-.39648-4.81055-1.18945-1.41699-.79297-2.5332-1.88672-3.34863-3.28125-.81641-1.39453-1.22461-2.97461-1.22461-4.74219,0-1.79102.4082-3.37109,1.22461-4.74414.81543-1.37109,1.92578-2.45264,3.33203-3.24658,1.4043-.79297,3.01367-1.19043,4.82715-1.19043,1.79102,0,3.39453.3916,4.81152,1.17383,1.41602.78125,2.52734,1.86426,3.33203,3.24756.80469,1.38281,1.20703,2.96875,1.20703,4.75977s-.40234,3.37695-1.20703,4.75977-1.91602,2.4707-3.33203,3.26367c-1.41699.79297-3.02051,1.18945-4.81152,1.18945ZM510.54785,123.47656c1.15625,0,2.19336-.25977,3.11133-.78125s1.6377-1.26367,2.15918-2.22852c.52148-.96289.78223-2.07812.78223-3.34766,0-1.29297-.26074-2.4082-.78223-3.34961-.52148-.93945-1.24121-1.67188-2.15918-2.19336s-1.95508-.78174-3.11133-.78174c-1.15527,0-2.1875.26025-3.09375.78174s-1.63184,1.25391-2.17578,2.19336c-.54395.94141-.81641,2.05664-.81641,3.34961,0,1.26953.27246,2.38477.81641,3.34766.54395.96484,1.26953,1.70703,2.17578,2.22852s1.93848.78125,3.09375.78125Z"/><path class="uuid-1988f44d-4c60-43ed-b6a6-ffbb66293812" d="M532.00195,126.33203c-1.54102,0-2.89551-.2832-4.0625-.84961-1.16797-.56641-2.07422-1.43359-2.7207-2.60156-.64551-1.16602-.96875-2.63477-.96875-4.40234v-10.36963h3.26465v9.99463c0,1.76953.4248,3.0957,1.27441,3.97852.85059.88477,2.0459,1.32617,3.58691,1.32617,1.13379,0,2.11914-.23242,2.95801-.69727.83887-.46289,1.48438-1.14453,1.93848-2.03906.45312-.89648.67969-1.97852.67969-3.24805v-9.31494h3.26367v18.02002h-3.09375v-4.86328l.50977,1.29297c-.58887,1.20117-1.47363,2.13086-2.65137,2.78711-1.17871.6582-2.50488.98633-3.97852.98633Z"/><path class="uuid-1988f44d-4c60-43ed-b6a6-ffbb66293812" d="M547.4375,126.12891v-18.02002h3.12793v4.89502l-.30566-1.22266c.49805-1.24756,1.33691-2.19873,2.51562-2.85693,1.17871-.65723,2.62988-.98633,4.35254-.98633v3.16162c-.13574-.02148-.2666-.0332-.3916-.0332h-.35645c-1.74609,0-3.12793.52148-4.14844,1.56445-1.01953,1.04297-1.5293,2.54883-1.5293,4.52148v8.97656h-3.26465Z"/><path class="uuid-1988f44d-4c60-43ed-b6a6-ffbb66293812" d="M578.37695,126.33203c-1.83594,0-3.47363-.39648-4.91309-1.18945s-2.56738-1.88086-3.38281-3.26367c-.81641-1.38281-1.22461-2.96875-1.22461-4.75977s.4082-3.37695,1.22461-4.75977c.81543-1.3833,1.94336-2.46631,3.38281-3.24756,1.43945-.78223,3.07715-1.17383,4.91309-1.17383,1.63184,0,3.08789.32324,4.36914.96973,1.28027.64551,2.27148,1.60352,2.97461,2.87354l-2.48242,1.59766c-.58887-.88477-1.30859-1.53516-2.1582-1.95508-.85059-.41992-1.7627-.62939-2.7373-.62939-1.17871,0-2.23242.26025-3.16211.78174s-1.66602,1.25391-2.20996,2.19336c-.54395.94141-.81641,2.05664-.81641,3.34961,0,1.29102.27246,2.41406.81641,3.36523s1.28027,1.68945,2.20996,2.21094,1.9834.78125,3.16211.78125c.97461,0,1.88672-.20898,2.7373-.62891.84961-.41992,1.56934-1.07031,2.1582-1.95508l2.48242,1.56445c-.70312,1.24609-1.69434,2.20312-2.97461,2.87305-1.28125.66797-2.7373,1.00195-4.36914,1.00195Z"/><path class="uuid-1988f44d-4c60-43ed-b6a6-ffbb66293812" d="M595.20703,126.33203c-1.33789,0-2.51074-.22656-3.51953-.67969s-1.78516-1.08203-2.3291-1.88672-.81543-1.7168-.81543-2.73633c0-.97461.23242-1.85938.69727-2.65234.46387-.79297,1.22363-1.42773,2.27734-1.9043s2.47656-.71484,4.26758-.71484h5.71191v2.3457h-5.57617c-1.63184,0-2.73145.27344-3.29785.81641-.56738.54492-.85059,1.20312-.85059,1.97266,0,.88477.35156,1.5918,1.05469,2.125.70215.5332,1.67676.79883,2.92383.79883,1.22363,0,2.29492-.27148,3.21289-.81641.91797-.54297,1.58105-1.33594,1.98926-2.37891l.64551,2.24414c-.43066,1.06445-1.18945,1.9082-2.27832,2.53125-1.08789.625-2.45898.93555-4.11328.93555ZM601.12305,126.12891v-3.80859l-.16992-.71484v-6.49219c0-1.38281-.40332-2.45508-1.20703-3.21289-.80469-.75977-2.01172-1.14014-3.62109-1.14014-1.06543,0-2.1084.17578-3.12793.52686-1.02051.35156-1.88184.82227-2.58398,1.41211l-1.36035-2.44873c.92871-.74805,2.04492-1.32031,3.34863-1.7168s2.66895-.5957,4.09766-.5957c2.46973,0,4.37402.60156,5.71191,1.80273,1.33691,1.20117,2.00586,3.03662,2.00586,5.50732v10.88086h-3.09375Z"/><path class="uuid-1988f44d-4c60-43ed-b6a6-ffbb66293812" d="M615.43652,126.33203c-1.49609,0-2.91797-.20312-4.2666-.61133s-2.40918-.90625-3.17871-1.49609l1.35938-2.58398c.77051.52148,1.72266.96289,2.85645,1.32617,1.13281.36328,2.28906.54297,3.46777.54297,1.51855,0,2.6123-.21484,3.28125-.64453.66797-.43164,1.00293-1.03125,1.00293-1.80273,0-.56641-.2041-1.00781-.6123-1.32617-.4082-.31641-.94629-.55469-1.61523-.71484-.66895-.1582-1.41016-.29883-2.22656-.42383s-1.63184-.2832-2.44824-.47656c-.81543-.19141-1.56348-.46484-2.24414-.81641-.67969-.34961-1.22363-.83789-1.63184-1.46094s-.6123-1.45703-.6123-2.5c0-1.08789.30664-2.03906.91797-2.85498.6123-.81641,1.47949-1.44531,2.60156-1.8877,1.12207-.44141,2.45312-.66309,3.99512-.66309,1.17773,0,2.37402.14258,3.58691.42578,1.21191.2832,2.2041.68555,2.97461,1.20703l-1.39355,2.5835c-.81641-.54297-1.66602-.91797-2.5498-1.12109-.88477-.20459-1.76855-.30713-2.65234-.30713-1.42773,0-2.49414.2334-3.19629.69775-.70215.46484-1.05371,1.05859-1.05371,1.78516,0,.61133.20898,1.08203.62891,1.41016.41895.33008.96289.58398,1.63184.76562s1.41113.33398,2.22754.45898c.81543.125,1.63184.2832,2.44727.47656.81641.19141,1.55859.45898,2.22754.79883.66797.33984,1.21191.81445,1.63184,1.42773.41895.61133.62891,1.42773.62891,2.44727,0,1.08789-.31738,2.0293-.95215,2.82227s-1.5293,1.41016-2.68555,1.85352c-1.15625.44141-2.53906.66211-4.14844.66211Z"/><path class="uuid-1988f44d-4c60-43ed-b6a6-ffbb66293812" d="M636.9248,107.93799c1.47363,0,2.77148.28418,3.89355.85059s2,1.42773,2.63477,2.58447c.63379,1.15625.95215,2.61719.95215,4.38477v10.37109h-3.26465v-9.99609c0-1.74609-.4248-3.06055-1.27441-3.94531-.85059-.88281-2.0459-1.32471-3.58691-1.32471-1.15625,0-2.16504.22705-3.02637.68018s-1.52441,1.12109-1.98926,2.00586c-.46484.88281-.69629,1.98242-.69629,3.29688v9.2832h-3.26465v-25.22803h3.26465v12.06982l-.64648-1.29297c.58887-1.17725,1.49609-2.09521,2.71973-2.75342,1.22461-.65723,2.65234-.98633,4.28418-.98633Z"/><path class="uuid-1988f44d-4c60-43ed-b6a6-ffbb66293812" d="M203.12598,166.12891v-18.01953h3.12793v4.89453l-.30566-1.22266c.49805-1.24805,1.33691-2.19922,2.51562-2.85742,1.17871-.65625,2.62988-.98633,4.35254-.98633v3.16211c-.13574-.02148-.2666-.0332-.3916-.0332h-.35645c-1.74609,0-3.12793.52148-4.14844,1.56445-1.01953,1.04297-1.5293,2.54883-1.5293,4.52148v8.97656h-3.26465Z"/><path class="uuid-1988f44d-4c60-43ed-b6a6-ffbb66293812" d="M224.64746,166.33203c-1.54102,0-2.89551-.2832-4.0625-.84961-1.16797-.56641-2.07422-1.43359-2.7207-2.60156-.64551-1.16602-.96875-2.63477-.96875-4.40234v-10.36914h3.26465v9.99414c0,1.76953.4248,3.0957,1.27441,3.97852.85059.88477,2.0459,1.32617,3.58691,1.32617,1.13379,0,2.11914-.23242,2.95801-.69727.83887-.46289,1.48438-1.14453,1.93848-2.03906.45312-.89648.67969-1.97852.67969-3.24805v-9.31445h3.26367v18.01953h-3.09375v-4.86328l.50977,1.29297c-.58887,1.20117-1.47363,2.13086-2.65137,2.78711-1.17871.6582-2.50488.98633-3.97852.98633Z"/><path class="uuid-1988f44d-4c60-43ed-b6a6-ffbb66293812" d="M249.70508,147.9375c1.47363,0,2.77148.28516,3.89355.85156s2,1.42773,2.63477,2.58398c.63379,1.15625.95215,2.61719.95215,4.38477v10.37109h-3.26465v-9.99609c0-1.74609-.4248-3.06055-1.27441-3.94531-.85059-.88281-2.0459-1.32422-3.58691-1.32422-1.15625,0-2.16504.22656-3.02637.67969s-1.52441,1.12109-1.98926,2.00586c-.46484.88281-.69629,1.98242-.69629,3.29688v9.2832h-3.26465v-18.01953h3.12793v4.86133l-.50977-1.29297c.58887-1.17773,1.49609-2.0957,2.71973-2.75391,1.22461-.65625,2.65234-.98633,4.28418-.98633Z"/><path class="uuid-1988f44d-4c60-43ed-b6a6-ffbb66293812" d="M267.0459,166.12891l-6.69824-18.01953h3.09375l5.9502,16.31836h-1.46191l6.1875-16.31836h2.75391l6.05273,16.31836h-1.42871l6.08691-16.31836h2.92383l-6.73242,18.01953h-3.12793l-5.67773-14.89258h.95215l-5.74609,14.89258h-3.12793Z"/><path class="uuid-1988f44d-4c60-43ed-b6a6-ffbb66293812" d="M299.07324,166.33203c-1.33789,0-2.51074-.22656-3.51953-.67969s-1.78516-1.08203-2.3291-1.88672-.81543-1.7168-.81543-2.73633c0-.97461.23242-1.85938.69727-2.65234.46387-.79297,1.22363-1.42773,2.27734-1.9043s2.47656-.71484,4.26758-.71484h5.71191v2.3457h-5.57617c-1.63184,0-2.73145.27344-3.29785.81641-.56738.54492-.85059,1.20312-.85059,1.97266,0,.88477.35156,1.5918,1.05469,2.125.70215.5332,1.67676.79883,2.92383.79883,1.22363,0,2.29492-.27148,3.21289-.81641.91797-.54297,1.58105-1.33594,1.98926-2.37891l.64551,2.24414c-.43066,1.06445-1.18945,1.9082-2.27832,2.53125-1.08789.625-2.45898.93555-4.11328.93555ZM304.98926,166.12891v-3.80859l-.16992-.71484v-6.49219c0-1.38281-.40332-2.45508-1.20703-3.21289-.80469-.75977-2.01172-1.14062-3.62109-1.14062-1.06543,0-2.1084.17578-3.12793.52734-1.02051.35156-1.88184.82227-2.58398,1.41211l-1.36035-2.44922c.92871-.74805,2.04492-1.32031,3.34863-1.7168s2.66895-.5957,4.09766-.5957c2.46973,0,4.37402.60156,5.71191,1.80273,1.33691,1.20117,2.00586,3.03711,2.00586,5.50781v10.88086h-3.09375Z"/><path class="uuid-1988f44d-4c60-43ed-b6a6-ffbb66293812" d="M314.91699,172.92773c-.86133,0-1.7002-.14062-2.51562-.42383-.81641-.2832-1.51855-.69727-2.1084-1.24219l1.39453-2.44727c.45312.42969.95117.75977,1.49512.98633s1.12207.33984,1.73438.33984c.79297,0,1.4502-.20508,1.97168-.61133.52148-.4082,1.00879-1.13477,1.46191-2.17773l1.12207-2.48047.34082-.4082,7.07129-16.35352h3.19629l-8.73828,19.82031c-.52148,1.26953-1.10449,2.26758-1.75098,2.99219-.64551.72656-1.35449,1.24219-2.125,1.54688-.77051.30664-1.62109.45898-2.5498.45898ZM319.20117,166.70703l-8.22852-18.59766h3.40039l7.00391,16.04688-2.17578,2.55078Z"/><path class="uuid-1988f44d-4c60-43ed-b6a6-ffbb66293812" d="M343.91797,144.64062c-.63477,0-1.16113-.20508-1.58105-.61133-.41895-.4082-.62891-.90625-.62891-1.49609,0-.61328.20996-1.12305.62891-1.53125.41992-.4082.94629-.61133,1.58105-.61133s1.16211.19922,1.58105.5957c.41992.39648.62891.88867.62891,1.47852,0,.61133-.20312,1.12695-.61133,1.54688s-.94141.62891-1.59863.62891ZM342.28613,166.12891v-18.01953h3.26465v18.01953h-3.26465Z"/><path class="uuid-1988f44d-4c60-43ed-b6a6-ffbb66293812" d="M356.93945,166.33203c-1.49609,0-2.91797-.20312-4.2666-.61133s-2.40918-.90625-3.17871-1.49609l1.35938-2.58398c.77051.52148,1.72266.96289,2.85645,1.32617,1.13281.36328,2.28906.54297,3.46777.54297,1.51855,0,2.6123-.21484,3.28125-.64453.66797-.43164,1.00293-1.03125,1.00293-1.80273,0-.56641-.2041-1.00781-.6123-1.32617-.4082-.31641-.94629-.55469-1.61523-.71484-.66895-.1582-1.41016-.29883-2.22656-.42383s-1.63184-.2832-2.44824-.47656c-.81543-.19141-1.56348-.46484-2.24414-.81641-.67969-.34961-1.22363-.83789-1.63184-1.46094s-.6123-1.45703-.6123-2.5c0-1.08789.30664-2.03906.91797-2.85547.6123-.81641,1.47949-1.44531,2.60156-1.88672s2.45312-.66406,3.99512-.66406c1.17773,0,2.37402.14258,3.58691.42578,1.21191.2832,2.2041.68555,2.97461,1.20703l-1.39355,2.58398c-.81641-.54297-1.66602-.91797-2.5498-1.12109-.88477-.20508-1.76855-.30664-2.65234-.30664-1.42773,0-2.49414.23242-3.19629.69727s-1.05371,1.05859-1.05371,1.78516c0,.61133.20898,1.08203.62891,1.41016.41895.33008.96289.58398,1.63184.76562s1.41113.33398,2.22754.45898c.81543.125,1.63184.2832,2.44727.47656.81641.19141,1.55859.45898,2.22754.79883.66797.33984,1.21191.81445,1.63184,1.42773.41895.61133.62891,1.42773.62891,2.44727,0,1.08789-.31738,2.0293-.95215,2.82227s-1.5293,1.41016-2.68555,1.85352c-1.15625.44141-2.53906.66211-4.14844.66211Z"/><path class="uuid-1988f44d-4c60-43ed-b6a6-ffbb66293812" d="M385.5332,166.33203c-1.54102,0-2.89551-.2832-4.0625-.84961-1.16797-.56641-2.07422-1.43359-2.7207-2.60156-.64551-1.16602-.96875-2.63477-.96875-4.40234v-10.36914h3.26465v9.99414c0,1.76953.4248,3.0957,1.27441,3.97852.85059.88477,2.0459,1.32617,3.58691,1.32617,1.13379,0,2.11914-.23242,2.95801-.69727.83887-.46289,1.48438-1.14453,1.93848-2.03906.45312-.89648.67969-1.97852.67969-3.24805v-9.31445h3.26367v18.01953h-3.09375v-4.86328l.50977,1.29297c-.58887,1.20117-1.47363,2.13086-2.65137,2.78711-1.17871.6582-2.50488.98633-3.97852.98633Z"/><path class="uuid-1988f44d-4c60-43ed-b6a6-ffbb66293812" d="M410.59082,147.9375c1.47363,0,2.77148.28516,3.89355.85156s2,1.42773,2.63477,2.58398c.63379,1.15625.95215,2.61719.95215,4.38477v10.37109h-3.26465v-9.99609c0-1.74609-.4248-3.06055-1.27441-3.94531-.85059-.88281-2.0459-1.32422-3.58691-1.32422-1.15625,0-2.16504.22656-3.02637.67969s-1.52441,1.12109-1.98926,2.00586c-.46484.88281-.69629,1.98242-.69629,3.29688v9.2832h-3.26465v-18.01953h3.12793v4.86133l-.50977-1.29297c.58887-1.17773,1.49609-2.0957,2.71973-2.75391,1.22461-.65625,2.65234-.98633,4.28418-.98633Z"/><path class="uuid-1988f44d-4c60-43ed-b6a6-ffbb66293812" d="M431.56934,166.33203c-1.74609,0-3.30371-.38477-4.6748-1.15625-1.37207-.76953-2.4541-1.8457-3.24707-3.22852-.79395-1.38281-1.19043-2.99219-1.19043-4.82812s.39648-3.43945,1.19043-4.8125c.79297-1.37109,1.875-2.44141,3.24707-3.21289,1.37109-.76953,2.92871-1.15625,4.6748-1.15625,1.51855,0,2.88965.3418,4.11426,1.02148,1.22363.67969,2.2041,1.69922,2.94043,3.05859.73633,1.36133,1.10547,3.06055,1.10547,5.10156,0,2.03906-.35742,3.74023-1.07129,5.09961s-1.68262,2.38477-2.90723,3.07617c-1.22363.69141-2.61816,1.03711-4.18164,1.03711ZM431.84082,163.47656c1.13379,0,2.15918-.25977,3.07715-.78125s1.64355-1.26367,2.17676-2.22852c.53223-.96289.79883-2.07812.79883-3.34766,0-1.29297-.2666-2.4082-.79883-3.34961-.5332-.93945-1.25879-1.67188-2.17676-2.19336s-1.94336-.78125-3.07715-.78125c-1.15527,0-2.1875.25977-3.09375.78125s-1.63184,1.25391-2.17578,2.19336c-.54395.94141-.81641,2.05664-.81641,3.34961,0,1.26953.27246,2.38477.81641,3.34766.54395.96484,1.26953,1.70703,2.17578,2.22852s1.93848.78125,3.09375.78125ZM437.99512,166.12891v-4.86328l.2041-4.18164-.33984-4.18164v-12.00195h3.26367v25.22852h-3.12793Z"/><path class="uuid-1988f44d-4c60-43ed-b6a6-ffbb66293812" d="M455.33496,166.33203c-1.92676,0-3.62109-.39648-5.08301-1.18945s-2.5957-1.88086-3.40039-3.26367-1.20703-2.96875-1.20703-4.75977.3916-3.37695,1.17285-4.75977c.78223-1.38281,1.8584-2.4668,3.23047-3.24805,1.37109-.78125,2.91797-1.17383,4.64062-1.17383,1.74512,0,3.28711.38672,4.62402,1.15625,1.33789.77148,2.38574,1.85352,3.14551,3.24805.75879,1.39453,1.13867,3.01953,1.13867,4.87891,0,.13477-.00586.29492-.0166.47656-.01172.18164-.0293.35156-.05176.50977h-15.33398v-2.3457h13.63477l-1.32617.81445c.02246-1.15625-.21582-2.18555-.71387-3.09375-.49902-.90625-1.18457-1.61523-2.05762-2.125-.87207-.50977-1.88672-.76367-3.04297-.76367-1.13379,0-2.1416.25391-3.02539.76367-.88477.50977-1.57617,1.22461-2.07422,2.14258-.49902.91797-.74805,1.9668-.74805,3.14453v.54492c0,1.20117.27734,2.27148.83301,3.21289.55469.93945,1.33105,1.67188,2.3291,2.19336.99707.52148,2.1416.78125,3.43359.78125,1.06543,0,2.03418-.18164,2.90723-.54492.87207-.36133,1.6377-.90625,2.29492-1.63086l1.80176,2.10742c-.81543.95312-1.83008,1.67773-3.04297,2.17578-1.21289.5-2.56641.74805-4.0625.74805Z"/><path class="uuid-1988f44d-4c60-43ed-b6a6-ffbb66293812" d="M468.11816,166.12891v-18.01953h3.12793v4.89453l-.30566-1.22266c.49805-1.24805,1.33691-2.19922,2.51562-2.85742,1.17871-.65625,2.62988-.98633,4.35254-.98633v3.16211c-.13574-.02148-.2666-.0332-.3916-.0332h-.35645c-1.74609,0-3.12793.52148-4.14844,1.56445-1.01953,1.04297-1.5293,2.54883-1.5293,4.52148v8.97656h-3.26465Z"/><path class="uuid-1988f44d-4c60-43ed-b6a6-ffbb66293812" d="M499.02344,166.40039c-1.92676,0-3.59277-.2832-4.99805-.84961s-2.49414-1.37695-3.26367-2.43164c-.77148-1.05469-1.15625-2.29492-1.15625-3.72266,0-1.4043.36816-2.60156,1.10449-3.58789.73633-.98438,1.80762-1.73242,3.21387-2.24414,1.4043-.50977,3.10449-.76367,5.09961-.76367,1.99414,0,3.7002.25391,5.11719.76367,1.41602.51172,2.49902,1.26562,3.24707,2.26172.74805.99805,1.12207,2.1875,1.12207,3.57031,0,1.42773-.38574,2.66797-1.15625,3.72266s-1.87012,1.86523-3.29785,2.43164c-1.42871.56641-3.10645.84961-5.03223.84961ZM499.02344,154.63672c-1.81348,0-3.35449-.24414-4.62402-.73047-1.26953-.48828-2.24414-1.19141-2.92383-2.10938-.68066-.91797-1.02051-2.01172-1.02051-3.28125,0-1.33594.35742-2.48633,1.07129-3.45117.71387-.96289,1.7168-1.70508,3.00879-2.22656s2.78809-.78125,4.48828-.78125c1.72266,0,3.22949.25977,4.52148.78125s2.30078,1.26367,3.02637,2.22656c.72559.96484,1.08789,2.11523,1.08789,3.45117,0,1.26953-.33984,2.36328-1.01953,3.28125-.68066.91797-1.66602,1.62109-2.95801,2.10938-1.29199.48633-2.84473.73047-4.6582.73047ZM499.02344,163.64648c1.9043,0,3.39453-.39062,4.4707-1.17383,1.07617-.78125,1.61523-1.83984,1.61523-3.17773,0-1.31445-.53906-2.35156-1.61523-3.11133s-2.56641-1.13867-4.4707-1.13867c-1.88184,0-3.35449.37891-4.41992,1.13867s-1.59766,1.79688-1.59766,3.11133c0,1.33789.53223,2.39648,1.59766,3.17773,1.06543.7832,2.53809,1.17383,4.41992,1.17383ZM499.02344,152.46094c1.6543,0,2.95215-.33984,3.89258-1.02148.94043-.67969,1.41113-1.60742,1.41113-2.78711,0-1.20117-.4873-2.14258-1.46191-2.82227s-2.25586-1.01953-3.8418-1.01953c-1.58691,0-2.85059.33984-3.79102,1.01953s-1.41113,1.62109-1.41113,2.82227c0,1.17969.45898,2.10742,1.37695,2.78711.91797.68164,2.19336,1.02148,3.8252,1.02148Z"/><path class="uuid-1988f44d-4c60-43ed-b6a6-ffbb66293812" d="M544.78613,147.9375c1.4502,0,2.73145.28516,3.8418.85156s1.97754,1.42773,2.60156,2.58398c.62305,1.15625.93457,2.61719.93457,4.38477v10.37109h-3.26367v-9.99609c0-1.74609-.4082-3.06055-1.22363-3.94531-.81641-.88281-1.96094-1.32422-3.43457-1.32422-1.08789,0-2.04004.22656-2.85547.67969-.81641.45312-1.44531,1.12109-1.8877,2.00586-.44141.88281-.66309,1.98242-.66309,3.29688v9.2832h-3.26367v-9.99609c0-1.74609-.40234-3.06055-1.20703-3.94531-.80469-.88281-1.95508-1.32422-3.45117-1.32422-1.06543,0-2.00586.22656-2.82129.67969-.81641.45312-1.45117,1.12109-1.9043,2.00586-.4541.88281-.67969,1.98242-.67969,3.29688v9.2832h-3.26465v-18.01953h3.12793v4.79297l-.50977-1.22461c.56641-1.17773,1.43945-2.0957,2.61816-2.75391,1.17871-.65625,2.5498-.98633,4.11426-.98633,1.72168,0,3.20703.42578,4.4541,1.27539,1.24609.84961,2.06152,2.13672,2.44727,3.85938l-1.32617-.54297c.54492-1.38281,1.49609-2.49414,2.85645-3.33203,1.36035-.83984,2.94629-1.25977,4.75977-1.25977Z"/><path class="uuid-1988f44d-4c60-43ed-b6a6-ffbb66293812" d="M565.89941,166.33203c-1.79004,0-3.39453-.39648-4.81055-1.18945-1.41699-.79297-2.5332-1.88672-3.34863-3.28125-.81641-1.39453-1.22461-2.97461-1.22461-4.74219,0-1.79102.4082-3.37109,1.22461-4.74414.81543-1.37109,1.92578-2.45312,3.33203-3.24609,1.4043-.79297,3.01367-1.19141,4.82715-1.19141,1.79102,0,3.39453.39258,4.81152,1.17383,1.41602.78125,2.52734,1.86523,3.33203,3.24805s1.20703,2.96875,1.20703,4.75977-.40234,3.37695-1.20703,4.75977-1.91602,2.4707-3.33203,3.26367c-1.41699.79297-3.02051,1.18945-4.81152,1.18945ZM565.89941,163.47656c1.15625,0,2.19336-.25977,3.11133-.78125s1.6377-1.26367,2.15918-2.22852c.52148-.96289.78223-2.07812.78223-3.34766,0-1.29297-.26074-2.4082-.78223-3.34961-.52148-.93945-1.24121-1.67188-2.15918-2.19336s-1.95508-.78125-3.11133-.78125c-1.15527,0-2.1875.25977-3.09375.78125s-1.63184,1.25391-2.17578,2.19336c-.54395.94141-.81641,2.05664-.81641,3.34961,0,1.26953.27246,2.38477.81641,3.34766.54395.96484,1.26953,1.70703,2.17578,2.22852s1.93848.78125,3.09375.78125Z"/><path class="uuid-1988f44d-4c60-43ed-b6a6-ffbb66293812" d="M589.39355,147.9375c1.47363,0,2.77148.28516,3.89355.85156s2,1.42773,2.63477,2.58398c.63379,1.15625.95215,2.61719.95215,4.38477v10.37109h-3.26465v-9.99609c0-1.74609-.4248-3.06055-1.27441-3.94531-.85059-.88281-2.0459-1.32422-3.58691-1.32422-1.15625,0-2.16504.22656-3.02637.67969s-1.52441,1.12109-1.98926,2.00586c-.46484.88281-.69629,1.98242-.69629,3.29688v9.2832h-3.26465v-18.01953h3.12793v4.86133l-.50977-1.29297c.58887-1.17773,1.49609-2.0957,2.71973-2.75391,1.22461-.65625,2.65234-.98633,4.28418-.98633Z"/><path class="uuid-1988f44d-4c60-43ed-b6a6-ffbb66293812" d="M600.3418,150.79492v-2.68555h11.49219v2.68555h-11.49219ZM609.11426,166.33203c-1.81348,0-3.21875-.48633-4.21582-1.46094-.99805-.97461-1.49609-2.36914-1.49609-4.18359v-16.52344h3.26367v16.38867c0,.97461.24316,1.72266.73145,2.24414.48633.52148,1.18359.78125,2.09082.78125,1.01953,0,1.87012-.2832,2.5498-.84961l1.01953,2.3457c-.49805.43164-1.09375.74805-1.78418.95312-.69238.20312-1.41113.30469-2.15918.30469Z"/><path class="uuid-1988f44d-4c60-43ed-b6a6-ffbb66293812" d="M626.62305,147.9375c1.47363,0,2.77148.28516,3.89355.85156s2,1.42773,2.63477,2.58398c.63379,1.15625.95215,2.61719.95215,4.38477v10.37109h-3.26465v-9.99609c0-1.74609-.4248-3.06055-1.27441-3.94531-.85059-.88281-2.0459-1.32422-3.58691-1.32422-1.15625,0-2.16504.22656-3.02637.67969s-1.52441,1.12109-1.98926,2.00586c-.46484.88281-.69629,1.98242-.69629,3.29688v9.2832h-3.26465v-25.22852h3.26465v12.07031l-.64648-1.29297c.58887-1.17773,1.49609-2.0957,2.71973-2.75391,1.22461-.65625,2.65234-.98633,4.28418-.98633Z"/><path class="uuid-1988f44d-4c60-43ed-b6a6-ffbb66293812" d="M645.32324,166.33203c-1.49609,0-2.91797-.20312-4.2666-.61133s-2.40918-.90625-3.17871-1.49609l1.35938-2.58398c.77051.52148,1.72266.96289,2.85645,1.32617,1.13281.36328,2.28906.54297,3.46777.54297,1.51855,0,2.6123-.21484,3.28125-.64453.66797-.43164,1.00293-1.03125,1.00293-1.80273,0-.56641-.2041-1.00781-.6123-1.32617-.4082-.31641-.94629-.55469-1.61523-.71484-.66895-.1582-1.41016-.29883-2.22656-.42383s-1.63184-.2832-2.44824-.47656c-.81543-.19141-1.56348-.46484-2.24414-.81641-.67969-.34961-1.22363-.83789-1.63184-1.46094s-.6123-1.45703-.6123-2.5c0-1.08789.30664-2.03906.91797-2.85547.6123-.81641,1.47949-1.44531,2.60156-1.88672s2.45312-.66406,3.99512-.66406c1.17773,0,2.37402.14258,3.58691.42578,1.21191.2832,2.2041.68555,2.97461,1.20703l-1.39355,2.58398c-.81641-.54297-1.66602-.91797-2.5498-1.12109-.88477-.20508-1.76855-.30664-2.65234-.30664-1.42773,0-2.49414.23242-3.19629.69727s-1.05371,1.05859-1.05371,1.78516c0,.61133.20898,1.08203.62891,1.41016.41895.33008.96289.58398,1.63184.76562s1.41113.33398,2.22754.45898c.81543.125,1.63184.2832,2.44727.47656.81641.19141,1.55859.45898,2.22754.79883.66797.33984,1.21191.81445,1.63184,1.42773.41895.61133.62891,1.42773.62891,2.44727,0,1.08789-.31738,2.0293-.95215,2.82227s-1.5293,1.41016-2.68555,1.85352c-1.15625.44141-2.53906.66211-4.14844.66211Z"/><path class="uuid-1988f44d-4c60-43ed-b6a6-ffbb66293812" d="M658.68555,166.33203c-.63477,0-1.16797-.21484-1.59766-.64648-.43066-.42969-.64648-.93945-.64648-1.5293,0-.63477.21582-1.15625.64648-1.56445.42969-.4082.96289-.61133,1.59766-.61133s1.15625.20312,1.56445.61133c.40723.4082.61133.92969.61133,1.56445,0,.58984-.2041,1.09961-.61133,1.5293-.4082.43164-.92969.64648-1.56445.64648ZM657.35938,158.61523l-.61133-16.28711h3.8418l-.64648,16.28711h-2.58398Z"/><path class="uuid-526f8ec4-8ab9-41c4-9d36-34d3d39e0bdd" d="M706.6375,48.88889h10.05833c.90376,0,1.6375.73374,1.6375,1.6375v15.02917h-13.33333v-15.02917c0-.90376.73374-1.6375,1.6375-1.6375Z"/><path class="uuid-61ac02f1-abaa-4f9e-89be-a7f8ffc488bc" d="M705,65.55556h13.33333v9.47361c0,.90376-.73374,1.6375-1.6375,1.6375h-10.05833c-.90376,0-1.6375-.73374-1.6375-1.6375v-9.47361h0Z"/><path class="uuid-526f8ec4-8ab9-41c4-9d36-34d3d39e0bdd" d="M722.19306,35h10.05833c.90376,0,1.6375.73374,1.6375,1.6375v28.91806h-13.33333v-28.91806c0-.90376.73374-1.6375,1.6375-1.6375Z"/><path class="uuid-61ac02f1-abaa-4f9e-89be-a7f8ffc488bc" d="M720.55556,65.55556h13.33333v3.91806c0,.90376-.73374,1.6375-1.6375,1.6375h-10.05833c-.90376,0-1.6375-.73374-1.6375-1.6375v-3.91806h0Z"/><path class="uuid-526f8ec4-8ab9-41c4-9d36-34d3d39e0bdd" d="M737.74861,54.44444h10.05833c.90376,0,1.6375.73374,1.6375,1.6375v9.47361h-13.33333v-9.47361c0-.90376.73374-1.6375,1.6375-1.6375Z"/><path class="uuid-61ac02f1-abaa-4f9e-89be-a7f8ffc488bc" d="M736.11111,65.55556h13.33333v17.80694c0,.90376-.73374,1.6375-1.6375,1.6375h-10.05833c-.90376,0-1.6375-.73374-1.6375-1.6375v-17.80694h0Z"/><path class="uuid-526f8ec4-8ab9-41c4-9d36-34d3d39e0bdd" d="M753.30417,46.11111h10.05833c.90376,0,1.6375.73374,1.6375,1.6375v17.80694h-13.33333v-17.80694c0-.90376.73374-1.6375,1.6375-1.6375Z"/><path class="uuid-61ac02f1-abaa-4f9e-89be-a7f8ffc488bc" d="M751.66667,65.55556h13.33333v6.69583c0,.90376-.73374,1.6375-1.6375,1.6375h-10.05833c-.90376,0-1.6375-.73374-1.6375-1.6375v-6.69583h0Z"/></svg>