<?xml version="1.0" encoding="UTF-8"?><svg id="uuid-3613193b-87c2-49c7-a3b7-dc75d9d1368d" xmlns="http://www.w3.org/2000/svg" viewBox="0 0 800 220"><defs><style>.uuid-c92a39a8-53d9-4a17-8ace-fa53b5ebe79b{fill:none;}.uuid-23e4ae9d-c5d9-40c9-ad3a-90ff0b44d355{fill:#f15270;}.uuid-ea951d27-f50d-4522-803c-bd9d183f1d13{fill:#8178b0;}.uuid-0815240d-78b3-498d-8b49-2ac75638fd4b{fill:#2697d4;}.uuid-8490a2f9-107a-491c-befe-f863c9574855{fill:#44d094;}.uuid-68c08479-ff93-4ea1-8bb1-33b3c6339459,.uuid-ed679def-6ba8-482f-b77e-fc7d4aebda77{fill:#fff;}.uuid-ed679def-6ba8-482f-b77e-fc7d4aebda77{opacity:0;}</style></defs><rect class="uuid-ed679def-6ba8-482f-b77e-fc7d4aebda77" x="0" y="0" width="800" height="220"/><path class="uuid-23e4ae9d-c5d9-40c9-ad3a-90ff0b44d355" d="M249.12717,75.31456c-1.7793,0-3.42969-.29199-4.95508-.87305s-2.84766-1.41016-3.9668-2.48535c-1.12109-1.0752-1.99219-2.33789-2.61719-3.78613-.62695-1.44824-.93945-3.04004-.93945-4.77344s.3125-3.3252.93945-4.77344c.625-1.44922,1.50195-2.71094,2.63281-3.78613s2.45703-1.9043,3.98438-2.48633c1.52344-.58105,3.17578-.87207,4.95312-.87207,1.99805,0,3.80859.3457,5.43359,1.03711,1.62305.69141,2.98438,1.70703,4.08203,3.04492l-3.45703,3.16113c-.76953-.90039-1.64062-1.58008-2.61719-2.04102s-2.03711-.69141-3.17773-.69141c-1.07422,0-2.0625.18066-2.96289.54297s-1.67773.87207-2.33789,1.53027c-.6582.65918-1.16797,1.43848-1.5293,2.33789-.36328.90039-.54297,1.89844-.54297,2.99609s.17969,2.0957.54297,2.99609c.36133.89941.87109,1.67871,1.5293,2.33691.66016.6582,1.4375,1.16895,2.33789,1.53125s1.88867.54297,2.96289.54297c1.14062,0,2.20117-.23535,3.17773-.70801.97656-.47168,1.84766-1.15723,2.61719-2.05762l3.45703,3.16113c-1.09766,1.33887-2.45898,2.35938-4.08203,3.06152-1.625.70215-3.44727,1.05371-5.46484,1.05371Z"/><path class="uuid-23e4ae9d-c5d9-40c9-ad3a-90ff0b44d355" d="M262.22874,74.91905v-23.04492h9.97461c2.0625,0,3.8418.33496,5.33398,1.00391,1.49219.66992,2.64453,1.62988,3.45703,2.88086.81055,1.25098,1.2168,2.73242,1.2168,4.44434,0,1.7334-.40625,3.2207-1.2168,4.46094-.8125,1.24023-1.96484,2.18359-3.45703,2.83105s-3.27148.9707-5.33398.9707h-7.04492l2.43555-2.30371v8.75684h-5.36523ZM267.59397,66.75401l-2.43555-2.53418h6.74805c1.625,0,2.85352-.35156,3.6875-1.05371s1.25195-1.69043,1.25195-2.96289-.41797-2.25586-1.25195-2.94629c-.83398-.69141-2.0625-1.03711-3.6875-1.03711h-6.74805l2.43555-2.53516v13.06934ZM276.91233,74.91905l-5.79492-8.3623h5.72852l5.79492,8.3623h-5.72852Z"/><path class="uuid-23e4ae9d-c5d9-40c9-ad3a-90ff0b44d355" d="M286.426,74.91905v-23.04492h5.36523v23.04492h-5.36523Z"/><path class="uuid-23e4ae9d-c5d9-40c9-ad3a-90ff0b44d355" d="M301.99631,74.91905v-18.69922h-7.37305v-4.3457h20.08203v4.3457h-7.375v18.69922h-5.33398Z"/><path class="uuid-23e4ae9d-c5d9-40c9-ad3a-90ff0b44d355" d="M317.56858,74.91905v-23.04492h5.36719v23.04492h-5.36719Z"/><path class="uuid-23e4ae9d-c5d9-40c9-ad3a-90ff0b44d355" d="M339.3967,75.31456c-1.7793,0-3.42969-.29199-4.95508-.87305s-2.84766-1.41016-3.9668-2.48535c-1.12109-1.0752-1.99219-2.33789-2.61719-3.78613-.62695-1.44824-.93945-3.04004-.93945-4.77344s.3125-3.3252.93945-4.77344c.625-1.44922,1.50195-2.71094,2.63281-3.78613s2.45703-1.9043,3.98438-2.48633c1.52344-.58105,3.17578-.87207,4.95312-.87207,1.99805,0,3.80859.3457,5.43359,1.03711,1.62305.69141,2.98438,1.70703,4.08203,3.04492l-3.45703,3.16113c-.76953-.90039-1.64062-1.58008-2.61719-2.04102s-2.03711-.69141-3.17773-.69141c-1.07422,0-2.0625.18066-2.96289.54297s-1.67773.87207-2.33789,1.53027c-.6582.65918-1.16797,1.43848-1.5293,2.33789-.36328.90039-.54297,1.89844-.54297,2.99609s.17969,2.0957.54297,2.99609c.36133.89941.87109,1.67871,1.5293,2.33691.66016.6582,1.4375,1.16895,2.33789,1.53125s1.88867.54297,2.96289.54297c1.14062,0,2.20117-.23535,3.17773-.70801.97656-.47168,1.84766-1.15723,2.61719-2.05762l3.45703,3.16113c-1.09766,1.33887-2.45898,2.35938-4.08203,3.06152-1.625.70215-3.44727,1.05371-5.46484,1.05371Z"/><path class="uuid-23e4ae9d-c5d9-40c9-ad3a-90ff0b44d355" d="M349.47092,74.91905l10.23828-23.04492h5.26758l10.33594,23.04492h-5.5957l-8.46094-20.3457h2.14062l-8.46094,20.3457h-5.46484ZM354.63889,69.98057l1.34961-4.04883h11.91797l1.38281,4.04883h-14.65039Z"/><path class="uuid-23e4ae9d-c5d9-40c9-ad3a-90ff0b44d355" d="M377.71702,74.91905v-23.04492h5.36523v18.69922h11.49023v4.3457h-16.85547Z"/><path class="uuid-23e4ae9d-c5d9-40c9-ad3a-90ff0b44d355" d="M403.88889,74.91905l10.23828-23.04492h5.26758l10.33789,23.04492h-5.59766l-8.46094-20.3457h2.14062l-8.46094,20.3457h-5.46484ZM409.05686,69.98057l1.35156-4.04883h11.91602l1.38281,4.04883h-14.65039Z"/><path class="uuid-23e4ae9d-c5d9-40c9-ad3a-90ff0b44d355" d="M432.13499,74.91905v-23.04492h5.36719v18.69922h11.49023v4.3457h-16.85742Z"/><path class="uuid-23e4ae9d-c5d9-40c9-ad3a-90ff0b44d355" d="M457.32053,70.63878h12.54297v4.28027h-17.84375v-23.04492h17.41602v4.2793h-12.11523v14.48535ZM456.92405,61.12511h11.0957v4.18066h-11.0957v-4.18066Z"/><path class="uuid-23e4ae9d-c5d9-40c9-ad3a-90ff0b44d355" d="M474.10959,74.91905v-23.04492h9.97656c2.0625,0,3.83984.33496,5.33203,1.00391,1.49219.66992,2.64453,1.62988,3.45703,2.88086s1.21875,2.73242,1.21875,4.44434c0,1.7334-.40625,3.2207-1.21875,4.46094s-1.96484,2.18359-3.45703,2.83105-3.26953.9707-5.33203.9707h-7.04688l2.4375-2.30371v8.75684h-5.36719ZM479.47678,66.75401l-2.4375-2.53418h6.75c1.62305,0,2.85352-.35156,3.6875-1.05371s1.25-1.69043,1.25-2.96289-.41602-2.25586-1.25-2.94629c-.83398-.69141-2.06445-1.03711-3.6875-1.03711h-6.75l2.4375-2.53516v13.06934ZM488.79319,74.91905l-5.79492-8.3623h5.72852l5.79492,8.3623h-5.72852Z"/><path class="uuid-23e4ae9d-c5d9-40c9-ad3a-90ff0b44d355" d="M503.0803,74.91905v-18.69922h-7.375v-4.3457h20.08203v4.3457h-7.37305v18.69922h-5.33398Z"/><path class="uuid-23e4ae9d-c5d9-40c9-ad3a-90ff0b44d355" d="M210.99044,52.86058l-10.55591,18.28338c-1.23461,2.13841.30865,4.81142,2.77787,4.81142h21.11183c2.46922,0,4.01248-2.67301,2.77787-4.81142l-10.55591-18.28338c-1.23461-2.13841-4.32113-2.13841-5.55574,0Z"/><path class="uuid-68c08479-ff93-4ea1-8bb1-33b3c6339459" d="M213.76831,67.29482c-.70856,0-1.28304-.57449-1.28304-1.28304v-7.69827c0-.70856.57449-1.28304,1.28304-1.28304s1.28304.57449,1.28304,1.28304v7.69827c0,.70856-.57449,1.28304-1.28304,1.28304Z"/><circle class="uuid-68c08479-ff93-4ea1-8bb1-33b3c6339459" cx="213.76831" cy="70.8232" r="1.60381"/><path class="uuid-0815240d-78b3-498d-8b49-2ac75638fd4b" d="M149.10649,117.8575s-1.58904,22.89223-24.61034,21.95419c0,0-8.79934,15.18831-26.47747,15.18831s-26.71583-15.70722-26.71583-15.70722c0,0-18.63156,3.11351-25.36514-15.50764,0,0-5.42262-15.46773,9.81236-21.95419,0,0,2.46302-23.55086,26.75556-21.19577,8.37213-14.82379,27.11877-20.02133,41.87179-11.60904,4.64075,2.64619,8.51533,6.46154,11.24207,11.07016,0,0,13.58634-1.33721,20.63773,9.97918h-.03973c7.03153,11.31639,4.80687,22.45315-7.11098,27.78203Z"/><path class="uuid-68c08479-ff93-4ea1-8bb1-33b3c6339459" d="M119.62941,104.40696h-11.14297c-.2805,0-.54651-.13121-.71094-.3596-.16927-.22354-.22248-.51511-.1451-.78724l5.76983-20.92487v.00486c.05804-.37418-.11607-.74352-.44495-.92332-.32404-.18467-.73029-.14579-1.01563.10205l-25.70559,30.97428c-.21764.26727-.26599.6366-.12091.95247.1451.31101.45945.51511.80284.51511h11.14297c.2805,0,.54651.13121.71094.3596.16927.22354.22248.51511.1451.78724l-5.81811,20.91989c-.12574.41306.05804.85528.43527,1.05452.37724.19924.84153.10205,1.11237-.23326l25.66596-30.97428c.21764-.26727.26599-.6366.12091-.95247-.1451-.31101-.45945-.51511-.80284-.51511l.00085.00012Z"/><rect class="uuid-c92a39a8-53d9-4a17-8ace-fa53b5ebe79b" x="200.03267" y="97.22864" width="474.47634" height="70.00063"/><path class="uuid-ea951d27-f50d-4522-803c-bd9d183f1d13" d="M209.07639,126.12803l-7.95605-23.7998h3.50195l7.31055,21.96387h-1.76855l7.58203-21.96387h3.12793l7.41211,21.96387h-1.7002l7.41211-21.96387h3.23047l-7.95605,23.7998h-3.57031l-6.93555-20.36621h.91797l-6.9707,20.36621h-3.6377Z"/><path class="uuid-ea951d27-f50d-4522-803c-bd9d183f1d13" d="M249.43479,126.33214c-1.92676,0-3.62109-.39648-5.08301-1.19043-1.46191-.79297-2.5957-1.88086-3.40039-3.26367-.80469-1.38184-1.20703-2.96875-1.20703-4.75977s.3916-3.37695,1.17285-4.75977c.78223-1.38281,1.8584-2.46582,3.23047-3.24707,1.37109-.78223,2.91797-1.17383,4.64062-1.17383,1.74512,0,3.28711.38574,4.62402,1.15625,1.33789.77148,2.38574,1.85352,3.14551,3.24707.75879,1.39453,1.13867,3.02051,1.13867,4.87891,0,.13574-.00586.29492-.0166.47656-.01172.18164-.0293.35156-.05176.50977h-15.33398v-2.3457h13.63477l-1.32617.81543c.02246-1.15625-.21582-2.18652-.71387-3.09375-.49902-.90625-1.18457-1.61523-2.05762-2.125-.87207-.50977-1.88672-.76465-3.04297-.76465-1.13379,0-2.1416.25488-3.02539.76465-.88477.50977-1.57617,1.22363-2.07422,2.1416-.49902.91797-.74805,1.9668-.74805,3.14551v.54395c0,1.20117.27734,2.27246.83301,3.21289.55469.94043,1.33105,1.67188,2.3291,2.19336.99707.52148,2.1416.78125,3.43359.78125,1.06543,0,2.03418-.18066,2.90723-.54395.87207-.3623,1.6377-.90625,2.29492-1.63184l1.80176,2.1084c-.81543.95215-1.83008,1.67773-3.04297,2.17578-1.21289.49902-2.56641.74805-4.0625.74805Z"/><path class="uuid-ea951d27-f50d-4522-803c-bd9d183f1d13" d="M261.46995,111.50792l-.2041-9.17969h2.85645l-.23828,9.17969h-2.41406Z"/><path class="uuid-ea951d27-f50d-4522-803c-bd9d183f1d13" d="M274.0842,126.12803l-7.88867-18.01953h3.40039l7.00391,16.31934h-1.63184l7.13965-16.31934h3.19629l-7.8877,18.01953h-3.33203Z"/><path class="uuid-ea951d27-f50d-4522-803c-bd9d183f1d13" d="M296.38791,126.33214c-1.92676,0-3.62109-.39648-5.08301-1.19043-1.46191-.79297-2.5957-1.88086-3.40039-3.26367-.80469-1.38184-1.20703-2.96875-1.20703-4.75977s.3916-3.37695,1.17285-4.75977c.78223-1.38281,1.8584-2.46582,3.23047-3.24707,1.37109-.78223,2.91797-1.17383,4.64062-1.17383,1.74512,0,3.28711.38574,4.62402,1.15625,1.33789.77148,2.38574,1.85352,3.14551,3.24707.75879,1.39453,1.13867,3.02051,1.13867,4.87891,0,.13574-.00586.29492-.0166.47656-.01172.18164-.0293.35156-.05176.50977h-15.33398v-2.3457h13.63477l-1.32617.81543c.02246-1.15625-.21582-2.18652-.71387-3.09375-.49902-.90625-1.18457-1.61523-2.05762-2.125-.87207-.50977-1.88672-.76465-3.04297-.76465-1.13379,0-2.1416.25488-3.02539.76465-.88477.50977-1.57617,1.22363-2.07422,2.1416-.49902.91797-.74805,1.9668-.74805,3.14551v.54395c0,1.20117.27734,2.27246.83301,3.21289.55469.94043,1.33105,1.67188,2.3291,2.19336.99707.52148,2.1416.78125,3.43359.78125,1.06543,0,2.03418-.18066,2.90723-.54395.87207-.3623,1.6377-.90625,2.29492-1.63184l1.80176,2.1084c-.81543.95215-1.83008,1.67773-3.04297,2.17578-1.21289.49902-2.56641.74805-4.0625.74805Z"/><path class="uuid-ea951d27-f50d-4522-803c-bd9d183f1d13" d="M325.76291,126.33214c-1.74609,0-3.30371-.38574-4.6748-1.15625-1.37207-.77051-2.4541-1.84668-3.24707-3.22949-.79395-1.38281-1.19043-2.99219-1.19043-4.82812s.39648-3.43945,1.19043-4.81152c.79297-1.37109,1.875-2.44141,3.24707-3.21289,1.37109-.77051,2.92871-1.15625,4.6748-1.15625,1.51855,0,2.88965.34082,4.11426,1.02051,1.22363.67969,2.2041,1.7002,2.94043,3.05957.73633,1.36035,1.10547,3.06055,1.10547,5.10059s-.35742,3.74023-1.07129,5.09961c-.71387,1.36035-1.68262,2.38574-2.90723,3.07715-1.22363.69141-2.61816,1.03711-4.18164,1.03711ZM326.0344,123.47569c1.13379,0,2.15918-.25977,3.07715-.78125s1.64355-1.26367,2.17676-2.22754c.53223-.96289.79883-2.0791.79883-3.34863,0-1.29199-.2666-2.4082-.79883-3.34961-.5332-.93945-1.25879-1.6709-2.17676-2.19238s-1.94336-.78223-3.07715-.78223c-1.15527,0-2.1875.26074-3.09375.78223s-1.63184,1.25293-2.17578,2.19238c-.54395.94141-.81641,2.05762-.81641,3.34961,0,1.26953.27246,2.38574.81641,3.34863.54395.96387,1.26953,1.70605,2.17578,2.22754s1.93848.78125,3.09375.78125ZM332.1887,126.12803v-4.8623l.2041-4.18164-.33984-4.18164v-12.00195h3.26367v25.22754h-3.12793Z"/><path class="uuid-ea951d27-f50d-4522-803c-bd9d183f1d13" d="M349.52854,126.33214c-1.92676,0-3.62109-.39648-5.08301-1.19043-1.46191-.79297-2.5957-1.88086-3.40039-3.26367-.80469-1.38184-1.20703-2.96875-1.20703-4.75977s.3916-3.37695,1.17285-4.75977c.78223-1.38281,1.8584-2.46582,3.23047-3.24707,1.37109-.78223,2.91797-1.17383,4.64062-1.17383,1.74512,0,3.28711.38574,4.62402,1.15625,1.33789.77148,2.38574,1.85352,3.14551,3.24707.75879,1.39453,1.13867,3.02051,1.13867,4.87891,0,.13574-.00586.29492-.0166.47656-.01172.18164-.0293.35156-.05176.50977h-15.33398v-2.3457h13.63477l-1.32617.81543c.02246-1.15625-.21582-2.18652-.71387-3.09375-.49902-.90625-1.18457-1.61523-2.05762-2.125-.87207-.50977-1.88672-.76465-3.04297-.76465-1.13379,0-2.1416.25488-3.02539.76465-.88477.50977-1.57617,1.22363-2.07422,2.1416-.49902.91797-.74805,1.9668-.74805,3.14551v.54395c0,1.20117.27734,2.27246.83301,3.21289.55469.94043,1.33105,1.67188,2.3291,2.19336.99707.52148,2.1416.78125,3.43359.78125,1.06543,0,2.03418-.18066,2.90723-.54395.87207-.3623,1.6377-.90625,2.29492-1.63184l1.80176,2.1084c-.81543.95215-1.83008,1.67773-3.04297,2.17578-1.21289.49902-2.56641.74805-4.0625.74805Z"/><path class="uuid-ea951d27-f50d-4522-803c-bd9d183f1d13" d="M359.72776,110.79405v-2.68555h11.49219v2.68555h-11.49219ZM368.50022,126.33214c-1.81348,0-3.21875-.4873-4.21582-1.46191-.99805-.97461-1.49609-2.36816-1.49609-4.18262v-16.52344h3.26367v16.3877c0,.97461.24316,1.72266.73145,2.24414.48633.52148,1.18359.78223,2.09082.78223,1.01953,0,1.87012-.2832,2.5498-.85059l1.01953,2.34668c-.49805.43066-1.09375.74805-1.78418.95215-.69238.20312-1.41113.30566-2.15918.30566Z"/><path class="uuid-ea951d27-f50d-4522-803c-bd9d183f1d13" d="M384.41135,126.33214c-1.92676,0-3.62109-.39648-5.08301-1.19043-1.46191-.79297-2.5957-1.88086-3.40039-3.26367-.80469-1.38184-1.20703-2.96875-1.20703-4.75977s.3916-3.37695,1.17285-4.75977c.78223-1.38281,1.8584-2.46582,3.23047-3.24707,1.37109-.78223,2.91797-1.17383,4.64062-1.17383,1.74512,0,3.28711.38574,4.62402,1.15625,1.33789.77148,2.38574,1.85352,3.14551,3.24707.75879,1.39453,1.13867,3.02051,1.13867,4.87891,0,.13574-.00586.29492-.0166.47656-.01172.18164-.0293.35156-.05176.50977h-15.33398v-2.3457h13.63477l-1.32617.81543c.02246-1.15625-.21582-2.18652-.71387-3.09375-.49902-.90625-1.18457-1.61523-2.05762-2.125-.87207-.50977-1.88672-.76465-3.04297-.76465-1.13379,0-2.1416.25488-3.02539.76465-.88477.50977-1.57617,1.22363-2.07422,2.1416-.49902.91797-.74805,1.9668-.74805,3.14551v.54395c0,1.20117.27734,2.27246.83301,3.21289.55469.94043,1.33105,1.67188,2.3291,2.19336.99707.52148,2.1416.78125,3.43359.78125,1.06543,0,2.03418-.18066,2.90723-.54395.87207-.3623,1.6377-.90625,2.29492-1.63184l1.80176,2.1084c-.81543.95215-1.83008,1.67773-3.04297,2.17578-1.21289.49902-2.56641.74805-4.0625.74805Z"/><path class="uuid-ea951d27-f50d-4522-803c-bd9d183f1d13" d="M405.04905,126.33214c-1.83594,0-3.47363-.39648-4.91309-1.19043-1.43945-.79297-2.56738-1.88086-3.38281-3.26367-.81641-1.38184-1.22461-2.96875-1.22461-4.75977s.4082-3.37695,1.22461-4.75977c.81543-1.38281,1.94336-2.46582,3.38281-3.24707,1.43945-.78223,3.07715-1.17383,4.91309-1.17383,1.63184,0,3.08789.32324,4.36914.96973,1.28027.64551,2.27148,1.60352,2.97461,2.87305l-2.48242,1.59766c-.58887-.88379-1.30859-1.53516-2.1582-1.95508-.85059-.41895-1.7627-.62891-2.7373-.62891-1.17871,0-2.23242.26074-3.16211.78223s-1.66602,1.25293-2.20996,2.19238c-.54395.94141-.81641,2.05762-.81641,3.34961s.27246,2.41406.81641,3.36621c.54395.95117,1.28027,1.68848,2.20996,2.20996s1.9834.78125,3.16211.78125c.97461,0,1.88672-.20898,2.7373-.62891.84961-.41895,1.56934-1.07031,2.1582-1.95508l2.48242,1.56445c-.70312,1.24707-1.69434,2.2041-2.97461,2.87305-1.28125.66895-2.7373,1.00293-4.36914,1.00293Z"/><path class="uuid-ea951d27-f50d-4522-803c-bd9d183f1d13" d="M414.02463,110.79405v-2.68555h11.49219v2.68555h-11.49219ZM422.79709,126.33214c-1.81348,0-3.21875-.4873-4.21582-1.46191-.99805-.97461-1.49609-2.36816-1.49609-4.18262v-16.52344h3.26367v16.3877c0,.97461.24316,1.72266.73145,2.24414.48633.52148,1.18359.78223,2.09082.78223,1.01953,0,1.87012-.2832,2.5498-.85059l1.01953,2.34668c-.49805.43066-1.09375.74805-1.78418.95215-.69238.20312-1.41113.30566-2.15918.30566Z"/><path class="uuid-ea951d27-f50d-4522-803c-bd9d183f1d13" d="M438.70823,126.33214c-1.92676,0-3.62109-.39648-5.08301-1.19043-1.46191-.79297-2.5957-1.88086-3.40039-3.26367-.80469-1.38184-1.20703-2.96875-1.20703-4.75977s.3916-3.37695,1.17285-4.75977c.78223-1.38281,1.8584-2.46582,3.23047-3.24707,1.37109-.78223,2.91797-1.17383,4.64062-1.17383,1.74512,0,3.28711.38574,4.62402,1.15625,1.33789.77148,2.38574,1.85352,3.14551,3.24707.75879,1.39453,1.13867,3.02051,1.13867,4.87891,0,.13574-.00586.29492-.0166.47656-.01172.18164-.0293.35156-.05176.50977h-15.33398v-2.3457h13.63477l-1.32617.81543c.02246-1.15625-.21582-2.18652-.71387-3.09375-.49902-.90625-1.18457-1.61523-2.05762-2.125-.87207-.50977-1.88672-.76465-3.04297-.76465-1.13379,0-2.1416.25488-3.02539.76465-.88477.50977-1.57617,1.22363-2.07422,2.1416-.49902.91797-.74805,1.9668-.74805,3.14551v.54395c0,1.20117.27734,2.27246.83301,3.21289.55469.94043,1.33105,1.67188,2.3291,2.19336.99707.52148,2.1416.78125,3.43359.78125,1.06543,0,2.03418-.18066,2.90723-.54395.87207-.3623,1.6377-.90625,2.29492-1.63184l1.80176,2.1084c-.81543.95215-1.83008,1.67773-3.04297,2.17578-1.21289.49902-2.56641.74805-4.0625.74805Z"/><path class="uuid-ea951d27-f50d-4522-803c-bd9d183f1d13" d="M458.93772,126.33214c-1.74609,0-3.30371-.38574-4.6748-1.15625-1.37207-.77051-2.4541-1.84668-3.24707-3.22949-.79395-1.38281-1.19043-2.99219-1.19043-4.82812s.39648-3.43945,1.19043-4.81152c.79297-1.37109,1.875-2.44141,3.24707-3.21289,1.37109-.77051,2.92871-1.15625,4.6748-1.15625,1.51855,0,2.88965.34082,4.11426,1.02051,1.22363.67969,2.2041,1.7002,2.94043,3.05957.73633,1.36035,1.10547,3.06055,1.10547,5.10059s-.35742,3.74023-1.07129,5.09961c-.71387,1.36035-1.68262,2.38574-2.90723,3.07715-1.22363.69141-2.61816,1.03711-4.18164,1.03711ZM459.2092,123.47569c1.13379,0,2.15918-.25977,3.07715-.78125s1.64355-1.26367,2.17676-2.22754c.53223-.96289.79883-2.0791.79883-3.34863,0-1.29199-.2666-2.4082-.79883-3.34961-.5332-.93945-1.25879-1.6709-2.17676-2.19238s-1.94336-.78223-3.07715-.78223c-1.15527,0-2.1875.26074-3.09375.78223s-1.63184,1.25293-2.17578,2.19238c-.54395.94141-.81641,2.05762-.81641,3.34961,0,1.26953.27246,2.38574.81641,3.34863.54395.96387,1.26953,1.70605,2.17578,2.22754s1.93848.78125,3.09375.78125ZM465.3635,126.12803v-4.8623l.2041-4.18164-.33984-4.18164v-12.00195h3.26367v25.22754h-3.12793Z"/><path class="uuid-ea951d27-f50d-4522-803c-bd9d183f1d13" d="M484.60666,132.92784c-.86133,0-1.7002-.1416-2.51562-.4248-.81641-.2832-1.51855-.69727-2.1084-1.24121l1.39453-2.44824c.45312.43066.95117.75977,1.49512.98633s1.12207.33984,1.73438.33984c.79297,0,1.4502-.2041,1.97168-.61133.52148-.4082,1.00879-1.13379,1.46191-2.17676l1.12207-2.48145.34082-.4082,7.07129-16.35352h3.19629l-8.73828,19.82129c-.52148,1.26953-1.10449,2.2666-1.75098,2.99219-.64551.72559-1.35449,1.24121-2.125,1.54688-.77051.30664-1.62109.45898-2.5498.45898ZM488.89084,126.70616l-8.22852-18.59766h3.40039l7.00391,16.04785-2.17578,2.5498Z"/><path class="uuid-ea951d27-f50d-4522-803c-bd9d183f1d13" d="M510.54807,126.33214c-1.79004,0-3.39453-.39648-4.81055-1.19043-1.41699-.79297-2.5332-1.88672-3.34863-3.28027-.81641-1.39453-1.22461-2.97559-1.22461-4.74316,0-1.79102.4082-3.37109,1.22461-4.74316.81543-1.37109,1.92578-2.45312,3.33203-3.24707,1.4043-.79297,3.01367-1.19043,4.82715-1.19043,1.79102,0,3.39453.3916,4.81152,1.17383,1.41602.78125,2.52734,1.86426,3.33203,3.24707s1.20703,2.96875,1.20703,4.75977-.40234,3.37793-1.20703,4.75977c-.80469,1.38281-1.91602,2.4707-3.33203,3.26367-1.41699.79395-3.02051,1.19043-4.81152,1.19043ZM510.54807,123.47569c1.15625,0,2.19336-.25977,3.11133-.78125s1.6377-1.26367,2.15918-2.22754c.52148-.96289.78223-2.0791.78223-3.34863,0-1.29199-.26074-2.4082-.78223-3.34961-.52148-.93945-1.24121-1.6709-2.15918-2.19238s-1.95508-.78223-3.11133-.78223c-1.15527,0-2.1875.26074-3.09375.78223s-1.63184,1.25293-2.17578,2.19238c-.54395.94141-.81641,2.05762-.81641,3.34961,0,1.26953.27246,2.38574.81641,3.34863.54395.96387,1.26953,1.70605,2.17578,2.22754s1.93848.78125,3.09375.78125Z"/><path class="uuid-ea951d27-f50d-4522-803c-bd9d183f1d13" d="M532.00217,126.33214c-1.54102,0-2.89551-.2832-4.0625-.85059-1.16797-.56543-2.07422-1.43262-2.7207-2.60059-.64551-1.16699-.96875-2.63477-.96875-4.40332v-10.36914h3.26465v9.99512c0,1.76855.4248,3.09473,1.27441,3.97852.85059.88379,2.0459,1.32617,3.58691,1.32617,1.13379,0,2.11914-.23242,2.95801-.69727.83887-.46387,1.48438-1.14453,1.93848-2.04004.45312-.89551.67969-1.97754.67969-3.24707v-9.31543h3.26367v18.01953h-3.09375v-4.8623l.50977,1.29199c-.58887,1.20215-1.47363,2.13086-2.65137,2.78809-1.17871.6582-2.50488.98633-3.97852.98633Z"/><path class="uuid-ea951d27-f50d-4522-803c-bd9d183f1d13" d="M547.43772,126.12803v-18.01953h3.12793v4.89551l-.30566-1.22363c.49805-1.24707,1.33691-2.19824,2.51562-2.85645,1.17871-.65723,2.62988-.98633,4.35254-.98633v3.16211c-.13574-.02246-.2666-.0332-.3916-.0332h-.35645c-1.74609,0-3.12793.52148-4.14844,1.56348-1.01953,1.04297-1.5293,2.5498-1.5293,4.52246v8.97559h-3.26465Z"/><path class="uuid-ea951d27-f50d-4522-803c-bd9d183f1d13" d="M578.37717,126.33214c-1.83594,0-3.47363-.39648-4.91309-1.19043-1.43945-.79297-2.56738-1.88086-3.38281-3.26367-.81641-1.38184-1.22461-2.96875-1.22461-4.75977s.4082-3.37695,1.22461-4.75977c.81543-1.38281,1.94336-2.46582,3.38281-3.24707,1.43945-.78223,3.07715-1.17383,4.91309-1.17383,1.63184,0,3.08789.32324,4.36914.96973,1.28027.64551,2.27148,1.60352,2.97461,2.87305l-2.48242,1.59766c-.58887-.88379-1.30859-1.53516-2.1582-1.95508-.85059-.41895-1.7627-.62891-2.7373-.62891-1.17871,0-2.23242.26074-3.16211.78223s-1.66602,1.25293-2.20996,2.19238c-.54395.94141-.81641,2.05762-.81641,3.34961s.27246,2.41406.81641,3.36621c.54395.95117,1.28027,1.68848,2.20996,2.20996s1.9834.78125,3.16211.78125c.97461,0,1.88672-.20898,2.7373-.62891.84961-.41895,1.56934-1.07031,2.1582-1.95508l2.48242,1.56445c-.70312,1.24707-1.69434,2.2041-2.97461,2.87305-1.28125.66895-2.7373,1.00293-4.36914,1.00293Z"/><path class="uuid-ea951d27-f50d-4522-803c-bd9d183f1d13" d="M595.20725,126.33214c-1.33789,0-2.51074-.22656-3.51953-.67969s-1.78516-1.08301-2.3291-1.8877c-.54395-.80371-.81543-1.7168-.81543-2.73633,0-.97461.23242-1.8584.69727-2.65234.46387-.79297,1.22363-1.42773,2.27734-1.9043,1.05371-.47559,2.47656-.71387,4.26758-.71387h5.71191v2.3457h-5.57617c-1.63184,0-2.73145.27246-3.29785.81641-.56738.54395-.85059,1.20215-.85059,1.97168,0,.88477.35156,1.59277,1.05469,2.125.70215.5332,1.67676.7998,2.92383.7998,1.22363,0,2.29492-.27246,3.21289-.81641s1.58105-1.33691,1.98926-2.37988l.64551,2.24414c-.43066,1.06543-1.18945,1.90918-2.27832,2.53223-1.08789.62402-2.45898.93555-4.11328.93555ZM601.12327,126.12803v-3.80762l-.16992-.71484v-6.49316c0-1.38281-.40332-2.4541-1.20703-3.21289-.80469-.75977-2.01172-1.13965-3.62109-1.13965-1.06543,0-2.1084.17578-3.12793.52734-1.02051.35156-1.88184.82129-2.58398,1.41113l-1.36035-2.44824c.92871-.74805,2.04492-1.32031,3.34863-1.7168s2.66895-.5957,4.09766-.5957c2.46973,0,4.37402.60156,5.71191,1.80273,1.33691,1.20117,2.00586,3.03711,2.00586,5.50781v10.87988h-3.09375Z"/><path class="uuid-ea951d27-f50d-4522-803c-bd9d183f1d13" d="M615.43674,126.33214c-1.49609,0-2.91797-.2041-4.2666-.6123s-2.40918-.90625-3.17871-1.49609l1.35938-2.58398c.77051.52148,1.72266.96387,2.85645,1.32617,1.13281.36328,2.28906.54395,3.46777.54395,1.51855,0,2.6123-.21484,3.28125-.64551.66797-.43066,1.00293-1.03125,1.00293-1.80273,0-.56543-.2041-1.00781-.6123-1.3252s-.94629-.55566-1.61523-.71484c-.66895-.1582-1.41016-.2998-2.22656-.4248-.81641-.12402-1.63184-.2832-2.44824-.47559-.81543-.19238-1.56348-.46484-2.24414-.81641-.67969-.35059-1.22363-.83789-1.63184-1.46191-.4082-.62305-.6123-1.45605-.6123-2.49902,0-1.08789.30664-2.04004.91797-2.85547.6123-.81641,1.47949-1.44531,2.60156-1.8877,1.12207-.44141,2.45312-.66309,3.99512-.66309,1.17773,0,2.37402.14258,3.58691.42578,1.21191.2832,2.2041.68555,2.97461,1.20703l-1.39355,2.58398c-.81641-.54395-1.66602-.91797-2.5498-1.12207-.88477-.2041-1.76855-.30664-2.65234-.30664-1.42773,0-2.49414.2334-3.19629.69727-.70215.46484-1.05371,1.05957-1.05371,1.78516,0,.6123.20898,1.08301.62891,1.41113.41895.3291.96289.58398,1.63184.76465.66895.18164,1.41113.33496,2.22754.45898.81543.125,1.63184.28418,2.44727.47656.81641.19238,1.55859.45898,2.22754.79883.66797.33984,1.21191.81543,1.63184,1.42773.41895.6123.62891,1.42773.62891,2.44824,0,1.08789-.31738,2.02832-.95215,2.82227-.63477.79297-1.5293,1.41016-2.68555,1.85254s-2.53906.66309-4.14844.66309Z"/><path class="uuid-ea951d27-f50d-4522-803c-bd9d183f1d13" d="M636.92502,107.93761c1.47363,0,2.77148.28418,3.89355.85059s2,1.42773,2.63477,2.58398c.63379,1.15625.95215,2.61816.95215,4.38574v10.37012h-3.26465v-9.99609c0-1.74512-.4248-3.05957-1.27441-3.94434-.85059-.88379-2.0459-1.3252-3.58691-1.3252-1.15625,0-2.16504.22656-3.02637.67969-.86133.4541-1.52441,1.12207-1.98926,2.00586s-.69629,1.9834-.69629,3.29785v9.28223h-3.26465v-25.22754h3.26465v12.06934l-.64648-1.29199c.58887-1.17773,1.49609-2.0957,2.71973-2.75391,1.22461-.65723,2.65234-.98633,4.28418-.98633Z"/><path class="uuid-ea951d27-f50d-4522-803c-bd9d183f1d13" d="M203.1262,166.12803v-18.01953h3.12793v4.89551l-.30566-1.22363c.49805-1.24707,1.33691-2.19824,2.51562-2.85645,1.17871-.65723,2.62988-.98633,4.35254-.98633v3.16211c-.13574-.02246-.2666-.0332-.3916-.0332h-.35645c-1.74609,0-3.12793.52148-4.14844,1.56348-1.01953,1.04297-1.5293,2.5498-1.5293,4.52246v8.97559h-3.26465Z"/><path class="uuid-ea951d27-f50d-4522-803c-bd9d183f1d13" d="M224.64768,166.33214c-1.54102,0-2.89551-.2832-4.0625-.85059-1.16797-.56543-2.07422-1.43262-2.7207-2.60059-.64551-1.16699-.96875-2.63477-.96875-4.40332v-10.36914h3.26465v9.99512c0,1.76855.4248,3.09473,1.27441,3.97852.85059.88379,2.0459,1.32617,3.58691,1.32617,1.13379,0,2.11914-.23242,2.95801-.69727.83887-.46387,1.48438-1.14453,1.93848-2.04004.45312-.89551.67969-1.97754.67969-3.24707v-9.31543h3.26367v18.01953h-3.09375v-4.8623l.50977,1.29199c-.58887,1.20215-1.47363,2.13086-2.65137,2.78809-1.17871.6582-2.50488.98633-3.97852.98633Z"/><path class="uuid-ea951d27-f50d-4522-803c-bd9d183f1d13" d="M249.7053,147.93761c1.47363,0,2.77148.28418,3.89355.85059s2,1.42773,2.63477,2.58398c.63379,1.15625.95215,2.61816.95215,4.38574v10.37012h-3.26465v-9.99609c0-1.74512-.4248-3.05957-1.27441-3.94434-.85059-.88379-2.0459-1.3252-3.58691-1.3252-1.15625,0-2.16504.22656-3.02637.67969-.86133.4541-1.52441,1.12207-1.98926,2.00586s-.69629,1.9834-.69629,3.29785v9.28223h-3.26465v-18.01953h3.12793v4.86133l-.50977-1.29199c.58887-1.17773,1.49609-2.0957,2.71973-2.75391,1.22461-.65723,2.65234-.98633,4.28418-.98633Z"/><path class="uuid-ea951d27-f50d-4522-803c-bd9d183f1d13" d="M267.04612,166.12803l-6.69824-18.01953h3.09375l5.9502,16.31934h-1.46191l6.1875-16.31934h2.75391l6.05273,16.31934h-1.42871l6.08691-16.31934h2.92383l-6.73242,18.01953h-3.12793l-5.67773-14.8916h.95215l-5.74609,14.8916h-3.12793Z"/><path class="uuid-ea951d27-f50d-4522-803c-bd9d183f1d13" d="M299.07346,166.33214c-1.33789,0-2.51074-.22656-3.51953-.67969s-1.78516-1.08301-2.3291-1.8877c-.54395-.80371-.81543-1.7168-.81543-2.73633,0-.97461.23242-1.8584.69727-2.65234.46387-.79297,1.22363-1.42773,2.27734-1.9043,1.05371-.47559,2.47656-.71387,4.26758-.71387h5.71191v2.3457h-5.57617c-1.63184,0-2.73145.27246-3.29785.81641-.56738.54395-.85059,1.20215-.85059,1.97168,0,.88477.35156,1.59277,1.05469,2.125.70215.5332,1.67676.7998,2.92383.7998,1.22363,0,2.29492-.27246,3.21289-.81641s1.58105-1.33691,1.98926-2.37988l.64551,2.24414c-.43066,1.06543-1.18945,1.90918-2.27832,2.53223-1.08789.62402-2.45898.93555-4.11328.93555ZM304.98948,166.12803v-3.80762l-.16992-.71484v-6.49316c0-1.38281-.40332-2.4541-1.20703-3.21289-.80469-.75977-2.01172-1.13965-3.62109-1.13965-1.06543,0-2.1084.17578-3.12793.52734-1.02051.35156-1.88184.82129-2.58398,1.41113l-1.36035-2.44824c.92871-.74805,2.04492-1.32031,3.34863-1.7168s2.66895-.5957,4.09766-.5957c2.46973,0,4.37402.60156,5.71191,1.80273,1.33691,1.20117,2.00586,3.03711,2.00586,5.50781v10.87988h-3.09375Z"/><path class="uuid-ea951d27-f50d-4522-803c-bd9d183f1d13" d="M314.91721,172.92784c-.86133,0-1.7002-.1416-2.51562-.4248-.81641-.2832-1.51855-.69727-2.1084-1.24121l1.39453-2.44824c.45312.43066.95117.75977,1.49512.98633s1.12207.33984,1.73438.33984c.79297,0,1.4502-.2041,1.97168-.61133.52148-.4082,1.00879-1.13379,1.46191-2.17676l1.12207-2.48145.34082-.4082,7.07129-16.35352h3.19629l-8.73828,19.82129c-.52148,1.26953-1.10449,2.2666-1.75098,2.99219-.64551.72559-1.35449,1.24121-2.125,1.54688-.77051.30664-1.62109.45898-2.5498.45898ZM319.20139,166.70616l-8.22852-18.59766h3.40039l7.00391,16.04785-2.17578,2.5498Z"/><path class="uuid-ea951d27-f50d-4522-803c-bd9d183f1d13" d="M343.91819,144.63975c-.63477,0-1.16113-.2041-1.58105-.61133-.41895-.4082-.62891-.90625-.62891-1.49609,0-.6123.20996-1.12207.62891-1.53027.41992-.4082.94629-.6123,1.58105-.6123s1.16211.19922,1.58105.5957c.41992.39648.62891.88965.62891,1.47852,0,.6123-.20312,1.12793-.61133,1.54688-.4082.41992-.94141.62891-1.59863.62891ZM342.28635,166.12803v-18.01953h3.26465v18.01953h-3.26465Z"/><path class="uuid-ea951d27-f50d-4522-803c-bd9d183f1d13" d="M356.93967,166.33214c-1.49609,0-2.91797-.2041-4.2666-.6123s-2.40918-.90625-3.17871-1.49609l1.35938-2.58398c.77051.52148,1.72266.96387,2.85645,1.32617,1.13281.36328,2.28906.54395,3.46777.54395,1.51855,0,2.6123-.21484,3.28125-.64551.66797-.43066,1.00293-1.03125,1.00293-1.80273,0-.56543-.2041-1.00781-.6123-1.3252s-.94629-.55566-1.61523-.71484c-.66895-.1582-1.41016-.2998-2.22656-.4248-.81641-.12402-1.63184-.2832-2.44824-.47559-.81543-.19238-1.56348-.46484-2.24414-.81641-.67969-.35059-1.22363-.83789-1.63184-1.46191-.4082-.62305-.6123-1.45605-.6123-2.49902,0-1.08789.30664-2.04004.91797-2.85547.6123-.81641,1.47949-1.44531,2.60156-1.8877,1.12207-.44141,2.45312-.66309,3.99512-.66309,1.17773,0,2.37402.14258,3.58691.42578,1.21191.2832,2.2041.68555,2.97461,1.20703l-1.39355,2.58398c-.81641-.54395-1.66602-.91797-2.5498-1.12207-.88477-.2041-1.76855-.30664-2.65234-.30664-1.42773,0-2.49414.2334-3.19629.69727-.70215.46484-1.05371,1.05957-1.05371,1.78516,0,.6123.20898,1.08301.62891,1.41113.41895.3291.96289.58398,1.63184.76465.66895.18164,1.41113.33496,2.22754.45898.81543.125,1.63184.28418,2.44727.47656.81641.19238,1.55859.45898,2.22754.79883.66797.33984,1.21191.81543,1.63184,1.42773.41895.6123.62891,1.42773.62891,2.44824,0,1.08789-.31738,2.02832-.95215,2.82227-.63477.79297-1.5293,1.41016-2.68555,1.85254s-2.53906.66309-4.14844.66309Z"/><path class="uuid-ea951d27-f50d-4522-803c-bd9d183f1d13" d="M385.53342,166.33214c-1.54102,0-2.89551-.2832-4.0625-.85059-1.16797-.56543-2.07422-1.43262-2.7207-2.60059-.64551-1.16699-.96875-2.63477-.96875-4.40332v-10.36914h3.26465v9.99512c0,1.76855.4248,3.09473,1.27441,3.97852.85059.88379,2.0459,1.32617,3.58691,1.32617,1.13379,0,2.11914-.23242,2.95801-.69727.83887-.46387,1.48438-1.14453,1.93848-2.04004.45312-.89551.67969-1.97754.67969-3.24707v-9.31543h3.26367v18.01953h-3.09375v-4.8623l.50977,1.29199c-.58887,1.20215-1.47363,2.13086-2.65137,2.78809-1.17871.6582-2.50488.98633-3.97852.98633Z"/><path class="uuid-ea951d27-f50d-4522-803c-bd9d183f1d13" d="M410.59104,147.93761c1.47363,0,2.77148.28418,3.89355.85059s2,1.42773,2.63477,2.58398c.63379,1.15625.95215,2.61816.95215,4.38574v10.37012h-3.26465v-9.99609c0-1.74512-.4248-3.05957-1.27441-3.94434-.85059-.88379-2.0459-1.3252-3.58691-1.3252-1.15625,0-2.16504.22656-3.02637.67969-.86133.4541-1.52441,1.12207-1.98926,2.00586s-.69629,1.9834-.69629,3.29785v9.28223h-3.26465v-18.01953h3.12793v4.86133l-.50977-1.29199c.58887-1.17773,1.49609-2.0957,2.71973-2.75391,1.22461-.65723,2.65234-.98633,4.28418-.98633Z"/><path class="uuid-ea951d27-f50d-4522-803c-bd9d183f1d13" d="M431.56956,166.33214c-1.74609,0-3.30371-.38574-4.6748-1.15625-1.37207-.77051-2.4541-1.84668-3.24707-3.22949-.79395-1.38281-1.19043-2.99219-1.19043-4.82812s.39648-3.43945,1.19043-4.81152c.79297-1.37109,1.875-2.44141,3.24707-3.21289,1.37109-.77051,2.92871-1.15625,4.6748-1.15625,1.51855,0,2.88965.34082,4.11426,1.02051,1.22363.67969,2.2041,1.7002,2.94043,3.05957.73633,1.36035,1.10547,3.06055,1.10547,5.10059s-.35742,3.74023-1.07129,5.09961c-.71387,1.36035-1.68262,2.38574-2.90723,3.07715-1.22363.69141-2.61816,1.03711-4.18164,1.03711ZM431.84104,163.47569c1.13379,0,2.15918-.25977,3.07715-.78125s1.64355-1.26367,2.17676-2.22754c.53223-.96289.79883-2.0791.79883-3.34863,0-1.29199-.2666-2.4082-.79883-3.34961-.5332-.93945-1.25879-1.6709-2.17676-2.19238s-1.94336-.78223-3.07715-.78223c-1.15527,0-2.1875.26074-3.09375.78223s-1.63184,1.25293-2.17578,2.19238c-.54395.94141-.81641,2.05762-.81641,3.34961,0,1.26953.27246,2.38574.81641,3.34863.54395.96387,1.26953,1.70605,2.17578,2.22754s1.93848.78125,3.09375.78125ZM437.99534,166.12803v-4.8623l.2041-4.18164-.33984-4.18164v-12.00195h3.26367v25.22754h-3.12793Z"/><path class="uuid-ea951d27-f50d-4522-803c-bd9d183f1d13" d="M455.33518,166.33214c-1.92676,0-3.62109-.39648-5.08301-1.19043-1.46191-.79297-2.5957-1.88086-3.40039-3.26367-.80469-1.38184-1.20703-2.96875-1.20703-4.75977s.3916-3.37695,1.17285-4.75977c.78223-1.38281,1.8584-2.46582,3.23047-3.24707,1.37109-.78223,2.91797-1.17383,4.64062-1.17383,1.74512,0,3.28711.38574,4.62402,1.15625,1.33789.77148,2.38574,1.85352,3.14551,3.24707.75879,1.39453,1.13867,3.02051,1.13867,4.87891,0,.13574-.00586.29492-.0166.47656-.01172.18164-.0293.35156-.05176.50977h-15.33398v-2.3457h13.63477l-1.32617.81543c.02246-1.15625-.21582-2.18652-.71387-3.09375-.49902-.90625-1.18457-1.61523-2.05762-2.125-.87207-.50977-1.88672-.76465-3.04297-.76465-1.13379,0-2.1416.25488-3.02539.76465-.88477.50977-1.57617,1.22363-2.07422,2.1416-.49902.91797-.74805,1.9668-.74805,3.14551v.54395c0,1.20117.27734,2.27246.83301,3.21289.55469.94043,1.33105,1.67188,2.3291,2.19336.99707.52148,2.1416.78125,3.43359.78125,1.06543,0,2.03418-.18066,2.90723-.54395.87207-.3623,1.6377-.90625,2.29492-1.63184l1.80176,2.1084c-.81543.95215-1.83008,1.67773-3.04297,2.17578-1.21289.49902-2.56641.74805-4.0625.74805Z"/><path class="uuid-ea951d27-f50d-4522-803c-bd9d183f1d13" d="M468.11838,166.12803v-18.01953h3.12793v4.89551l-.30566-1.22363c.49805-1.24707,1.33691-2.19824,2.51562-2.85645,1.17871-.65723,2.62988-.98633,4.35254-.98633v3.16211c-.13574-.02246-.2666-.0332-.3916-.0332h-.35645c-1.74609,0-3.12793.52148-4.14844,1.56348-1.01953,1.04297-1.5293,2.5498-1.5293,4.52246v8.97559h-3.26465Z"/><path class="uuid-ea951d27-f50d-4522-803c-bd9d183f1d13" d="M493.75315,166.12803v-22.44043l1.46289,1.59863h-6.83398v-2.95801h8.7373v23.7998h-3.36621Z"/><path class="uuid-ea951d27-f50d-4522-803c-bd9d183f1d13" d="M510.00608,166.4005c-1.67773,0-3.30469-.26172-4.87988-.78223-1.5752-.52148-2.86133-1.22461-3.8584-2.1084l1.56348-2.68555c.79395.74805,1.8252,1.35938,3.09473,1.83594,1.26855.47559,2.61719.71387,4.0459.71387,1.8125,0,3.20703-.38477,4.18164-1.15625.97461-.77051,1.46191-1.80176,1.46191-3.09375,0-.88379-.21582-1.6543-.64551-2.3125-.43066-.65723-1.17285-1.16113-2.22754-1.5127-1.05371-.35059-2.49902-.52734-4.33496-.52734h-5.40625l1.25879-12.44336h13.42969v2.95801h-12.17188l1.76758-1.66602-.98535,9.82617-1.76855-1.63281h4.58984c2.37988,0,4.2959.30664,5.74609.91797,1.4502.6123,2.50488,1.45703,3.16211,2.5332.65723,1.07715.98633,2.31836.98633,3.72363,0,1.35938-.3291,2.60059-.98633,3.72266s-1.64844,2.01758-2.97461,2.68555c-1.32617.66895-3.00879,1.00391-5.04883,1.00391Z"/><path class="uuid-ea951d27-f50d-4522-803c-bd9d183f1d13" d="M554.98655,147.93761c1.4502,0,2.73145.28418,3.8418.85059s1.97754,1.42773,2.60156,2.58398c.62305,1.15625.93457,2.61816.93457,4.38574v10.37012h-3.26367v-9.99609c0-1.74512-.4082-3.05957-1.22363-3.94434-.81641-.88379-1.96094-1.3252-3.43457-1.3252-1.08789,0-2.04004.22656-2.85547.67969-.81641.4541-1.44531,1.12207-1.8877,2.00586-.44141.88379-.66309,1.9834-.66309,3.29785v9.28223h-3.26367v-9.99609c0-1.74512-.40234-3.05957-1.20703-3.94434-.80469-.88379-1.95508-1.3252-3.45117-1.3252-1.06543,0-2.00586.22656-2.82129.67969-.81641.4541-1.45117,1.12207-1.9043,2.00586-.4541.88379-.67969,1.9834-.67969,3.29785v9.28223h-3.26465v-18.01953h3.12793v4.79395l-.50977-1.22461c.56641-1.17773,1.43945-2.0957,2.61816-2.75391,1.17871-.65723,2.5498-.98633,4.11426-.98633,1.72168,0,3.20703.42578,4.4541,1.27539,1.24609.84961,2.06152,2.13672,2.44727,3.85938l-1.32617-.54395c.54492-1.38281,1.49609-2.49316,2.85645-3.33203s2.94629-1.25879,4.75977-1.25879Z"/><path class="uuid-ea951d27-f50d-4522-803c-bd9d183f1d13" d="M576.09983,166.33214c-1.79004,0-3.39453-.39648-4.81055-1.19043-1.41699-.79297-2.5332-1.88672-3.34863-3.28027-.81641-1.39453-1.22461-2.97559-1.22461-4.74316,0-1.79102.4082-3.37109,1.22461-4.74316.81543-1.37109,1.92578-2.45312,3.33203-3.24707,1.4043-.79297,3.01367-1.19043,4.82715-1.19043,1.79102,0,3.39453.3916,4.81152,1.17383,1.41602.78125,2.52734,1.86426,3.33203,3.24707s1.20703,2.96875,1.20703,4.75977-.40234,3.37793-1.20703,4.75977c-.80469,1.38281-1.91602,2.4707-3.33203,3.26367-1.41699.79395-3.02051,1.19043-4.81152,1.19043ZM576.09983,163.47569c1.15625,0,2.19336-.25977,3.11133-.78125s1.6377-1.26367,2.15918-2.22754c.52148-.96289.78223-2.0791.78223-3.34863,0-1.29199-.26074-2.4082-.78223-3.34961-.52148-.93945-1.24121-1.6709-2.15918-2.19238s-1.95508-.78223-3.11133-.78223c-1.15527,0-2.1875.26074-3.09375.78223s-1.63184,1.25293-2.17578,2.19238c-.54395.94141-.81641,2.05762-.81641,3.34961,0,1.26953.27246,2.38574.81641,3.34863.54395.96387,1.26953,1.70605,2.17578,2.22754s1.93848.78125,3.09375.78125Z"/><path class="uuid-ea951d27-f50d-4522-803c-bd9d183f1d13" d="M599.59397,147.93761c1.47363,0,2.77148.28418,3.89355.85059s2,1.42773,2.63477,2.58398c.63379,1.15625.95215,2.61816.95215,4.38574v10.37012h-3.26465v-9.99609c0-1.74512-.4248-3.05957-1.27441-3.94434-.85059-.88379-2.0459-1.3252-3.58691-1.3252-1.15625,0-2.16504.22656-3.02637.67969-.86133.4541-1.52441,1.12207-1.98926,2.00586s-.69629,1.9834-.69629,3.29785v9.28223h-3.26465v-18.01953h3.12793v4.86133l-.50977-1.29199c.58887-1.17773,1.49609-2.0957,2.71973-2.75391,1.22461-.65723,2.65234-.98633,4.28418-.98633Z"/><path class="uuid-ea951d27-f50d-4522-803c-bd9d183f1d13" d="M610.54221,150.79405v-2.68555h11.49219v2.68555h-11.49219ZM619.31467,166.33214c-1.81348,0-3.21875-.4873-4.21582-1.46191-.99805-.97461-1.49609-2.36816-1.49609-4.18262v-16.52344h3.26367v16.3877c0,.97461.24316,1.72266.73145,2.24414.48633.52148,1.18359.78223,2.09082.78223,1.01953,0,1.87012-.2832,2.5498-.85059l1.01953,2.34668c-.49805.43066-1.09375.74805-1.78418.95215-.69238.20312-1.41113.30566-2.15918.30566Z"/><path class="uuid-ea951d27-f50d-4522-803c-bd9d183f1d13" d="M636.82346,147.93761c1.47363,0,2.77148.28418,3.89355.85059s2,1.42773,2.63477,2.58398c.63379,1.15625.95215,2.61816.95215,4.38574v10.37012h-3.26465v-9.99609c0-1.74512-.4248-3.05957-1.27441-3.94434-.85059-.88379-2.0459-1.3252-3.58691-1.3252-1.15625,0-2.16504.22656-3.02637.67969-.86133.4541-1.52441,1.12207-1.98926,2.00586s-.69629,1.9834-.69629,3.29785v9.28223h-3.26465v-25.22754h3.26465v12.06934l-.64648-1.29199c.58887-1.17773,1.49609-2.0957,2.71973-2.75391,1.22461-.65723,2.65234-.98633,4.28418-.98633Z"/><path class="uuid-ea951d27-f50d-4522-803c-bd9d183f1d13" d="M655.52366,166.33214c-1.49609,0-2.91797-.2041-4.2666-.6123s-2.40918-.90625-3.17871-1.49609l1.35938-2.58398c.77051.52148,1.72266.96387,2.85645,1.32617,1.13281.36328,2.28906.54395,3.46777.54395,1.51855,0,2.6123-.21484,3.28125-.64551.66797-.43066,1.00293-1.03125,1.00293-1.80273,0-.56543-.2041-1.00781-.6123-1.3252s-.94629-.55566-1.61523-.71484c-.66895-.1582-1.41016-.2998-2.22656-.4248-.81641-.12402-1.63184-.2832-2.44824-.47559-.81543-.19238-1.56348-.46484-2.24414-.81641-.67969-.35059-1.22363-.83789-1.63184-1.46191-.4082-.62305-.6123-1.45605-.6123-2.49902,0-1.08789.30664-2.04004.91797-2.85547.6123-.81641,1.47949-1.44531,2.60156-1.8877,1.12207-.44141,2.45312-.66309,3.99512-.66309,1.17773,0,2.37402.14258,3.58691.42578,1.21191.2832,2.2041.68555,2.97461,1.20703l-1.39355,2.58398c-.81641-.54395-1.66602-.91797-2.5498-1.12207-.88477-.2041-1.76855-.30664-2.65234-.30664-1.42773,0-2.49414.2334-3.19629.69727-.70215.46484-1.05371,1.05957-1.05371,1.78516,0,.6123.20898,1.08301.62891,1.41113.41895.3291.96289.58398,1.63184.76465.66895.18164,1.41113.33496,2.22754.45898.81543.125,1.63184.28418,2.44727.47656.81641.19238,1.55859.45898,2.22754.79883.66797.33984,1.21191.81543,1.63184,1.42773.41895.6123.62891,1.42773.62891,2.44824,0,1.08789-.31738,2.02832-.95215,2.82227-.63477.79297-1.5293,1.41016-2.68555,1.85254s-2.53906.66309-4.14844.66309Z"/><path class="uuid-ea951d27-f50d-4522-803c-bd9d183f1d13" d="M668.88596,166.33214c-.63477,0-1.16797-.21484-1.59766-.64648-.43066-.42969-.64648-.93945-.64648-1.5293,0-.63477.21582-1.15625.64648-1.56445.42969-.4082.96289-.6123,1.59766-.6123s1.15625.2041,1.56445.6123c.40723.4082.61133.92969.61133,1.56445,0,.58984-.2041,1.09961-.61133,1.5293-.4082.43164-.92969.64648-1.56445.64648ZM667.55979,158.61436l-.61133-16.28613h3.8418l-.64648,16.28613h-2.58398Z"/><path class="uuid-8490a2f9-107a-491c-befe-f863c9574855" d="M706.6375,48.88889h10.05833c.90376,0,1.6375.73374,1.6375,1.6375v15.02917h-13.33333v-15.02917c0-.90376.73374-1.6375,1.6375-1.6375Z"/><path class="uuid-23e4ae9d-c5d9-40c9-ad3a-90ff0b44d355" d="M705,65.55556h13.33333v9.47361c0,.90376-.73374,1.6375-1.6375,1.6375h-10.05833c-.90376,0-1.6375-.73374-1.6375-1.6375v-9.47361h0Z"/><path class="uuid-8490a2f9-107a-491c-befe-f863c9574855" d="M722.19306,35h10.05833c.90376,0,1.6375.73374,1.6375,1.6375v28.91806h-13.33333v-28.91806c0-.90376.73374-1.6375,1.6375-1.6375Z"/><path class="uuid-23e4ae9d-c5d9-40c9-ad3a-90ff0b44d355" d="M720.55556,65.55556h13.33333v3.91806c0,.90376-.73374,1.6375-1.6375,1.6375h-10.05833c-.90376,0-1.6375-.73374-1.6375-1.6375v-3.91806h0Z"/><path class="uuid-8490a2f9-107a-491c-befe-f863c9574855" d="M737.74861,54.44444h10.05833c.90376,0,1.6375.73374,1.6375,1.6375v9.47361h-13.33333v-9.47361c0-.90376.73374-1.6375,1.6375-1.6375Z"/><path class="uuid-23e4ae9d-c5d9-40c9-ad3a-90ff0b44d355" d="M736.11111,65.55556h13.33333v17.80694c0,.90376-.73374,1.6375-1.6375,1.6375h-10.05833c-.90376,0-1.6375-.73374-1.6375-1.6375v-17.80694h0Z"/><path class="uuid-8490a2f9-107a-491c-befe-f863c9574855" d="M753.30417,46.11111h10.05833c.90376,0,1.6375.73374,1.6375,1.6375v17.80694h-13.33333v-17.80694c0-.90376.73374-1.6375,1.6375-1.6375Z"/><path class="uuid-23e4ae9d-c5d9-40c9-ad3a-90ff0b44d355" d="M751.66667,65.55556h13.33333v6.69583c0,.90376-.73374,1.6375-1.6375,1.6375h-10.05833c-.90376,0-1.6375-.73374-1.6375-1.6375v-6.69583h0Z"/></svg>