<?xml version="1.0" encoding="UTF-8"?><svg id="uuid-72cfd03d-1d24-4e60-b616-fa83e3bb0153" xmlns="http://www.w3.org/2000/svg" viewBox="0 0 800 220"><defs><style>.uuid-95a7598b-f247-43b8-a53d-c8eafe181851{fill:none;}.uuid-20da53a1-dbc4-4984-a332-49c5899321c6{fill:#f15270;}.uuid-7419ca57-6a94-4f6c-b2ea-abfd8852afd1{fill:#3c416d;}.uuid-aceaa95b-19dc-4a6c-961e-5672aa1b63d6{fill:#8178b0;}.uuid-4b801d82-4eae-4745-8e36-022c48d680c0{fill:#b6bcdc;}.uuid-ee6ed666-fa77-4853-96c6-8cf85843f679{fill:#2697d4;}.uuid-fb81bfab-ef65-4593-9340-b1ce95caac57{fill:#ebeefa;}.uuid-8ffe682c-1126-4f75-abe7-2507d24a3d1a,.uuid-c885991a-c35f-47fa-9c62-26f32529cc06{fill:#fff;}.uuid-c885991a-c35f-47fa-9c62-26f32529cc06{opacity:0;}</style></defs><rect class="uuid-c885991a-c35f-47fa-9c62-26f32529cc06" x="0" y="0" width="800" height="220"/><path class="uuid-20da53a1-dbc4-4984-a332-49c5899321c6" d="M208.62598,74.91905v-18.69922h-7.37402v-4.3457h20.08203v4.3457h-7.37402v18.69922h-5.33398Z"/><path class="uuid-20da53a1-dbc4-4984-a332-49c5899321c6" d="M221.16992,74.91905l10.23828-23.04492h5.26758l10.33691,23.04492h-5.59668l-8.46094-20.3457h2.14062l-8.46094,20.3457h-5.46484ZM226.33789,69.98057l1.35059-4.04883h11.91699l1.38281,4.04883h-14.65039Z"/><path class="uuid-20da53a1-dbc4-4984-a332-49c5899321c6" d="M246.81543,74.91905l9.87598-13.66211v3.88477l-9.44824-13.26758h6.02441l6.55176,9.21777-2.56738.06543,6.51855-9.2832h5.76074l-9.41602,13.03711v-3.81934l9.97559,13.82715h-6.15625l-6.78223-9.77734h2.43652l-6.68262,9.77734h-6.09082Z"/><path class="uuid-20da53a1-dbc4-4984-a332-49c5899321c6" d="M282.23828,74.91905v-23.04492h4.41113l13.59766,16.5918h-2.14062v-16.5918h5.26758v23.04492h-4.41113l-13.59668-16.59277h2.13965v16.59277h-5.26758Z"/><path class="uuid-20da53a1-dbc4-4984-a332-49c5899321c6" d="M320.03223,75.31456c-1.82227,0-3.50098-.29688-5.03711-.88965-1.53613-.5918-2.875-1.42578-4.0166-2.50195-1.14062-1.0752-2.02441-2.33691-2.64941-3.78613-.62598-1.44824-.93848-3.02832-.93848-4.74023,0-1.7334.3125-3.31934.93848-4.75781.625-1.43652,1.50879-2.69336,2.64941-3.76953,1.1416-1.07422,2.47461-1.90918,4-2.50195s3.19922-.88867,5.02051-.88867c1.82227,0,3.49512.29102,5.02148.87207,1.52441.58203,2.8584,1.41113,4,2.48633,1.14062,1.0752,2.02441,2.33691,2.64941,3.78613.62598,1.44824.93848,3.04004.93848,4.77344,0,1.71191-.3125,3.29785-.93848,4.75684-.625,1.45996-1.50879,2.72754-2.64941,3.80273-1.1416,1.0752-2.47559,1.9043-4,2.48535-1.52637.58105-3.18848.87305-4.98828.87305ZM319.99902,70.80382c1.03223,0,1.98047-.18066,2.84863-.54297.86621-.3623,1.62891-.87793,2.28809-1.54785.6582-.66895,1.16797-1.44824,1.53027-2.33691s.54297-1.88184.54297-2.97949-.18066-2.09082-.54297-2.97949-.87207-1.66797-1.53027-2.33789c-.65918-.66895-1.42188-1.18457-2.28809-1.54688-.86816-.3623-1.81641-.54297-2.84863-.54297-1.03125,0-1.98633.18066-2.86328.54297-.87891.3623-1.6416.87793-2.28809,1.54688-.64844.66992-1.15234,1.44922-1.51465,2.33789s-.54297,1.88184-.54297,2.97949.18066,2.09082.54297,2.97949.86621,1.66797,1.51465,2.33691c.64648.66992,1.40918,1.18555,2.28809,1.54785.87695.3623,1.83203.54297,2.86328.54297Z"/><path class="uuid-20da53a1-dbc4-4984-a332-49c5899321c6" d="M341.39844,74.91905v-18.69922h-7.37402v-4.3457h20.08203v4.3457h-7.37402v18.69922h-5.33398Z"/><path class="uuid-20da53a1-dbc4-4984-a332-49c5899321c6" d="M356.9707,74.91905v-23.04492h5.36621v23.04492h-5.36621Z"/><path class="uuid-20da53a1-dbc4-4984-a332-49c5899321c6" d="M373.13477,74.91905h-5.36621v-23.04492h17.41602v4.2793h-12.0498v18.76562ZM372.70703,62.24425h11.06152v4.2793h-11.06152v-4.2793Z"/><path class="uuid-20da53a1-dbc4-4984-a332-49c5899321c6" d="M388.80566,74.91905v-23.04492h5.36621v23.04492h-5.36621Z"/><path class="uuid-20da53a1-dbc4-4984-a332-49c5899321c6" d="M410.63281,75.31456c-1.77832,0-3.42969-.29199-4.95508-.87305s-2.84766-1.41016-3.9668-2.48535c-1.12012-1.0752-1.99219-2.33789-2.61719-3.78613-.62598-1.44824-.93848-3.04004-.93848-4.77344s.3125-3.3252.93848-4.77344c.625-1.44922,1.50293-2.71094,2.63379-3.78613,1.12988-1.0752,2.45703-1.9043,3.9834-2.48633,1.52441-.58105,3.17676-.87207,4.9541-.87207,1.99707,0,3.80762.3457,5.43262,1.03711,1.62402.69141,2.98438,1.70703,4.08203,3.04492l-3.45703,3.16113c-.76855-.90039-1.64062-1.58008-2.61719-2.04102s-2.03613-.69141-3.17676-.69141c-1.0752,0-2.06348.18066-2.96289.54297-.90039.3623-1.67871.87207-2.33789,1.53027-.6582.65918-1.16797,1.43848-1.53027,2.33789-.3623.90039-.54297,1.89844-.54297,2.99609s.18066,2.0957.54297,2.99609c.3623.89941.87207,1.67871,1.53027,2.33691.65918.6582,1.4375,1.16895,2.33789,1.53125.89941.3623,1.8877.54297,2.96289.54297,1.14062,0,2.2002-.23535,3.17676-.70801.97656-.47168,1.84863-1.15723,2.61719-2.05762l3.45703,3.16113c-1.09766,1.33887-2.45801,2.35938-4.08203,3.06152-1.625.70215-3.44629,1.05371-5.46484,1.05371Z"/><path class="uuid-20da53a1-dbc4-4984-a332-49c5899321c6" d="M420.70605,74.91905l10.23828-23.04492h5.26758l10.33691,23.04492h-5.59668l-8.46094-20.3457h2.14062l-8.46094,20.3457h-5.46484ZM425.87402,69.98057l1.35059-4.04883h11.91699l1.38281,4.04883h-14.65039Z"/><path class="uuid-20da53a1-dbc4-4984-a332-49c5899321c6" d="M453.72559,74.91905v-18.69922h-7.37402v-4.3457h20.08203v4.3457h-7.37402v18.69922h-5.33398Z"/><path class="uuid-20da53a1-dbc4-4984-a332-49c5899321c6" d="M469.29785,74.91905v-23.04492h5.36621v23.04492h-5.36621Z"/><path class="uuid-20da53a1-dbc4-4984-a332-49c5899321c6" d="M491.28906,75.31456c-1.82227,0-3.50098-.29688-5.03711-.88965-1.53613-.5918-2.875-1.42578-4.0166-2.50195-1.14062-1.0752-2.02441-2.33691-2.64941-3.78613-.62598-1.44824-.93848-3.02832-.93848-4.74023,0-1.7334.3125-3.31934.93848-4.75781.625-1.43652,1.50879-2.69336,2.64941-3.76953,1.1416-1.07422,2.47461-1.90918,4-2.50195s3.19922-.88867,5.02051-.88867c1.82227,0,3.49512.29102,5.02148.87207,1.52441.58203,2.8584,1.41113,4,2.48633,1.14062,1.0752,2.02441,2.33691,2.64941,3.78613.62598,1.44824.93848,3.04004.93848,4.77344,0,1.71191-.3125,3.29785-.93848,4.75684-.625,1.45996-1.50879,2.72754-2.64941,3.80273-1.1416,1.0752-2.47559,1.9043-4,2.48535-1.52637.58105-3.18848.87305-4.98828.87305ZM491.25586,70.80382c1.03223,0,1.98047-.18066,2.84863-.54297.86621-.3623,1.62891-.87793,2.28809-1.54785.6582-.66895,1.16797-1.44824,1.53027-2.33691s.54297-1.88184.54297-2.97949-.18066-2.09082-.54297-2.97949-.87207-1.66797-1.53027-2.33789c-.65918-.66895-1.42188-1.18457-2.28809-1.54688-.86816-.3623-1.81641-.54297-2.84863-.54297-1.03125,0-1.98633.18066-2.86328.54297-.87891.3623-1.6416.87793-2.28809,1.54688-.64844.66992-1.15234,1.44922-1.51465,2.33789s-.54297,1.88184-.54297,2.97949.18066,2.09082.54297,2.97949.86621,1.66797,1.51465,2.33691c.64648.66992,1.40918,1.18555,2.28809,1.54785.87695.3623,1.83203.54297,2.86328.54297Z"/><path class="uuid-20da53a1-dbc4-4984-a332-49c5899321c6" d="M507.88184,74.91905v-23.04492h4.41113l13.59766,16.5918h-2.14062v-16.5918h5.26758v23.04492h-4.41113l-13.59668-16.59277h2.13965v16.59277h-5.26758Z"/><path class="uuid-ee6ed666-fa77-4853-96c6-8cf85843f679" d="M149.10649,117.8575s-1.58904,22.89223-24.61034,21.95419c0,0-8.79934,15.18831-26.47747,15.18831s-26.71583-15.70722-26.71583-15.70722c0,0-18.63156,3.11351-25.36514-15.50764,0,0-5.42262-15.46773,9.81236-21.95419,0,0,2.46302-23.55086,26.75556-21.19577,8.37213-14.82379,27.11877-20.02133,41.87179-11.60904,4.64075,2.64619,8.51533,6.46154,11.24207,11.07016,0,0,13.58634-1.33721,20.63773,9.97918h-.03973c7.03153,11.31639,4.80687,22.45315-7.11098,27.78203Z"/><path class="uuid-8ffe682c-1126-4f75-abe7-2507d24a3d1a" d="M119.62941,104.40696h-11.14297c-.2805,0-.54651-.13121-.71094-.3596-.16927-.22354-.22248-.51511-.1451-.78724l5.76983-20.92487v.00486c.05804-.37418-.11607-.74352-.44495-.92332-.32404-.18467-.73029-.14579-1.01563.10205l-25.70559,30.97428c-.21764.26727-.26599.6366-.12091.95247.1451.31101.45945.51511.80284.51511h11.14297c.2805,0,.54651.13121.71094.3596.16927.22354.22248.51511.1451.78724l-5.81811,20.91989c-.12574.41306.05804.85528.43527,1.05452.37724.19924.84153.10205,1.11237-.23326l25.66596-30.97428c.21764-.26727.26599-.6366.12091-.95247-.1451-.31101-.45945-.51511-.80284-.51511l.00085.00012Z"/><rect class="uuid-95a7598b-f247-43b8-a53d-c8eafe181851" x="200.03267" y="97.22864" width="467.45282" height="70.00063"/><path class="uuid-aceaa95b-19dc-4a6c-961e-5672aa1b63d6" d="M209.34863,126.12803v-9.1123l.78125,2.1084-10.2334-16.7959h3.6377l8.60156,14.17773h-1.97168l8.63574-14.17773h3.36621l-10.2002,16.7959.74805-2.1084v9.1123h-3.36523Z"/><path class="uuid-aceaa95b-19dc-4a6c-961e-5672aa1b63d6" d="M232.8418,126.33214c-1.79004,0-3.39453-.39648-4.81055-1.19043-1.41699-.79297-2.5332-1.88672-3.34863-3.28027-.81641-1.39453-1.22461-2.97559-1.22461-4.74316,0-1.79102.4082-3.37109,1.22461-4.74316.81543-1.37109,1.92578-2.45312,3.33203-3.24707,1.4043-.79297,3.01367-1.19043,4.82715-1.19043,1.79102,0,3.39453.3916,4.81152,1.17383,1.41602.78125,2.52734,1.86426,3.33203,3.24707s1.20703,2.96875,1.20703,4.75977-.40234,3.37793-1.20703,4.75977c-.80469,1.38281-1.91602,2.4707-3.33203,3.26367-1.41699.79395-3.02051,1.19043-4.81152,1.19043ZM232.8418,123.47569c1.15625,0,2.19336-.25977,3.11133-.78125s1.6377-1.26367,2.15918-2.22754c.52148-.96289.78223-2.0791.78223-3.34863,0-1.29199-.26074-2.4082-.78223-3.34961-.52148-.93945-1.24121-1.6709-2.15918-2.19238s-1.95508-.78223-3.11133-.78223c-1.15527,0-2.1875.26074-3.09375.78223s-1.63184,1.25293-2.17578,2.19238c-.54395.94141-.81641,2.05762-.81641,3.34961,0,1.26953.27246,2.38574.81641,3.34863.54395.96387,1.26953,1.70605,2.17578,2.22754s1.93848.78125,3.09375.78125Z"/><path class="uuid-aceaa95b-19dc-4a6c-961e-5672aa1b63d6" d="M254.2959,126.33214c-1.54102,0-2.89551-.2832-4.0625-.85059-1.16797-.56543-2.07422-1.43262-2.7207-2.60059-.64551-1.16699-.96875-2.63477-.96875-4.40332v-10.36914h3.26465v9.99512c0,1.76855.4248,3.09473,1.27441,3.97852.85059.88379,2.0459,1.32617,3.58691,1.32617,1.13379,0,2.11914-.23242,2.95801-.69727.83887-.46387,1.48438-1.14453,1.93848-2.04004.45312-.89551.67969-1.97754.67969-3.24707v-9.31543h3.26367v18.01953h-3.09375v-4.8623l.50977,1.29199c-.58887,1.20215-1.47363,2.13086-2.65137,2.78809-1.17871.6582-2.50488.98633-3.97852.98633Z"/><path class="uuid-aceaa95b-19dc-4a6c-961e-5672aa1b63d6" d="M269.73145,126.12803v-18.01953h3.12793v4.89551l-.30566-1.22363c.49805-1.24707,1.33691-2.19824,2.51562-2.85645,1.17871-.65723,2.62988-.98633,4.35254-.98633v3.16211c-.13574-.02246-.2666-.0332-.3916-.0332h-.35645c-1.74609,0-3.12793.52148-4.14844,1.56348-1.01953,1.04297-1.5293,2.5498-1.5293,4.52246v8.97559h-3.26465Z"/><path class="uuid-aceaa95b-19dc-4a6c-961e-5672aa1b63d6" d="M300.2627,126.33214c-1.74609,0-3.30371-.38574-4.6748-1.15625-1.37207-.77051-2.4541-1.84668-3.24707-3.22949-.79395-1.38281-1.19043-2.99219-1.19043-4.82812s.39648-3.43945,1.19043-4.81152c.79297-1.37109,1.875-2.44141,3.24707-3.21289,1.37109-.77051,2.92871-1.15625,4.6748-1.15625,1.56348,0,2.95801.34082,4.18164,1.02051,1.22461.67969,2.19336,1.7002,2.90723,3.05957.71387,1.36035,1.07129,3.06055,1.07129,5.10059s-.36914,3.74023-1.10547,5.09961c-.73633,1.36035-1.7168,2.38574-2.94043,3.07715-1.22461.69141-2.5957,1.03711-4.11426,1.03711ZM300.53418,123.47569c1.13379,0,2.15918-.25977,3.07715-.78125s1.64355-1.26367,2.17676-2.22754c.53223-.96289.79883-2.0791.79883-3.34863,0-1.29199-.2666-2.4082-.79883-3.34961-.5332-.93945-1.25879-1.6709-2.17676-2.19238s-1.94336-.78223-3.07715-.78223c-1.15527,0-2.1875.26074-3.09375.78223s-1.63184,1.25293-2.17578,2.19238c-.54395.94141-.81641,2.05762-.81641,3.34961,0,1.26953.27246,2.38574.81641,3.34863.54395.96387,1.26953,1.70605,2.17578,2.22754s1.93848.78125,3.09375.78125ZM306.55273,132.72374v-11.38965l.33984-4.18164-.2041-4.18262v-4.86133h3.12793v24.61523h-3.26367Z"/><path class="uuid-aceaa95b-19dc-4a6c-961e-5672aa1b63d6" d="M323.58594,126.33214c-1.54102,0-2.89551-.2832-4.0625-.85059-1.16797-.56543-2.07422-1.43262-2.7207-2.60059-.64551-1.16699-.96875-2.63477-.96875-4.40332v-10.36914h3.26465v9.99512c0,1.76855.4248,3.09473,1.27441,3.97852.85059.88379,2.0459,1.32617,3.58691,1.32617,1.13379,0,2.11914-.23242,2.95801-.69727.83887-.46387,1.48438-1.14453,1.93848-2.04004.45312-.89551.67969-1.97754.67969-3.24707v-9.31543h3.26367v18.01953h-3.09375v-4.8623l.50977,1.29199c-.58887,1.20215-1.47363,2.13086-2.65137,2.78809-1.17871.6582-2.50488.98633-3.97852.98633Z"/><path class="uuid-aceaa95b-19dc-4a6c-961e-5672aa1b63d6" d="M344.29199,126.33214c-1.33789,0-2.51074-.22656-3.51953-.67969s-1.78516-1.08301-2.3291-1.8877c-.54395-.80371-.81543-1.7168-.81543-2.73633,0-.97461.23242-1.8584.69727-2.65234.46387-.79297,1.22363-1.42773,2.27734-1.9043,1.05371-.47559,2.47656-.71387,4.26758-.71387h5.71191v2.3457h-5.57617c-1.63184,0-2.73145.27246-3.29785.81641-.56738.54395-.85059,1.20215-.85059,1.97168,0,.88477.35156,1.59277,1.05469,2.125.70215.5332,1.67676.7998,2.92383.7998,1.22363,0,2.29492-.27246,3.21289-.81641s1.58105-1.33691,1.98926-2.37988l.64551,2.24414c-.43066,1.06543-1.18945,1.90918-2.27832,2.53223-1.08789.62402-2.45898.93555-4.11328.93555ZM350.20801,126.12803v-3.80762l-.16992-.71484v-6.49316c0-1.38281-.40332-2.4541-1.20703-3.21289-.80469-.75977-2.01172-1.13965-3.62109-1.13965-1.06543,0-2.1084.17578-3.12793.52734-1.02051.35156-1.88184.82129-2.58398,1.41113l-1.36035-2.44824c.92871-.74805,2.04492-1.32031,3.34863-1.7168s2.66895-.5957,4.09766-.5957c2.46973,0,4.37402.60156,5.71191,1.80273,1.33691,1.20117,2.00586,3.03711,2.00586,5.50781v10.87988h-3.09375Z"/><path class="uuid-aceaa95b-19dc-4a6c-961e-5672aa1b63d6" d="M359.35352,126.12803v-18.01953h3.12793v4.89551l-.30566-1.22363c.49805-1.24707,1.33691-2.19824,2.51562-2.85645,1.17871-.65723,2.62988-.98633,4.35254-.98633v3.16211c-.13574-.02246-.2666-.0332-.3916-.0332h-.35645c-1.74609,0-3.12793.52148-4.14844,1.56348-1.01953,1.04297-1.5293,2.5498-1.5293,4.52246v8.97559h-3.26465Z"/><path class="uuid-aceaa95b-19dc-4a6c-961e-5672aa1b63d6" d="M370.70898,110.79405v-2.68555h11.49219v2.68555h-11.49219ZM379.48145,126.33214c-1.81348,0-3.21875-.4873-4.21582-1.46191-.99805-.97461-1.49609-2.36816-1.49609-4.18262v-16.52344h3.26367v16.3877c0,.97461.24316,1.72266.73145,2.24414.48633.52148,1.18359.78223,2.09082.78223,1.01953,0,1.87012-.2832,2.5498-.85059l1.01953,2.34668c-.49805.43066-1.09375.74805-1.78418.95215-.69238.20312-1.41113.30566-2.15918.30566Z"/><path class="uuid-aceaa95b-19dc-4a6c-961e-5672aa1b63d6" d="M395.39258,126.33214c-1.92676,0-3.62109-.39648-5.08301-1.19043-1.46191-.79297-2.5957-1.88086-3.40039-3.26367-.80469-1.38184-1.20703-2.96875-1.20703-4.75977s.3916-3.37695,1.17285-4.75977c.78223-1.38281,1.8584-2.46582,3.23047-3.24707,1.37109-.78223,2.91797-1.17383,4.64062-1.17383,1.74512,0,3.28711.38574,4.62402,1.15625,1.33789.77148,2.38574,1.85352,3.14551,3.24707.75879,1.39453,1.13867,3.02051,1.13867,4.87891,0,.13574-.00586.29492-.0166.47656-.01172.18164-.0293.35156-.05176.50977h-15.33398v-2.3457h13.63477l-1.32617.81543c.02246-1.15625-.21582-2.18652-.71387-3.09375-.49902-.90625-1.18457-1.61523-2.05762-2.125-.87207-.50977-1.88672-.76465-3.04297-.76465-1.13379,0-2.1416.25488-3.02539.76465-.88477.50977-1.57617,1.22363-2.07422,2.1416-.49902.91797-.74805,1.9668-.74805,3.14551v.54395c0,1.20117.27734,2.27246.83301,3.21289.55469.94043,1.33105,1.67188,2.3291,2.19336.99707.52148,2.1416.78125,3.43359.78125,1.06543,0,2.03418-.18066,2.90723-.54395.87207-.3623,1.6377-.90625,2.29492-1.63184l1.80176,2.1084c-.81543.95215-1.83008,1.67773-3.04297,2.17578-1.21289.49902-2.56641.74805-4.0625.74805Z"/><path class="uuid-aceaa95b-19dc-4a6c-961e-5672aa1b63d6" d="M408.17578,126.12803v-18.01953h3.12793v4.89551l-.30566-1.22363c.49805-1.24707,1.33691-2.19824,2.51562-2.85645,1.17871-.65723,2.62988-.98633,4.35254-.98633v3.16211c-.13574-.02246-.2666-.0332-.3916-.0332h-.35645c-1.74609,0-3.12793.52148-4.14844,1.56348-1.01953,1.04297-1.5293,2.5498-1.5293,4.52246v8.97559h-3.26465Z"/><path class="uuid-aceaa95b-19dc-4a6c-961e-5672aa1b63d6" d="M422.11523,126.12803v-25.22754h3.26465v25.22754h-3.26465Z"/><path class="uuid-aceaa95b-19dc-4a6c-961e-5672aa1b63d6" d="M432.38281,132.92784c-.86133,0-1.7002-.1416-2.51562-.4248-.81641-.2832-1.51855-.69727-2.1084-1.24121l1.39453-2.44824c.45312.43066.95117.75977,1.49512.98633s1.12207.33984,1.73438.33984c.79297,0,1.4502-.2041,1.97168-.61133.52148-.4082,1.00879-1.13379,1.46191-2.17676l1.12207-2.48145.34082-.4082,7.07129-16.35352h3.19629l-8.73828,19.82129c-.52148,1.26953-1.10449,2.2666-1.75098,2.99219-.64551.72559-1.35449,1.24121-2.125,1.54688-.77051.30664-1.62109.45898-2.5498.45898ZM436.66699,126.70616l-8.22852-18.59766h3.40039l7.00391,16.04785-2.17578,2.5498Z"/><path class="uuid-aceaa95b-19dc-4a6c-961e-5672aa1b63d6" d="M457.16797,110.79405v-2.68555h11.49219v2.68555h-11.49219ZM465.94043,126.33214c-1.81348,0-3.21875-.4873-4.21582-1.46191-.99805-.97461-1.49609-2.36816-1.49609-4.18262v-16.52344h3.26367v16.3877c0,.97461.24316,1.72266.73145,2.24414.48633.52148,1.18359.78223,2.09082.78223,1.01953,0,1.87012-.2832,2.5498-.85059l1.01953,2.34668c-.49805.43066-1.09375.74805-1.78418.95215-.69238.20312-1.41113.30566-2.15918.30566Z"/><path class="uuid-aceaa95b-19dc-4a6c-961e-5672aa1b63d6" d="M479.09766,126.33214c-1.33789,0-2.51074-.22656-3.51953-.67969s-1.78516-1.08301-2.3291-1.8877c-.54395-.80371-.81543-1.7168-.81543-2.73633,0-.97461.23242-1.8584.69727-2.65234.46387-.79297,1.22363-1.42773,2.27734-1.9043,1.05371-.47559,2.47656-.71387,4.26758-.71387h5.71191v2.3457h-5.57617c-1.63184,0-2.73145.27246-3.29785.81641-.56738.54395-.85059,1.20215-.85059,1.97168,0,.88477.35156,1.59277,1.05469,2.125.70215.5332,1.67676.7998,2.92383.7998,1.22363,0,2.29492-.27246,3.21289-.81641s1.58105-1.33691,1.98926-2.37988l.64551,2.24414c-.43066,1.06543-1.18945,1.90918-2.27832,2.53223-1.08789.62402-2.45898.93555-4.11328.93555ZM485.01367,126.12803v-3.80762l-.16992-.71484v-6.49316c0-1.38281-.40332-2.4541-1.20703-3.21289-.80469-.75977-2.01172-1.13965-3.62109-1.13965-1.06543,0-2.1084.17578-3.12793.52734-1.02051.35156-1.88184.82129-2.58398,1.41113l-1.36035-2.44824c.92871-.74805,2.04492-1.32031,3.34863-1.7168s2.66895-.5957,4.09766-.5957c2.46973,0,4.37402.60156,5.71191,1.80273,1.33691,1.20117,2.00586,3.03711,2.00586,5.50781v10.87988h-3.09375Z"/><path class="uuid-aceaa95b-19dc-4a6c-961e-5672aa1b63d6" d="M491.54102,126.12803l7.75195-10.06445-.0332,1.66602-7.37793-9.62109h3.6377l5.64355,7.41113h-1.39355l5.64355-7.41113h3.57031l-7.47949,9.68945.0332-1.73438,7.82031,10.06445h-3.70605l-5.9502-7.8877,1.32617.2041-5.84766,7.68359h-3.63867Z"/><path class="uuid-aceaa95b-19dc-4a6c-961e-5672aa1b63d6" d="M520.95117,126.33214c-1.92676,0-3.62109-.39648-5.08301-1.19043-1.46191-.79297-2.5957-1.88086-3.40039-3.26367-.80469-1.38184-1.20703-2.96875-1.20703-4.75977s.3916-3.37695,1.17285-4.75977c.78223-1.38281,1.8584-2.46582,3.23047-3.24707,1.37109-.78223,2.91797-1.17383,4.64062-1.17383,1.74512,0,3.28711.38574,4.62402,1.15625,1.33789.77148,2.38574,1.85352,3.14551,3.24707.75879,1.39453,1.13867,3.02051,1.13867,4.87891,0,.13574-.00586.29492-.0166.47656-.01172.18164-.0293.35156-.05176.50977h-15.33398v-2.3457h13.63477l-1.32617.81543c.02246-1.15625-.21582-2.18652-.71387-3.09375-.49902-.90625-1.18457-1.61523-2.05762-2.125-.87207-.50977-1.88672-.76465-3.04297-.76465-1.13379,0-2.1416.25488-3.02539.76465-.88477.50977-1.57617,1.22363-2.07422,2.1416-.49902.91797-.74805,1.9668-.74805,3.14551v.54395c0,1.20117.27734,2.27246.83301,3.21289.55469.94043,1.33105,1.67188,2.3291,2.19336.99707.52148,2.1416.78125,3.43359.78125,1.06543,0,2.03418-.18066,2.90723-.54395.87207-.3623,1.6377-.90625,2.29492-1.63184l1.80176,2.1084c-.81543.95215-1.83008,1.67773-3.04297,2.17578-1.21289.49902-2.56641.74805-4.0625.74805Z"/><path class="uuid-aceaa95b-19dc-4a6c-961e-5672aa1b63d6" d="M538.90234,126.33214c-1.49609,0-2.91797-.2041-4.2666-.6123s-2.40918-.90625-3.17871-1.49609l1.35938-2.58398c.77051.52148,1.72266.96387,2.85645,1.32617,1.13281.36328,2.28906.54395,3.46777.54395,1.51855,0,2.6123-.21484,3.28125-.64551.66797-.43066,1.00293-1.03125,1.00293-1.80273,0-.56543-.2041-1.00781-.6123-1.3252s-.94629-.55566-1.61523-.71484c-.66895-.1582-1.41016-.2998-2.22656-.4248-.81641-.12402-1.63184-.2832-2.44824-.47559-.81543-.19238-1.56348-.46484-2.24414-.81641-.67969-.35059-1.22363-.83789-1.63184-1.46191-.4082-.62305-.6123-1.45605-.6123-2.49902,0-1.08789.30664-2.04004.91797-2.85547.6123-.81641,1.47949-1.44531,2.60156-1.8877,1.12207-.44141,2.45312-.66309,3.99512-.66309,1.17773,0,2.37402.14258,3.58691.42578,1.21191.2832,2.2041.68555,2.97461,1.20703l-1.39355,2.58398c-.81641-.54395-1.66602-.91797-2.5498-1.12207-.88477-.2041-1.76855-.30664-2.65234-.30664-1.42773,0-2.49414.2334-3.19629.69727-.70215.46484-1.05371,1.05957-1.05371,1.78516,0,.6123.20898,1.08301.62891,1.41113.41895.3291.96289.58398,1.63184.76465.66895.18164,1.41113.33496,2.22754.45898.81543.125,1.63184.28418,2.44727.47656.81641.19238,1.55859.45898,2.22754.79883.66797.33984,1.21191.81543,1.63184,1.42773.41895.6123.62891,1.42773.62891,2.44824,0,1.08789-.31738,2.02832-.95215,2.82227-.63477.79297-1.5293,1.41016-2.68555,1.85254s-2.53906.66309-4.14844.66309Z"/><path class="uuid-aceaa95b-19dc-4a6c-961e-5672aa1b63d6" d="M565.18457,126.33214c-1.33789,0-2.51074-.22656-3.51953-.67969s-1.78516-1.08301-2.3291-1.8877c-.54395-.80371-.81543-1.7168-.81543-2.73633,0-.97461.23242-1.8584.69727-2.65234.46387-.79297,1.22363-1.42773,2.27734-1.9043,1.05371-.47559,2.47656-.71387,4.26758-.71387h5.71191v2.3457h-5.57617c-1.63184,0-2.73145.27246-3.29785.81641-.56738.54395-.85059,1.20215-.85059,1.97168,0,.88477.35156,1.59277,1.05469,2.125.70215.5332,1.67676.7998,2.92383.7998,1.22363,0,2.29492-.27246,3.21289-.81641s1.58105-1.33691,1.98926-2.37988l.64551,2.24414c-.43066,1.06543-1.18945,1.90918-2.27832,2.53223-1.08789.62402-2.45898.93555-4.11328.93555ZM571.10059,126.12803v-3.80762l-.16992-.71484v-6.49316c0-1.38281-.40332-2.4541-1.20703-3.21289-.80469-.75977-2.01172-1.13965-3.62109-1.13965-1.06543,0-2.1084.17578-3.12793.52734-1.02051.35156-1.88184.82129-2.58398,1.41113l-1.36035-2.44824c.92871-.74805,2.04492-1.32031,3.34863-1.7168s2.66895-.5957,4.09766-.5957c2.46973,0,4.37402.60156,5.71191,1.80273,1.33691,1.20117,2.00586,3.03711,2.00586,5.50781v10.87988h-3.09375Z"/><path class="uuid-aceaa95b-19dc-4a6c-961e-5672aa1b63d6" d="M580.24609,126.12803v-18.01953h3.12793v4.89551l-.30566-1.22363c.49805-1.24707,1.33691-2.19824,2.51562-2.85645,1.17871-.65723,2.62988-.98633,4.35254-.98633v3.16211c-.13574-.02246-.2666-.0332-.3916-.0332h-.35645c-1.74609,0-3.12793.52148-4.14844,1.56348-1.01953,1.04297-1.5293,2.5498-1.5293,4.52246v8.97559h-3.26465Z"/><path class="uuid-aceaa95b-19dc-4a6c-961e-5672aa1b63d6" d="M602.20996,126.33214c-1.92676,0-3.62109-.39648-5.08301-1.19043-1.46191-.79297-2.5957-1.88086-3.40039-3.26367-.80469-1.38184-1.20703-2.96875-1.20703-4.75977s.3916-3.37695,1.17285-4.75977c.78223-1.38281,1.8584-2.46582,3.23047-3.24707,1.37109-.78223,2.91797-1.17383,4.64062-1.17383,1.74512,0,3.28711.38574,4.62402,1.15625,1.33789.77148,2.38574,1.85352,3.14551,3.24707.75879,1.39453,1.13867,3.02051,1.13867,4.87891,0,.13574-.00586.29492-.0166.47656-.01172.18164-.0293.35156-.05176.50977h-15.33398v-2.3457h13.63477l-1.32617.81543c.02246-1.15625-.21582-2.18652-.71387-3.09375-.49902-.90625-1.18457-1.61523-2.05762-2.125-.87207-.50977-1.88672-.76465-3.04297-.76465-1.13379,0-2.1416.25488-3.02539.76465-.88477.50977-1.57617,1.22363-2.07422,2.1416-.49902.91797-.74805,1.9668-.74805,3.14551v.54395c0,1.20117.27734,2.27246.83301,3.21289.55469.94043,1.33105,1.67188,2.3291,2.19336.99707.52148,2.1416.78125,3.43359.78125,1.06543,0,2.03418-.18066,2.90723-.54395.87207-.3623,1.6377-.90625,2.29492-1.63184l1.80176,2.1084c-.81543.95215-1.83008,1.67773-3.04297,2.17578-1.21289.49902-2.56641.74805-4.0625.74805Z"/><path class="uuid-aceaa95b-19dc-4a6c-961e-5672aa1b63d6" d="M211.15039,166.33214c-1.92676,0-3.62109-.39648-5.08301-1.19043-1.46191-.79297-2.5957-1.88086-3.40039-3.26367-.80469-1.38184-1.20703-2.96875-1.20703-4.75977s.3916-3.37695,1.17285-4.75977c.78223-1.38281,1.8584-2.46582,3.23047-3.24707,1.37109-.78223,2.91797-1.17383,4.64062-1.17383,1.74512,0,3.28711.38574,4.62402,1.15625,1.33789.77148,2.38574,1.85352,3.14551,3.24707.75879,1.39453,1.13867,3.02051,1.13867,4.87891,0,.13574-.00586.29492-.0166.47656-.01172.18164-.0293.35156-.05176.50977h-15.33398v-2.3457h13.63477l-1.32617.81543c.02246-1.15625-.21582-2.18652-.71387-3.09375-.49902-.90625-1.18457-1.61523-2.05762-2.125-.87207-.50977-1.88672-.76465-3.04297-.76465-1.13379,0-2.1416.25488-3.02539.76465-.88477.50977-1.57617,1.22363-2.07422,2.1416-.49902.91797-.74805,1.9668-.74805,3.14551v.54395c0,1.20117.27734,2.27246.83301,3.21289.55469.94043,1.33105,1.67188,2.3291,2.19336.99707.52148,2.1416.78125,3.43359.78125,1.06543,0,2.03418-.18066,2.90723-.54395.87207-.3623,1.6377-.90625,2.29492-1.63184l1.80176,2.1084c-.81543.95215-1.83008,1.67773-3.04297,2.17578-1.21289.49902-2.56641.74805-4.0625.74805Z"/><path class="uuid-aceaa95b-19dc-4a6c-961e-5672aa1b63d6" d="M229.10156,166.33214c-1.49609,0-2.91797-.2041-4.2666-.6123s-2.40918-.90625-3.17871-1.49609l1.35938-2.58398c.77051.52148,1.72266.96387,2.85645,1.32617,1.13281.36328,2.28906.54395,3.46777.54395,1.51855,0,2.6123-.21484,3.28125-.64551.66797-.43066,1.00293-1.03125,1.00293-1.80273,0-.56543-.2041-1.00781-.6123-1.3252s-.94629-.55566-1.61523-.71484c-.66895-.1582-1.41016-.2998-2.22656-.4248-.81641-.12402-1.63184-.2832-2.44824-.47559-.81543-.19238-1.56348-.46484-2.24414-.81641-.67969-.35059-1.22363-.83789-1.63184-1.46191-.4082-.62305-.6123-1.45605-.6123-2.49902,0-1.08789.30664-2.04004.91797-2.85547.6123-.81641,1.47949-1.44531,2.60156-1.8877,1.12207-.44141,2.45312-.66309,3.99512-.66309,1.17773,0,2.37402.14258,3.58691.42578,1.21191.2832,2.2041.68555,2.97461,1.20703l-1.39355,2.58398c-.81641-.54395-1.66602-.91797-2.5498-1.12207-.88477-.2041-1.76855-.30664-2.65234-.30664-1.42773,0-2.49414.2334-3.19629.69727-.70215.46484-1.05371,1.05957-1.05371,1.78516,0,.6123.20898,1.08301.62891,1.41113.41895.3291.96289.58398,1.63184.76465.66895.18164,1.41113.33496,2.22754.45898.81543.125,1.63184.28418,2.44727.47656.81641.19238,1.55859.45898,2.22754.79883.66797.33984,1.21191.81543,1.63184,1.42773.41895.6123.62891,1.42773.62891,2.44824,0,1.08789-.31738,2.02832-.95215,2.82227-.63477.79297-1.5293,1.41016-2.68555,1.85254s-2.53906.66309-4.14844.66309Z"/><path class="uuid-aceaa95b-19dc-4a6c-961e-5672aa1b63d6" d="M238.38379,150.79405v-2.68555h11.49219v2.68555h-11.49219ZM247.15625,166.33214c-1.81348,0-3.21875-.4873-4.21582-1.46191-.99805-.97461-1.49609-2.36816-1.49609-4.18262v-16.52344h3.26367v16.3877c0,.97461.24316,1.72266.73145,2.24414.48633.52148,1.18359.78223,2.09082.78223,1.01953,0,1.87012-.2832,2.5498-.85059l1.01953,2.34668c-.49805.43066-1.09375.74805-1.78418.95215-.69238.20312-1.41113.30566-2.15918.30566Z"/><path class="uuid-aceaa95b-19dc-4a6c-961e-5672aa1b63d6" d="M256.6748,144.63975c-.63477,0-1.16113-.2041-1.58105-.61133-.41895-.4082-.62891-.90625-.62891-1.49609,0-.6123.20996-1.12207.62891-1.53027.41992-.4082.94629-.6123,1.58105-.6123s1.16211.19922,1.58105.5957c.41992.39648.62891.88965.62891,1.47852,0,.6123-.20312,1.12793-.61133,1.54688-.4082.41992-.94141.62891-1.59863.62891ZM255.04297,166.12803v-18.01953h3.26465v18.01953h-3.26465Z"/><path class="uuid-aceaa95b-19dc-4a6c-961e-5672aa1b63d6" d="M287.07031,147.93761c1.4502,0,2.73145.28418,3.8418.85059s1.97754,1.42773,2.60156,2.58398c.62305,1.15625.93457,2.61816.93457,4.38574v10.37012h-3.26367v-9.99609c0-1.74512-.4082-3.05957-1.22363-3.94434-.81641-.88379-1.96094-1.3252-3.43457-1.3252-1.08789,0-2.04004.22656-2.85547.67969-.81641.4541-1.44531,1.12207-1.8877,2.00586-.44141.88379-.66309,1.9834-.66309,3.29785v9.28223h-3.26367v-9.99609c0-1.74512-.40234-3.05957-1.20703-3.94434-.80469-.88379-1.95508-1.3252-3.45117-1.3252-1.06543,0-2.00586.22656-2.82129.67969-.81641.4541-1.45117,1.12207-1.9043,2.00586-.4541.88379-.67969,1.9834-.67969,3.29785v9.28223h-3.26465v-18.01953h3.12793v4.79395l-.50977-1.22461c.56641-1.17773,1.43945-2.0957,2.61816-2.75391,1.17871-.65723,2.5498-.98633,4.11426-.98633,1.72168,0,3.20703.42578,4.4541,1.27539,1.24609.84961,2.06152,2.13672,2.44727,3.85938l-1.32617-.54395c.54492-1.38281,1.49609-2.49316,2.85645-3.33203s2.94629-1.25879,4.75977-1.25879Z"/><path class="uuid-aceaa95b-19dc-4a6c-961e-5672aa1b63d6" d="M305.73633,166.33214c-1.33789,0-2.51074-.22656-3.51953-.67969s-1.78516-1.08301-2.3291-1.8877c-.54395-.80371-.81543-1.7168-.81543-2.73633,0-.97461.23242-1.8584.69727-2.65234.46387-.79297,1.22363-1.42773,2.27734-1.9043,1.05371-.47559,2.47656-.71387,4.26758-.71387h5.71191v2.3457h-5.57617c-1.63184,0-2.73145.27246-3.29785.81641-.56738.54395-.85059,1.20215-.85059,1.97168,0,.88477.35156,1.59277,1.05469,2.125.70215.5332,1.67676.7998,2.92383.7998,1.22363,0,2.29492-.27246,3.21289-.81641s1.58105-1.33691,1.98926-2.37988l.64551,2.24414c-.43066,1.06543-1.18945,1.90918-2.27832,2.53223-1.08789.62402-2.45898.93555-4.11328.93555ZM311.65234,166.12803v-3.80762l-.16992-.71484v-6.49316c0-1.38281-.40332-2.4541-1.20703-3.21289-.80469-.75977-2.01172-1.13965-3.62109-1.13965-1.06543,0-2.1084.17578-3.12793.52734-1.02051.35156-1.88184.82129-2.58398,1.41113l-1.36035-2.44824c.92871-.74805,2.04492-1.32031,3.34863-1.7168s2.66895-.5957,4.09766-.5957c2.46973,0,4.37402.60156,5.71191,1.80273,1.33691,1.20117,2.00586,3.03711,2.00586,5.50781v10.87988h-3.09375Z"/><path class="uuid-aceaa95b-19dc-4a6c-961e-5672aa1b63d6" d="M318.21387,150.79405v-2.68555h11.49219v2.68555h-11.49219ZM326.98633,166.33214c-1.81348,0-3.21875-.4873-4.21582-1.46191-.99805-.97461-1.49609-2.36816-1.49609-4.18262v-16.52344h3.26367v16.3877c0,.97461.24316,1.72266.73145,2.24414.48633.52148,1.18359.78223,2.09082.78223,1.01953,0,1.87012-.2832,2.5498-.85059l1.01953,2.34668c-.49805.43066-1.09375.74805-1.78418.95215-.69238.20312-1.41113.30566-2.15918.30566Z"/><path class="uuid-aceaa95b-19dc-4a6c-961e-5672aa1b63d6" d="M342.89746,166.33214c-1.92676,0-3.62109-.39648-5.08301-1.19043-1.46191-.79297-2.5957-1.88086-3.40039-3.26367-.80469-1.38184-1.20703-2.96875-1.20703-4.75977s.3916-3.37695,1.17285-4.75977c.78223-1.38281,1.8584-2.46582,3.23047-3.24707,1.37109-.78223,2.91797-1.17383,4.64062-1.17383,1.74512,0,3.28711.38574,4.62402,1.15625,1.33789.77148,2.38574,1.85352,3.14551,3.24707.75879,1.39453,1.13867,3.02051,1.13867,4.87891,0,.13574-.00586.29492-.0166.47656-.01172.18164-.0293.35156-.05176.50977h-15.33398v-2.3457h13.63477l-1.32617.81543c.02246-1.15625-.21582-2.18652-.71387-3.09375-.49902-.90625-1.18457-1.61523-2.05762-2.125-.87207-.50977-1.88672-.76465-3.04297-.76465-1.13379,0-2.1416.25488-3.02539.76465-.88477.50977-1.57617,1.22363-2.07422,2.1416-.49902.91797-.74805,1.9668-.74805,3.14551v.54395c0,1.20117.27734,2.27246.83301,3.21289.55469.94043,1.33105,1.67188,2.3291,2.19336.99707.52148,2.1416.78125,3.43359.78125,1.06543,0,2.03418-.18066,2.90723-.54395.87207-.3623,1.6377-.90625,2.29492-1.63184l1.80176,2.1084c-.81543.95215-1.83008,1.67773-3.04297,2.17578-1.21289.49902-2.56641.74805-4.0625.74805Z"/><path class="uuid-aceaa95b-19dc-4a6c-961e-5672aa1b63d6" d="M363.12695,166.33214c-1.74609,0-3.30371-.38574-4.6748-1.15625-1.37207-.77051-2.4541-1.84668-3.24707-3.22949-.79395-1.38281-1.19043-2.99219-1.19043-4.82812s.39648-3.43945,1.19043-4.81152c.79297-1.37109,1.875-2.44141,3.24707-3.21289,1.37109-.77051,2.92871-1.15625,4.6748-1.15625,1.51855,0,2.88965.34082,4.11426,1.02051,1.22363.67969,2.2041,1.7002,2.94043,3.05957.73633,1.36035,1.10547,3.06055,1.10547,5.10059s-.35742,3.74023-1.07129,5.09961c-.71387,1.36035-1.68262,2.38574-2.90723,3.07715-1.22363.69141-2.61816,1.03711-4.18164,1.03711ZM363.39844,163.47569c1.13379,0,2.15918-.25977,3.07715-.78125s1.64355-1.26367,2.17676-2.22754c.53223-.96289.79883-2.0791.79883-3.34863,0-1.29199-.2666-2.4082-.79883-3.34961-.5332-.93945-1.25879-1.6709-2.17676-2.19238s-1.94336-.78223-3.07715-.78223c-1.15527,0-2.1875.26074-3.09375.78223s-1.63184,1.25293-2.17578,2.19238c-.54395.94141-.81641,2.05762-.81641,3.34961,0,1.26953.27246,2.38574.81641,3.34863.54395.96387,1.26953,1.70605,2.17578,2.22754s1.93848.78125,3.09375.78125ZM369.55273,166.12803v-4.8623l.2041-4.18164-.33984-4.18164v-12.00195h3.26367v25.22754h-3.12793Z"/><path class="uuid-aceaa95b-19dc-4a6c-961e-5672aa1b63d6" d="M385.42969,150.79405v-2.68555h11.49219v2.68555h-11.49219ZM394.20215,166.33214c-1.81348,0-3.21875-.4873-4.21582-1.46191-.99805-.97461-1.49609-2.36816-1.49609-4.18262v-16.52344h3.26367v16.3877c0,.97461.24316,1.72266.73145,2.24414.48633.52148,1.18359.78223,2.09082.78223,1.01953,0,1.87012-.2832,2.5498-.85059l1.01953,2.34668c-.49805.43066-1.09375.74805-1.78418.95215-.69238.20312-1.41113.30566-2.15918.30566Z"/><path class="uuid-aceaa95b-19dc-4a6c-961e-5672aa1b63d6" d="M409.80664,166.33214c-1.79004,0-3.39453-.39648-4.81055-1.19043-1.41699-.79297-2.5332-1.88672-3.34863-3.28027-.81641-1.39453-1.22461-2.97559-1.22461-4.74316,0-1.79102.4082-3.37109,1.22461-4.74316.81543-1.37109,1.92578-2.45312,3.33203-3.24707,1.4043-.79297,3.01367-1.19043,4.82715-1.19043,1.79102,0,3.39453.3916,4.81152,1.17383,1.41602.78125,2.52734,1.86426,3.33203,3.24707s1.20703,2.96875,1.20703,4.75977-.40234,3.37793-1.20703,4.75977c-.80469,1.38281-1.91602,2.4707-3.33203,3.26367-1.41699.79395-3.02051,1.19043-4.81152,1.19043ZM409.80664,163.47569c1.15625,0,2.19336-.25977,3.11133-.78125s1.6377-1.26367,2.15918-2.22754c.52148-.96289.78223-2.0791.78223-3.34863,0-1.29199-.26074-2.4082-.78223-3.34961-.52148-.93945-1.24121-1.6709-2.15918-2.19238s-1.95508-.78223-3.11133-.78223c-1.15527,0-2.1875.26074-3.09375.78223s-1.63184,1.25293-2.17578,2.19238c-.54395.94141-.81641,2.05762-.81641,3.34961,0,1.26953.27246,2.38574.81641,3.34863.54395.96387,1.26953,1.70605,2.17578,2.22754s1.93848.78125,3.09375.78125Z"/><path class="uuid-aceaa95b-19dc-4a6c-961e-5672aa1b63d6" d="M432.82422,166.12803v-25.22754h3.26465v12.00195l-.34082,4.18164.2041,4.18164v4.8623h-3.12793ZM442.37891,166.33214c-1.54199,0-2.93066-.3457-4.16504-1.03711-1.23633-.69141-2.20996-1.7168-2.9248-3.07715-.71387-1.35938-1.07031-3.05957-1.07031-5.09961s.36816-3.74023,1.10449-5.10059c.73633-1.35938,1.72266-2.37988,2.95801-3.05957s2.60156-1.02051,4.09766-1.02051c1.76758,0,3.33203.38574,4.69141,1.15625,1.36035.77148,2.43652,1.8418,3.23047,3.21289.79297,1.37207,1.18945,2.97559,1.18945,4.81152s-.39648,3.44531-1.18945,4.82812c-.79395,1.38281-1.87012,2.45898-3.23047,3.22949-1.35938.77051-2.92383,1.15625-4.69141,1.15625ZM442.10645,163.47569c1.15625,0,2.19336-.25977,3.11133-.78125s1.64258-1.26367,2.17578-2.22754c.53223-.96289.79883-2.0791.79883-3.34863,0-1.29199-.2666-2.4082-.79883-3.34961-.5332-.93945-1.25781-1.6709-2.17578-2.19238s-1.95508-.78223-3.11133-.78223c-1.13379,0-2.15918.26074-3.07715.78223s-1.64355,1.25293-2.17578,2.19238c-.5332.94141-.79883,2.05762-.79883,3.34961,0,1.26953.26562,2.38574.79883,3.34863.53223.96387,1.25781,1.70605,2.17578,2.22754s1.94336.78125,3.07715.78125Z"/><path class="uuid-aceaa95b-19dc-4a6c-961e-5672aa1b63d6" d="M464.03613,166.33214c-1.92676,0-3.62109-.39648-5.08301-1.19043-1.46191-.79297-2.5957-1.88086-3.40039-3.26367-.80469-1.38184-1.20703-2.96875-1.20703-4.75977s.3916-3.37695,1.17285-4.75977c.78223-1.38281,1.8584-2.46582,3.23047-3.24707,1.37109-.78223,2.91797-1.17383,4.64062-1.17383,1.74512,0,3.28711.38574,4.62402,1.15625,1.33789.77148,2.38574,1.85352,3.14551,3.24707.75879,1.39453,1.13867,3.02051,1.13867,4.87891,0,.13574-.00586.29492-.0166.47656-.01172.18164-.0293.35156-.05176.50977h-15.33398v-2.3457h13.63477l-1.32617.81543c.02246-1.15625-.21582-2.18652-.71387-3.09375-.49902-.90625-1.18457-1.61523-2.05762-2.125-.87207-.50977-1.88672-.76465-3.04297-.76465-1.13379,0-2.1416.25488-3.02539.76465-.88477.50977-1.57617,1.22363-2.07422,2.1416-.49902.91797-.74805,1.9668-.74805,3.14551v.54395c0,1.20117.27734,2.27246.83301,3.21289.55469.94043,1.33105,1.67188,2.3291,2.19336.99707.52148,2.1416.78125,3.43359.78125,1.06543,0,2.03418-.18066,2.90723-.54395.87207-.3623,1.6377-.90625,2.29492-1.63184l1.80176,2.1084c-.81543.95215-1.83008,1.67773-3.04297,2.17578-1.21289.49902-2.56641.74805-4.0625.74805Z"/><path class="uuid-aceaa95b-19dc-4a6c-961e-5672aa1b63d6" d="M493.37695,166.4005c-1.81348,0-3.54785-.27734-5.20215-.83301s-2.95801-1.27539-3.91016-2.15918l1.25879-2.65234c.90625.79395,2.06152,1.45117,3.46777,1.97168,1.40527.52246,2.86719.78223,4.38574.78223,1.38281,0,2.50488-.1582,3.36621-.47559s1.49609-.75391,1.9043-1.30957c.40723-.55469.61133-1.18359.61133-1.88672,0-.81641-.2666-1.47266-.79883-1.97168s-1.22363-.90137-2.07422-1.20703c-.84961-.30664-1.78418-.57227-2.80469-.79883-1.01953-.22656-2.0459-.49316-3.07715-.7998-1.03125-.30566-1.97168-.69629-2.82227-1.17285-.84961-.47559-1.53516-1.11621-2.05664-1.9209-.52148-.80371-.78223-1.84082-.78223-3.11133,0-1.22363.32324-2.35059.96973-3.38281.64551-1.03125,1.64258-1.8584,2.99121-2.48145s3.06543-.93555,5.15137-.93555c1.38281,0,2.75391.18164,4.11426.54395,1.35938.36328,2.53809.88477,3.53613,1.56445l-1.12207,2.71973c-1.02051-.67969-2.09668-1.17285-3.23047-1.47852-1.13379-.30664-2.23242-.45898-3.29785-.45898-1.33789,0-2.43652.16992-3.29785.50977-.8623.33984-1.49121.79395-1.88672,1.36035-.39746.56641-.5957,1.20117-.5957,1.90332,0,.83887.2666,1.50781.79883,2.00586.5332.49902,1.22461.89648,2.07422,1.19043.85059.29492,1.78516.56055,2.80566.79883,1.01953.23828,2.04492.50488,3.07617.79883,1.03125.29492,1.97266.68066,2.82227,1.15625.85059.47559,1.53516,1.11133,2.05762,1.9043.52051.79297.78125,1.81348.78125,3.05957,0,1.20215-.32812,2.31836-.98535,3.34961-.6582,1.03125-1.67188,1.8584-3.04297,2.48145-1.37207.62402-3.10059.93555-5.18555.93555ZM492.52734,170.20811v-31.95996h2.17578v31.95996h-2.17578Z"/><path class="uuid-aceaa95b-19dc-4a6c-961e-5672aa1b63d6" d="M509.62793,166.12803v-22.44043l1.46289,1.59863h-6.83398v-2.95801h8.7373v23.7998h-3.36621Z"/><path class="uuid-aceaa95b-19dc-4a6c-961e-5672aa1b63d6" d="M527.47852,166.4005c-1.92676,0-3.59277-.2832-4.99805-.85059-1.40527-.56641-2.49414-1.37695-3.26367-2.43066-.77148-1.05469-1.15625-2.29492-1.15625-3.72363,0-1.4043.36816-2.60059,1.10449-3.58691.73633-.98535,1.80762-1.7334,3.21387-2.24414,1.4043-.50977,3.10449-.76465,5.09961-.76465,1.99414,0,3.7002.25488,5.11719.76465,1.41602.51074,2.49902,1.26465,3.24707,2.26172s1.12207,2.1875,1.12207,3.56934c0,1.42871-.38574,2.66895-1.15625,3.72363-.77051,1.05371-1.87012,1.86426-3.29785,2.43066-1.42871.56738-3.10645.85059-5.03223.85059ZM527.47852,154.63585c-1.81348,0-3.35449-.24316-4.62402-.73047s-2.24414-1.19043-2.92383-2.1084c-.68066-.91797-1.02051-2.01172-1.02051-3.28125,0-1.33691.35742-2.4873,1.07129-3.45117.71387-.96289,1.7168-1.70508,3.00879-2.22656s2.78809-.78223,4.48828-.78223c1.72266,0,3.22949.26074,4.52148.78223s2.30078,1.26367,3.02637,2.22656c.72559.96387,1.08789,2.11426,1.08789,3.45117,0,1.26953-.33984,2.36328-1.01953,3.28125-.68066.91797-1.66602,1.62109-2.95801,2.1084s-2.84473.73047-4.6582.73047ZM527.47852,163.64561c1.9043,0,3.39453-.39062,4.4707-1.17285,1.07617-.78125,1.61523-1.84082,1.61523-3.17871,0-1.31445-.53906-2.35156-1.61523-3.11133-1.07617-.75879-2.56641-1.13867-4.4707-1.13867-1.88184,0-3.35449.37988-4.41992,1.13867-1.06543.75977-1.59766,1.79688-1.59766,3.11133,0,1.33789.53223,2.39746,1.59766,3.17871,1.06543.78223,2.53809,1.17285,4.41992,1.17285ZM527.47852,152.46007c1.6543,0,2.95215-.33984,3.89258-1.02051.94043-.67969,1.41113-1.6084,1.41113-2.78711,0-1.20117-.4873-2.14258-1.46191-2.82227s-2.25586-1.02051-3.8418-1.02051c-1.58691,0-2.85059.34082-3.79102,1.02051s-1.41113,1.62109-1.41113,2.82227c0,1.17871.45898,2.10742,1.37695,2.78711.91797.68066,2.19336,1.02051,3.8252,1.02051Z"/><path class="uuid-aceaa95b-19dc-4a6c-961e-5672aa1b63d6" d="M540.26172,171.16026l1.7002-6.86816.44238,1.97168c-.6582,0-1.20703-.2041-1.64941-.61133-.44238-.4082-.66309-.96387-.66309-1.66602,0-.68066.2207-1.23535.66309-1.66602s.98047-.64648,1.61523-.64648c.65723,0,1.18945.2207,1.59766.66309s.6123.99219.6123,1.64941c0,.22656-.01758.44727-.05078.66309-.03418.21484-.09082.46484-.16992.74707-.08008.28418-.19922.62988-.35742,1.03711l-1.59766,4.72656h-2.14258Z"/><path class="uuid-aceaa95b-19dc-4a6c-961e-5672aa1b63d6" d="M557.53418,166.4005c-1.85938,0-3.51953-.47656-4.98145-1.42871s-2.61816-2.33398-3.46777-4.14746c-.85059-1.81348-1.27539-4.0127-1.27539-6.59668s.4248-4.78223,1.27539-6.5957c.84961-1.81348,2.00586-3.19629,3.46777-4.14746,1.46191-.95215,3.12207-1.42871,4.98145-1.42871,1.83594,0,3.49023.47656,4.96387,1.42871,1.47266.95117,2.62891,2.33398,3.46777,4.14746.83789,1.81348,1.25781,4.01172,1.25781,6.5957s-.41992,4.7832-1.25781,6.59668c-.83887,1.81348-1.99512,3.19531-3.46777,4.14746-1.47363.95215-3.12793,1.42871-4.96387,1.42871ZM557.53418,163.37413c1.24609,0,2.33984-.33984,3.28027-1.02051.94043-.67969,1.67773-1.69922,2.20996-3.05957s.7998-3.04785.7998-5.06641c0-2.0166-.26758-3.70605-.7998-5.06543-.53223-1.36035-1.26953-2.37988-2.20996-3.06055-.94043-.67969-2.03418-1.01953-3.28027-1.01953-1.24707,0-2.34668.33984-3.29883,1.01953-.95117.68066-1.69434,1.7002-2.22656,3.06055-.5332,1.35938-.79883,3.04883-.79883,5.06543,0,2.01855.26562,3.70605.79883,5.06641.53223,1.36035,1.27539,2.37988,2.22656,3.05957.95215.68066,2.05176,1.02051,3.29883,1.02051Z"/><path class="uuid-aceaa95b-19dc-4a6c-961e-5672aa1b63d6" d="M580.4834,166.4005c-2.1084,0-3.91016-.46484-5.40625-1.39453-1.49609-.92871-2.63477-2.27246-3.41699-4.0293-.78125-1.75586-1.17285-3.90332-1.17285-6.44238,0-2.69727.47656-4.97559,1.42773-6.83398.95215-1.8584,2.27832-3.26465,3.97852-4.21582,1.7002-.95215,3.64941-1.42871,5.84766-1.42871,1.13379,0,2.21582.11426,3.24707.33984,1.03125.22754,1.9209.57812,2.66895,1.05469l-1.29199,2.65137c-.61133-.42969-1.30859-.72461-2.09082-.88379-.78223-.1582-1.60352-.23828-2.46484-.23828-2.42578,0-4.35254.75391-5.78027,2.26172s-2.1416,3.74512-2.1416,6.71484c0,.47559.02246,1.04297.06738,1.7002.0459.65723.15918,1.30371.34082,1.9375l-1.15625-1.15625c.33984-1.04199.87793-1.9209,1.61523-2.63477.73633-.71387,1.62012-1.24609,2.65137-1.59766s2.14746-.52734,3.34961-.52734c1.58594,0,2.99121.29492,4.21582.88379,1.22363.58984,2.18652,1.42285,2.88965,2.49902.70215,1.07715,1.05371,2.35254,1.05371,3.8252,0,1.51855-.37402,2.84473-1.12109,3.97852-.74805,1.13379-1.75684,2.00586-3.02637,2.61719-1.26953.6123-2.69824.91895-4.28418.91895ZM580.34766,163.64561c1.04199,0,1.95508-.19141,2.73633-.57715.78223-.38574,1.39941-.92383,1.85352-1.61523.45312-.69141.67969-1.50195.67969-2.43164,0-1.4043-.4873-2.52051-1.46191-3.34863-.97461-.82715-2.30078-1.24121-3.97754-1.24121-1.08789,0-2.04004.2041-2.85645.6123-.81543.4082-1.45605.95801-1.9209,1.64941s-.69727,1.47852-.69727,2.3623c0,.81641.21582,1.57031.64648,2.26172.42969.69141,1.06543,1.25195,1.9043,1.68262.83789.43066,1.86914.64551,3.09375.64551Z"/><path class="uuid-aceaa95b-19dc-4a6c-961e-5672aa1b63d6" d="M598.74121,166.4005c-1.67773,0-3.30371-.26172-4.87891-.78223-1.57617-.52148-2.8623-1.22461-3.85938-2.1084l1.56445-2.68555c.79297.74805,1.82422,1.35938,3.09375,1.83594,1.26855.47559,2.62891.71387,4.08008.71387,1.76758,0,3.14453-.37988,4.13086-1.13867.98633-.75977,1.47852-1.78516,1.47852-3.07715,0-1.24707-.4707-2.25-1.41016-3.00879-.94141-.75977-2.43164-1.13965-4.47168-1.13965h-1.90332v-2.37988l7.07129-8.7041.47656,1.36035h-13.02246v-2.95801h15.70801v2.31152l-7.03809,8.66992-1.76758-1.05371h1.12207c2.87793,0,5.03711.64648,6.47656,1.93848s2.15918,2.93555,2.15918,4.92969c0,1.33789-.3291,2.56152-.98633,3.67188-.65723,1.11133-1.64844,1.98926-2.97461,2.63477-1.32617.64648-3.00879.96973-5.04883.96973Z"/><path class="uuid-aceaa95b-19dc-4a6c-961e-5672aa1b63d6" d="M613.15625,166.33214c-.63477,0-1.17871-.2207-1.63184-.66309-.4541-.44238-.67969-1.00293-.67969-1.68262,0-.68066.22559-1.23535.67969-1.66602.45312-.43066.99707-.64648,1.63184-.64648.6123,0,1.13867.21582,1.58105.64648s.66309.98535.66309,1.66602c0,.67969-.2207,1.24023-.66309,1.68262s-.96875.66309-1.58105.66309Z"/><rect class="uuid-fb81bfab-ef65-4593-9340-b1ce95caac57" x="715.95" y="35" width="43.82069" height="54.77586" rx="2.86416" ry="2.86416"/><path class="uuid-7419ca57-6a94-4f6c-b2ea-abfd8852afd1" d="M722.31055,45.95323v-4.6084l.50391.50488h-1.51172v-.93652h2.17383v5.04004h-1.16602Z"/><path class="uuid-7419ca57-6a94-4f6c-b2ea-abfd8852afd1" d="M725.13281,45.95323v-4.6084l.50391.50488h-1.51172v-.93652h2.17383v5.04004h-1.16602Z"/><path class="uuid-7419ca57-6a94-4f6c-b2ea-abfd8852afd1" d="M727.13379,45.95323v-.75586l1.94434-1.83594c.15332-.13965.26758-.2627.3418-.37109s.12402-.20898.14746-.30273c.02441-.09277.03613-.18066.03613-.2627,0-.19629-.06738-.34961-.20117-.46094-.13477-.11035-.33594-.16504-.60547-.16504-.21582,0-.41211.04297-.58984.12988-.17773.08594-.3291.21289-.4541.38086l-.8418-.54688c.18652-.28809.45312-.51562.79883-.68359s.74414-.25195,1.19531-.25195c.37402,0,.70312.05957.98633.17969s.50293.29102.65918.51465c.15527.22363.2334.48828.2334.7959,0,.1582-.02246.31934-.06836.48242-.04492.16309-.12793.33301-.24805.51074s-.29785.37695-.5332.59766l-1.6123,1.51172-.22363-.41699h2.85156v.9502h-3.81641Z"/><path class="uuid-7419ca57-6a94-4f6c-b2ea-abfd8852afd1" d="M733.58496,46.03917c-.41211,0-.78125-.10156-1.10449-.30566-.32422-.2041-.58105-.49902-.77051-.88574-.18945-.38574-.28418-.85742-.28418-1.41406,0-.55762.09473-1.0293.28418-1.41504.18945-.38672.44629-.68164.77051-.88574.32324-.2041.69238-.30566,1.10449-.30566.41797,0,.78906.10156,1.1123.30566.32422.2041.58105.49902.77051.88574.18945.38574.28516.85742.28516,1.41504,0,.55664-.0957,1.02832-.28516,1.41406-.18945.38672-.44629.68164-.77051.88574-.32324.2041-.69434.30566-1.1123.30566ZM733.58496,45.06065c.19727,0,.36914-.05664.51562-.16895.14551-.11328.26074-.29004.34473-.5293.08398-.24023.12598-.5498.12598-.92871,0-.37988-.04199-.68945-.12598-.92969-.08398-.23926-.19922-.41602-.34473-.52832-.14648-.11328-.31836-.16992-.51562-.16992-.18652,0-.35449.05664-.50391.16992-.14844.1123-.2666.28906-.35254.52832-.08594.24023-.12988.5498-.12988.92969,0,.37891.04395.68848.12988.92871.08594.23926.2041.41602.35254.5293.14941.1123.31738.16895.50391.16895Z"/><path class="uuid-7419ca57-6a94-4f6c-b2ea-abfd8852afd1" d="M736.40723,44.37608v-.89941h2.03809v.89941h-2.03809Z"/><path class="uuid-7419ca57-6a94-4f6c-b2ea-abfd8852afd1" d="M741.07324,46.03917c-.40332,0-.79102-.05371-1.16309-.16113-.37207-.1084-.6709-.24902-.89648-.42188l.39648-.87793c.21094.15332.46582.2793.7627.37793.29785.09863.59766.14746.90039.14746.23047,0,.41602-.02441.55762-.07227s.24609-.11133.31348-.19043.10059-.17188.10059-.27734c0-.13379-.05273-.24121-.1582-.32031s-.24609-.14355-.4209-.19434c-.17578-.05078-.36621-.09863-.57227-.14453-.20703-.04492-.41406-.10059-.62305-.16504s-.40039-.15137-.57617-.25977c-.1748-.10742-.31445-.24902-.41699-.4248-.10352-.1748-.15527-.39453-.15527-.6582,0-.28809.07715-.55078.23047-.78809.15332-.23828.3877-.42773.70215-.56934s.70898-.21191,1.18457-.21191c.31641,0,.62988.03809.93945.11523.30957.07617.5791.18652.80957.33105l-.36719.87793c-.22559-.12988-.45801-.22656-.69824-.29102-.24023-.06543-.4707-.09766-.69141-.09766-.23047,0-.41504.02539-.55371.0752-.13965.05078-.24121.11914-.30664.20605-.06445.08594-.09668.18164-.09668.28711,0,.13477.05273.24316.1582.32422.10547.08203.24512.14551.41797.19141.17188.04492.36426.09082.5752.13672.21191.04492.41992.10156.62695.16895.20605.06738.39551.15234.56836.25586.17285.10254.31348.24219.42188.41699.10742.17578.16113.39258.16113.65234,0,.2832-.07812.54199-.2334.77734-.15625.23535-.39258.4248-.70898.56836-.31738.14453-.71289.21582-1.18848.21582Z"/><rect class="uuid-4b801d82-4eae-4745-8e36-022c48d680c0" x="721.42759" y="51.14446" width="15.56788" height="1.72976" rx=".86488" ry=".86488"/><rect class="uuid-4b801d82-4eae-4745-8e36-022c48d680c0" x="721.42759" y="56.33376" width="15.56788" height="1.72976" rx=".86488" ry=".86488"/><rect class="uuid-4b801d82-4eae-4745-8e36-022c48d680c0" x="721.42759" y="61.52305" width="15.56788" height="1.72976" rx=".86488" ry=".86488"/><rect class="uuid-4b801d82-4eae-4745-8e36-022c48d680c0" x="721.42759" y="66.71234" width="15.56788" height="1.72976" rx=".86488" ry=".86488"/><rect class="uuid-4b801d82-4eae-4745-8e36-022c48d680c0" x="721.42759" y="71.90163" width="32.86552" height="1.72976" rx=".86488" ry=".86488"/><rect class="uuid-4b801d82-4eae-4745-8e36-022c48d680c0" x="721.42759" y="77.09093" width="32.86552" height="1.72976" rx=".86488" ry=".86488"/><rect class="uuid-4b801d82-4eae-4745-8e36-022c48d680c0" x="721.42759" y="82.28022" width="32.86552" height="1.72976" rx=".86488" ry=".86488"/><rect class="uuid-4b801d82-4eae-4745-8e36-022c48d680c0" x="740.45499" y="51.14446" width="13.83811" height="6.91906" rx="1.15318" ry="1.15318"/><rect class="uuid-4b801d82-4eae-4745-8e36-022c48d680c0" x="740.45499" y="61.52305" width="13.83811" height="6.91906" rx="1.15318" ry="1.15318"/><path class="uuid-fb81bfab-ef65-4593-9340-b1ce95caac57" d="M765,43.08814v49.04787c0,1.57441-1.28801,2.86399-2.86398,2.86399h-38.09272c-1.5744,0-2.86398-1.28958-2.86398-2.86399v-.79504h35.73263c2.44145,0,4.42903-1.98757,4.42903-4.42902v-46.68781h.79504c1.57597,0,2.86398,1.28801,2.86398,2.86399Z"/></svg>