<?xml version="1.0" encoding="UTF-8"?><svg id="uuid-e182b1c5-6a5b-426a-9a19-348d5942d14b" xmlns="http://www.w3.org/2000/svg" viewBox="0 0 800 220"><defs><style>.uuid-add3cfef-3a8a-4f69-aa56-7d45111cfb02,.uuid-38e65cf5-3754-43e1-912c-b3cd6227ea79,.uuid-1a9a825d-91ae-41d4-9eff-c59719067251,.uuid-06034e31-7e48-42a6-aaf3-69dbfdb12fc4,.uuid-0cee3084-8837-49e4-ae5f-be482fcb22bf,.uuid-044ccdf7-0d46-4357-989f-6ae01e951d57{fill:none;}.uuid-38e65cf5-3754-43e1-912c-b3cd6227ea79,.uuid-1a9a825d-91ae-41d4-9eff-c59719067251,.uuid-06034e31-7e48-42a6-aaf3-69dbfdb12fc4,.uuid-0cee3084-8837-49e4-ae5f-be482fcb22bf,.uuid-044ccdf7-0d46-4357-989f-6ae01e951d57{stroke-miterlimit:10;}.uuid-38e65cf5-3754-43e1-912c-b3cd6227ea79,.uuid-06034e31-7e48-42a6-aaf3-69dbfdb12fc4{stroke-width:.22444px;}.uuid-38e65cf5-3754-43e1-912c-b3cd6227ea79,.uuid-06034e31-7e48-42a6-aaf3-69dbfdb12fc4,.uuid-0cee3084-8837-49e4-ae5f-be482fcb22bf{stroke:#767ead;}.uuid-1a9a825d-91ae-41d4-9eff-c59719067251{stroke:#44d094;}.uuid-1a9a825d-91ae-41d4-9eff-c59719067251,.uuid-0cee3084-8837-49e4-ae5f-be482fcb22bf,.uuid-044ccdf7-0d46-4357-989f-6ae01e951d57{stroke-linecap:round;stroke-width:.56111px;}.uuid-22353085-15e2-4fd0-8d76-9be6fbecc5ae{fill:#8178b0;}.uuid-a338f667-9dda-4cf3-9475-be6635b3363e,.uuid-24592ef4-5ef1-4b33-9540-9eb64b6913bd{fill:#2697d4;}.uuid-24623a9b-d3a4-4820-a83c-d2fd4d168e42{fill:#2697d4;}.uuid-c7d1e963-25b3-4eb3-9e07-a98c5501eb2c,.uuid-c26a18ce-de65-4c2a-ad4a-3cfcf0df5359{fill:#44d094;}.uuid-24592ef4-5ef1-4b33-9540-9eb64b6913bd,.uuid-79d85382-d9f6-4ab3-bba1-af312677e57a,.uuid-c26a18ce-de65-4c2a-ad4a-3cfcf0df5359{opacity:.25;}.uuid-724098ed-eb3d-426f-8388-5959a940c400,.uuid-ced8d607-1e4d-43a8-a410-fd2465b35246{fill:#fff;}.uuid-ced8d607-1e4d-43a8-a410-fd2465b35246{opacity:0;}.uuid-06034e31-7e48-42a6-aaf3-69dbfdb12fc4{stroke-dasharray:1.34666 1.34666;}.uuid-b94b23e7-20fc-4f1c-a55d-1d2d6826ef15{opacity:.3;}.uuid-16ffb20a-adcb-492f-83b5-2b025f8b62a5,.uuid-79d85382-d9f6-4ab3-bba1-af312677e57a{fill:#767ead;}.uuid-044ccdf7-0d46-4357-989f-6ae01e951d57{stroke:#2697d4;}</style></defs><rect class="uuid-ced8d607-1e4d-43a8-a410-fd2465b35246" x="0" y="0" width="800" height="220"/><path class="uuid-c7d1e963-25b3-4eb3-9e07-a98c5501eb2c" d="M249.22483,75.31445c-1.82227,0-3.50098-.29199-5.03711-.87305-1.53711-.58105-2.86426-1.41016-3.9834-2.48535-1.12012-1.0752-1.99219-2.33789-2.61719-3.78613-.62598-1.44824-.93848-3.04004-.93848-4.77344s.3125-3.3252.93848-4.77344c.625-1.44922,1.50879-2.71094,2.64941-3.78613,1.1416-1.0752,2.48047-1.9043,4.0166-2.48633,1.53613-.58105,3.22656-.87207,5.07031-.87207,2.04102,0,3.87891.34082,5.51465,1.02051,1.63477.68066,3.01172,1.66797,4.13086,2.96289l-3.39062,3.16113c-.85547-.90039-1.77734-1.56445-2.76562-1.99219-.9873-.42773-2.07422-.6416-3.25879-.6416-1.09766,0-2.10742.18066-3.0293.54297s-1.7168.87207-2.38672,1.53027c-.66992.65918-1.18457,1.43848-1.54688,2.33789-.3623.90039-.54297,1.89844-.54297,2.99609,0,1.05371.18066,2.03613.54297,2.94629.3623.91113.87695,1.69531,1.54688,2.35352.66992.65918,1.45996,1.1748,2.37109,1.54785.91016.37305,1.91406.55957,3.01172.55957,1.05371,0,2.0791-.17578,3.07812-.52637.99902-.35156,1.96973-.93262,2.91406-1.74512l3.02832,3.85156c-1.27246.96582-2.73242,1.69531-4.37793,2.18945-1.64648.49414-3.29297.74121-4.93848.74121ZM253.66916,71.69238v-8.6582h4.87207v9.34961l-4.87207-.69141Z"/><path class="uuid-c7d1e963-25b3-4eb3-9e07-a98c5501eb2c" d="M263.47971,74.91895v-23.04492h9.97559c2.0625,0,3.84082.33496,5.33301,1.00391,1.49219.66992,2.64453,1.62988,3.45703,2.88086.81152,1.25098,1.21777,2.73242,1.21777,4.44434,0,1.7334-.40625,3.2207-1.21777,4.46094-.8125,1.24023-1.96484,2.18359-3.45703,2.83105s-3.27051.9707-5.33301.9707h-7.0459l2.43652-2.30371v8.75684h-5.36621ZM268.84592,66.75391l-2.43652-2.53418h6.74902c1.62402,0,2.85352-.35156,3.6875-1.05371s1.25098-1.69043,1.25098-2.96289-.41699-2.25586-1.25098-2.94629c-.83398-.69141-2.06348-1.03711-3.6875-1.03711h-6.74902l2.43652-2.53516v13.06934ZM278.16331,74.91895l-5.79492-8.3623h5.72852l5.79492,8.3623h-5.72852Z"/><path class="uuid-c7d1e963-25b3-4eb3-9e07-a98c5501eb2c" d="M292.97776,70.63867h12.54297v4.28027h-17.84375v-23.04492h17.41602v4.2793h-12.11523v14.48535ZM292.58225,61.125h11.09473v4.18066h-11.09473v-4.18066Z"/><path class="uuid-c7d1e963-25b3-4eb3-9e07-a98c5501eb2c" d="M306.7385,74.91895l10.23828-23.04492h5.26758l10.33691,23.04492h-5.59668l-8.46094-20.3457h2.14062l-8.46094,20.3457h-5.46484ZM311.90647,69.98047l1.35059-4.04883h11.91699l1.38281,4.04883h-14.65039Z"/><path class="uuid-c7d1e963-25b3-4eb3-9e07-a98c5501eb2c" d="M339.75803,74.91895v-18.69922h-7.37402v-4.3457h20.08203v4.3457h-7.37402v18.69922h-5.33398Z"/><path class="uuid-c7d1e963-25b3-4eb3-9e07-a98c5501eb2c" d="M370.21018,74.91895l-7.57129-23.04492h5.53027l6.55176,20.41113h-2.76562l6.84766-20.41113h4.93848l6.58398,20.41113h-2.66602l6.71582-20.41113h5.10254l-7.57129,23.04492h-5.66309l-5.86035-17.90918h1.51465l-5.99121,17.90918h-5.69629Z"/><path class="uuid-c7d1e963-25b3-4eb3-9e07-a98c5501eb2c" d="M414.12815,75.31445c-1.82227,0-3.50098-.29688-5.03711-.88965-1.53613-.5918-2.875-1.42578-4.0166-2.50195-1.14062-1.0752-2.02441-2.33691-2.64941-3.78613-.62598-1.44824-.93848-3.02832-.93848-4.74023,0-1.7334.3125-3.31934.93848-4.75781.625-1.43652,1.50879-2.69336,2.64941-3.76953,1.1416-1.07422,2.47461-1.90918,4-2.50195s3.19922-.88867,5.02051-.88867c1.82227,0,3.49512.29102,5.02148.87207,1.52441.58203,2.8584,1.41113,4,2.48633,1.14062,1.0752,2.02441,2.33691,2.64941,3.78613.62598,1.44824.93848,3.04004.93848,4.77344,0,1.71191-.3125,3.29785-.93848,4.75684-.625,1.45996-1.50879,2.72754-2.64941,3.80273-1.1416,1.0752-2.47559,1.9043-4,2.48535-1.52637.58105-3.18848.87305-4.98828.87305ZM414.09495,70.80371c1.03223,0,1.98047-.18066,2.84863-.54297.86621-.3623,1.62891-.87793,2.28809-1.54785.6582-.66895,1.16797-1.44824,1.53027-2.33691s.54297-1.88184.54297-2.97949-.18066-2.09082-.54297-2.97949-.87207-1.66797-1.53027-2.33789c-.65918-.66895-1.42188-1.18457-2.28809-1.54688-.86816-.3623-1.81641-.54297-2.84863-.54297-1.03125,0-1.98633.18066-2.86328.54297-.87891.3623-1.6416.87793-2.28809,1.54688-.64844.66992-1.15234,1.44922-1.51465,2.33789s-.54297,1.88184-.54297,2.97949.18066,2.09082.54297,2.97949.86621,1.66797,1.51465,2.33691c.64648.66992,1.40918,1.18555,2.28809,1.54785.87695.3623,1.83203.54297,2.86328.54297Z"/><path class="uuid-c7d1e963-25b3-4eb3-9e07-a98c5501eb2c" d="M430.72092,74.91895v-23.04492h9.97559c2.0625,0,3.84082.33496,5.33301,1.00391,1.49219.66992,2.64453,1.62988,3.45703,2.88086.81152,1.25098,1.21777,2.73242,1.21777,4.44434,0,1.7334-.40625,3.2207-1.21777,4.46094-.8125,1.24023-1.96484,2.18359-3.45703,2.83105s-3.27051.9707-5.33301.9707h-7.0459l2.43652-2.30371v8.75684h-5.36621ZM436.08713,66.75391l-2.43652-2.53418h6.74902c1.62402,0,2.85352-.35156,3.6875-1.05371s1.25098-1.69043,1.25098-2.96289-.41699-2.25586-1.25098-2.94629c-.83398-.69141-2.06348-1.03711-3.6875-1.03711h-6.74902l2.43652-2.53516v13.06934ZM445.40452,74.91895l-5.79492-8.3623h5.72852l5.79492,8.3623h-5.72852Z"/><path class="uuid-c7d1e963-25b3-4eb3-9e07-a98c5501eb2c" d="M454.91721,74.91895v-23.04492h5.30078v23.04492h-5.30078ZM459.65842,69.65137l-.26367-6.15625,11.02832-11.62109h5.92676l-9.91016,10.69922-3.02832,3.16016-3.75293,3.91797ZM470.68674,74.91895l-8.19727-10.00781,3.48926-3.81934,10.96289,13.82715h-6.25488Z"/><path class="uuid-c7d1e963-25b3-4eb3-9e07-a98c5501eb2c" d="M481.32053,75.18262c-.92188,0-1.68457-.29688-2.28809-.88965-.60352-.5918-.90527-1.29395-.90527-2.10645,0-.83398.30176-1.53125.90527-2.09082s1.36621-.83887,2.28809-.83887,1.67383.2793,2.25586.83887c.58105.55957.87207,1.25684.87207,2.09082,0,.8125-.29102,1.51465-.87207,2.10645-.58203.59277-1.33398.88965-2.25586.88965ZM479.24631,66.88574l-.9873-15.01172h6.09082l-1.02051,15.01172h-4.08301Z"/><path class="uuid-24623a9b-d3a4-4820-a83c-d2fd4d168e42" d="M149.10649,117.8575s-1.58904,22.89223-24.61034,21.95419c0,0-8.79934,15.18831-26.47747,15.18831s-26.71583-15.70722-26.71583-15.70722c0,0-18.63156,3.11351-25.36514-15.50764,0,0-5.42262-15.46773,9.81236-21.95419,0,0,2.46302-23.55086,26.75556-21.19577,8.37213-14.82379,27.11877-20.02133,41.87179-11.60904,4.64075,2.64619,8.51533,6.46154,11.24207,11.07016,0,0,13.58634-1.33721,20.63773,9.97918h-.03973c7.03153,11.31639,4.80687,22.45315-7.11098,27.78203Z"/><path class="uuid-724098ed-eb3d-426f-8388-5959a940c400" d="M119.62941,104.40696h-11.14297c-.2805,0-.54651-.13121-.71094-.3596-.16927-.22354-.22248-.51511-.1451-.78724l5.76983-20.92487v.00486c.05804-.37418-.11607-.74352-.44495-.92332-.32404-.18467-.73029-.14579-1.01563.10205l-25.70559,30.97428c-.21764.26727-.26599.6366-.12091.95247.1451.31101.45945.51511.80284.51511h11.14297c.2805,0,.54651.13121.71094.3596.16927.22354.22248.51511.1451.78724l-5.81811,20.91989c-.12574.41306.05804.85528.43527,1.05452.37724.19924.84153.10205,1.11237-.23326l25.66596-30.97428c.21764-.26727.26599-.6366.12091-.95247-.1451-.31101-.45945-.51511-.80284-.51511l.00085.00012Z"/><rect class="uuid-add3cfef-3a8a-4f69-aa56-7d45111cfb02" x="200.03267" y="97.22864" width="467.45282" height="70.00063"/><path class="uuid-22353085-15e2-4fd0-8d76-9be6fbecc5ae" d="M209.34885,126.12891v-9.11328l.78125,2.10938-10.2334-16.79639h3.6377l8.60156,14.17725h-1.97168l8.63574-14.17725h3.36621l-10.2002,16.79639.74805-2.10938v9.11328h-3.36523Z"/><path class="uuid-22353085-15e2-4fd0-8d76-9be6fbecc5ae" d="M232.84202,126.33203c-1.79004,0-3.39453-.39648-4.81055-1.18945-1.41699-.79297-2.5332-1.88672-3.34863-3.28125-.81641-1.39453-1.22461-2.97461-1.22461-4.74219,0-1.79102.4082-3.37109,1.22461-4.74414.81543-1.37109,1.92578-2.45264,3.33203-3.24658,1.4043-.79297,3.01367-1.19043,4.82715-1.19043,1.79102,0,3.39453.3916,4.81152,1.17383,1.41602.78125,2.52734,1.86426,3.33203,3.24756.80469,1.38281,1.20703,2.96875,1.20703,4.75977s-.40234,3.37695-1.20703,4.75977-1.91602,2.4707-3.33203,3.26367c-1.41699.79297-3.02051,1.18945-4.81152,1.18945ZM232.84202,123.47656c1.15625,0,2.19336-.25977,3.11133-.78125s1.6377-1.26367,2.15918-2.22852c.52148-.96289.78223-2.07812.78223-3.34766,0-1.29297-.26074-2.4082-.78223-3.34961-.52148-.93945-1.24121-1.67188-2.15918-2.19336s-1.95508-.78174-3.11133-.78174c-1.15527,0-2.1875.26025-3.09375.78174s-1.63184,1.25391-2.17578,2.19336c-.54395.94141-.81641,2.05664-.81641,3.34961,0,1.26953.27246,2.38477.81641,3.34766.54395.96484,1.26953,1.70703,2.17578,2.22852s1.93848.78125,3.09375.78125Z"/><path class="uuid-22353085-15e2-4fd0-8d76-9be6fbecc5ae" d="M254.29612,126.33203c-1.54102,0-2.89551-.2832-4.0625-.84961-1.16797-.56641-2.07422-1.43359-2.7207-2.60156-.64551-1.16602-.96875-2.63477-.96875-4.40234v-10.36963h3.26465v9.99463c0,1.76953.4248,3.0957,1.27441,3.97852.85059.88477,2.0459,1.32617,3.58691,1.32617,1.13379,0,2.11914-.23242,2.95801-.69727.83887-.46289,1.48438-1.14453,1.93848-2.03906.45312-.89648.67969-1.97852.67969-3.24805v-9.31494h3.26367v18.02002h-3.09375v-4.86328l.50977,1.29297c-.58887,1.20117-1.47363,2.13086-2.65137,2.78711-1.17871.6582-2.50488.98633-3.97852.98633Z"/><path class="uuid-22353085-15e2-4fd0-8d76-9be6fbecc5ae" d="M269.73166,126.12891v-18.02002h3.12793v4.89502l-.30566-1.22266c.49805-1.24756,1.33691-2.19873,2.51562-2.85693,1.17871-.65723,2.62988-.98633,4.35254-.98633v3.16162c-.13574-.02148-.2666-.0332-.3916-.0332h-.35645c-1.74609,0-3.12793.52148-4.14844,1.56445-1.01953,1.04297-1.5293,2.54883-1.5293,4.52148v8.97656h-3.26465Z"/><path class="uuid-22353085-15e2-4fd0-8d76-9be6fbecc5ae" d="M292.81663,126.12891v-18.02002h3.12793v4.89502l-.30566-1.22266c.49805-1.24756,1.33691-2.19873,2.51562-2.85693,1.17871-.65723,2.62988-.98633,4.35254-.98633v3.16162c-.13574-.02148-.2666-.0332-.3916-.0332h-.35645c-1.74609,0-3.12793.52148-4.14844,1.56445-1.01953,1.04297-1.5293,2.54883-1.5293,4.52148v8.97656h-3.26465Z"/><path class="uuid-22353085-15e2-4fd0-8d76-9be6fbecc5ae" d="M314.78049,126.33203c-1.92676,0-3.62109-.39648-5.08301-1.18945s-2.5957-1.88086-3.40039-3.26367-1.20703-2.96875-1.20703-4.75977.3916-3.37695,1.17285-4.75977c.78223-1.3833,1.8584-2.46631,3.23047-3.24756,1.37109-.78223,2.91797-1.17383,4.64062-1.17383,1.74512,0,3.28711.38574,4.62402,1.15625,1.33789.77148,2.38574,1.85352,3.14551,3.24756.75879,1.39453,1.13867,3.01953,1.13867,4.87891,0,.13477-.00586.29492-.0166.47656-.01172.18164-.0293.35156-.05176.50977h-15.33398v-2.3457h13.63477l-1.32617.81445c.02246-1.15625-.21582-2.18555-.71387-3.09375-.49902-.90625-1.18457-1.61523-2.05762-2.125-.87207-.50928-1.88672-.76416-3.04297-.76416-1.13379,0-2.1416.25488-3.02539.76416-.88477.50977-1.57617,1.22461-2.07422,2.14258-.49902.91797-.74805,1.9668-.74805,3.14453v.54492c0,1.20117.27734,2.27148.83301,3.21289.55469.93945,1.33105,1.67188,2.3291,2.19336.99707.52148,2.1416.78125,3.43359.78125,1.06543,0,2.03418-.18164,2.90723-.54492.87207-.36133,1.6377-.90625,2.29492-1.63086l1.80176,2.10742c-.81543.95312-1.83008,1.67773-3.04297,2.17578-1.21289.5-2.56641.74805-4.0625.74805Z"/><path class="uuid-22353085-15e2-4fd0-8d76-9be6fbecc5ae" d="M332.29026,126.12891l-7.88867-18.02002h3.40039l7.00391,16.31885h-1.63184l7.13965-16.31885h3.19629l-7.8877,18.02002h-3.33203Z"/><path class="uuid-22353085-15e2-4fd0-8d76-9be6fbecc5ae" d="M354.59397,126.33203c-1.92676,0-3.62109-.39648-5.08301-1.18945s-2.5957-1.88086-3.40039-3.26367-1.20703-2.96875-1.20703-4.75977.3916-3.37695,1.17285-4.75977c.78223-1.3833,1.8584-2.46631,3.23047-3.24756,1.37109-.78223,2.91797-1.17383,4.64062-1.17383,1.74512,0,3.28711.38574,4.62402,1.15625,1.33789.77148,2.38574,1.85352,3.14551,3.24756.75879,1.39453,1.13867,3.01953,1.13867,4.87891,0,.13477-.00586.29492-.0166.47656-.01172.18164-.0293.35156-.05176.50977h-15.33398v-2.3457h13.63477l-1.32617.81445c.02246-1.15625-.21582-2.18555-.71387-3.09375-.49902-.90625-1.18457-1.61523-2.05762-2.125-.87207-.50928-1.88672-.76416-3.04297-.76416-1.13379,0-2.1416.25488-3.02539.76416-.88477.50977-1.57617,1.22461-2.07422,2.14258-.49902.91797-.74805,1.9668-.74805,3.14453v.54492c0,1.20117.27734,2.27148.83301,3.21289.55469.93945,1.33105,1.67188,2.3291,2.19336.99707.52148,2.1416.78125,3.43359.78125,1.06543,0,2.03418-.18164,2.90723-.54492.87207-.36133,1.6377-.90625,2.29492-1.63086l1.80176,2.10742c-.81543.95312-1.83008,1.67773-3.04297,2.17578-1.21289.5-2.56641.74805-4.0625.74805Z"/><path class="uuid-22353085-15e2-4fd0-8d76-9be6fbecc5ae" d="M376.99924,107.93799c1.47363,0,2.77148.28418,3.89355.85059s2,1.42773,2.63477,2.58447c.63379,1.15625.95215,2.61719.95215,4.38477v10.37109h-3.26465v-9.99609c0-1.74609-.4248-3.06055-1.27441-3.94531-.85059-.88281-2.0459-1.32471-3.58691-1.32471-1.15625,0-2.16504.22705-3.02637.68018s-1.52441,1.12109-1.98926,2.00586c-.46484.88281-.69629,1.98242-.69629,3.29688v9.2832h-3.26465v-18.02002h3.12793v4.86182l-.50977-1.29297c.58887-1.17725,1.49609-2.09521,2.71973-2.75342,1.22461-.65723,2.65234-.98633,4.28418-.98633Z"/><path class="uuid-22353085-15e2-4fd0-8d76-9be6fbecc5ae" d="M398.1135,126.33203c-1.54102,0-2.89551-.2832-4.0625-.84961-1.16797-.56641-2.07422-1.43359-2.7207-2.60156-.64551-1.16602-.96875-2.63477-.96875-4.40234v-10.36963h3.26465v9.99463c0,1.76953.4248,3.0957,1.27441,3.97852.85059.88477,2.0459,1.32617,3.58691,1.32617,1.13379,0,2.11914-.23242,2.95801-.69727.83887-.46289,1.48438-1.14453,1.93848-2.03906.45312-.89648.67969-1.97852.67969-3.24805v-9.31494h3.26367v18.02002h-3.09375v-4.86328l.50977,1.29297c-.58887,1.20117-1.47363,2.13086-2.65137,2.78711-1.17871.6582-2.50488.98633-3.97852.98633Z"/><path class="uuid-22353085-15e2-4fd0-8d76-9be6fbecc5ae" d="M421.57346,126.33203c-1.92676,0-3.62109-.39648-5.08301-1.18945s-2.5957-1.88086-3.40039-3.26367-1.20703-2.96875-1.20703-4.75977.3916-3.37695,1.17285-4.75977c.78223-1.3833,1.8584-2.46631,3.23047-3.24756,1.37109-.78223,2.91797-1.17383,4.64062-1.17383,1.74512,0,3.28711.38574,4.62402,1.15625,1.33789.77148,2.38574,1.85352,3.14551,3.24756.75879,1.39453,1.13867,3.01953,1.13867,4.87891,0,.13477-.00586.29492-.0166.47656-.01172.18164-.0293.35156-.05176.50977h-15.33398v-2.3457h13.63477l-1.32617.81445c.02246-1.15625-.21582-2.18555-.71387-3.09375-.49902-.90625-1.18457-1.61523-2.05762-2.125-.87207-.50928-1.88672-.76416-3.04297-.76416-1.13379,0-2.1416.25488-3.02539.76416-.88477.50977-1.57617,1.22461-2.07422,2.14258-.49902.91797-.74805,1.9668-.74805,3.14453v.54492c0,1.20117.27734,2.27148.83301,3.21289.55469.93945,1.33105,1.67188,2.3291,2.19336.99707.52148,2.1416.78125,3.43359.78125,1.06543,0,2.03418-.18164,2.90723-.54492.87207-.36133,1.6377-.90625,2.29492-1.63086l1.80176,2.10742c-.81543.95312-1.83008,1.67773-3.04297,2.17578-1.21289.5-2.56641.74805-4.0625.74805Z"/><path class="uuid-22353085-15e2-4fd0-8d76-9be6fbecc5ae" d="M445.13401,104.64014c-.63477,0-1.16113-.2041-1.58105-.61133-.41895-.4082-.62891-.90625-.62891-1.49609,0-.6123.20996-1.12207.62891-1.53027.41992-.4082.94629-.6123,1.58105-.6123s1.16211.19922,1.58105.5957c.41992.39648.62891.88965.62891,1.47852,0,.6123-.20312,1.12793-.61133,1.54688-.4082.41992-.94141.62891-1.59863.62891ZM443.50217,126.12891v-18.02002h3.26465v18.02002h-3.26465Z"/><path class="uuid-22353085-15e2-4fd0-8d76-9be6fbecc5ae" d="M458.15549,126.33203c-1.49609,0-2.91797-.20312-4.2666-.61133s-2.40918-.90625-3.17871-1.49609l1.35938-2.58398c.77051.52148,1.72266.96289,2.85645,1.32617,1.13281.36328,2.28906.54297,3.46777.54297,1.51855,0,2.6123-.21484,3.28125-.64453.66797-.43164,1.00293-1.03125,1.00293-1.80273,0-.56641-.2041-1.00781-.6123-1.32617-.4082-.31641-.94629-.55469-1.61523-.71484-.66895-.1582-1.41016-.29883-2.22656-.42383s-1.63184-.2832-2.44824-.47656c-.81543-.19141-1.56348-.46484-2.24414-.81641-.67969-.34961-1.22363-.83789-1.63184-1.46094s-.6123-1.45703-.6123-2.5c0-1.08789.30664-2.03906.91797-2.85498.6123-.81641,1.47949-1.44531,2.60156-1.8877,1.12207-.44141,2.45312-.66309,3.99512-.66309,1.17773,0,2.37402.14258,3.58691.42578,1.21191.2832,2.2041.68555,2.97461,1.20703l-1.39355,2.5835c-.81641-.54297-1.66602-.91797-2.5498-1.12109-.88477-.20459-1.76855-.30713-2.65234-.30713-1.42773,0-2.49414.2334-3.19629.69775-.70215.46484-1.05371,1.05859-1.05371,1.78516,0,.61133.20898,1.08203.62891,1.41016.41895.33008.96289.58398,1.63184.76562s1.41113.33398,2.22754.45898c.81543.125,1.63184.2832,2.44727.47656.81641.19141,1.55859.45898,2.22754.79883.66797.33984,1.21191.81445,1.63184,1.42773.41895.61133.62891,1.42773.62891,2.44727,0,1.08789-.31738,2.0293-.95215,2.82227s-1.5293,1.41016-2.68555,1.85352c-1.15625.44141-2.53906.66211-4.14844.66211Z"/><path class="uuid-22353085-15e2-4fd0-8d76-9be6fbecc5ae" d="M486.74924,126.33203c-1.54102,0-2.89551-.2832-4.0625-.84961-1.16797-.56641-2.07422-1.43359-2.7207-2.60156-.64551-1.16602-.96875-2.63477-.96875-4.40234v-10.36963h3.26465v9.99463c0,1.76953.4248,3.0957,1.27441,3.97852.85059.88477,2.0459,1.32617,3.58691,1.32617,1.13379,0,2.11914-.23242,2.95801-.69727.83887-.46289,1.48438-1.14453,1.93848-2.03906.45312-.89648.67969-1.97852.67969-3.24805v-9.31494h3.26367v18.02002h-3.09375v-4.86328l.50977,1.29297c-.58887,1.20117-1.47363,2.13086-2.65137,2.78711-1.17871.6582-2.50488.98633-3.97852.98633Z"/><path class="uuid-22353085-15e2-4fd0-8d76-9be6fbecc5ae" d="M502.18479,132.72461v-24.61572h3.12793v4.86182l-.2041,4.18164.34082,4.18164v11.39062h-3.26465ZM511.73948,126.33203c-1.49609,0-2.8623-.3457-4.09766-1.03711s-2.22168-1.7168-2.95801-3.07617-1.10449-3.06055-1.10449-5.09961c0-2.04102.35645-3.74023,1.07031-5.10156.71484-1.35889,1.68848-2.37939,2.9248-3.05908,1.23438-.67969,2.62305-1.02051,4.16504-1.02051,1.76758,0,3.33203.38574,4.69141,1.15625,1.36035.77148,2.43652,1.8418,3.23047,3.2124.79297,1.37305,1.18945,2.97656,1.18945,4.8125s-.39648,3.44531-1.18945,4.82812c-.79395,1.38281-1.87012,2.45898-3.23047,3.22852-1.35938.77148-2.92383,1.15625-4.69141,1.15625ZM511.46702,123.47656c1.15625,0,2.19336-.25977,3.11133-.78125s1.64258-1.26367,2.17578-2.22852c.53223-.96289.79883-2.07812.79883-3.34766,0-1.29297-.2666-2.4082-.79883-3.34961-.5332-.93945-1.25781-1.67188-2.17578-2.19336s-1.95508-.78174-3.11133-.78174c-1.13379,0-2.15918.26025-3.07715.78174s-1.64355,1.25391-2.17578,2.19336c-.5332.94141-.79883,2.05664-.79883,3.34961,0,1.26953.26562,2.38477.79883,3.34766.53223.96484,1.25781,1.70703,2.17578,2.22852s1.94336.78125,3.07715.78125Z"/><path class="uuid-22353085-15e2-4fd0-8d76-9be6fbecc5ae" d="M540.33225,126.40039c-1.67773,0-3.30371-.26172-4.87891-.78125-1.57617-.52148-2.8623-1.22461-3.85938-2.10938l1.56445-2.68555c.79297.74805,1.82422,1.35938,3.09375,1.83594,1.26855.47656,2.62891.71484,4.08008.71484,1.76758,0,3.14453-.38086,4.13086-1.13867.98633-.75977,1.47852-1.78516,1.47852-3.07812,0-1.24609-.4707-2.25-1.41016-3.00781-.94141-.75977-2.43164-1.14062-4.47168-1.14062h-1.90332v-2.37891l7.07129-8.70459.47656,1.36035h-13.02246v-2.95801h15.70801v2.31152l-7.03809,8.67041-1.76758-1.05469h1.12207c2.87793,0,5.03711.64648,6.47656,1.93945,1.43945,1.29102,2.15918,2.93555,2.15918,4.92969,0,1.33789-.3291,2.56055-.98633,3.67188s-1.64844,1.98828-2.97461,2.63477-3.00879.96875-5.04883.96875Z"/><path class="uuid-22353085-15e2-4fd0-8d76-9be6fbecc5ae" d="M562.49924,126.40039c-2.1084,0-3.91016-.46484-5.40625-1.39453-1.49609-.92773-2.63477-2.27148-3.41699-4.0293-.78125-1.75586-1.17285-3.90234-1.17285-6.44141,0-2.69727.47656-4.97607,1.42773-6.83447.95215-1.8584,2.27832-3.26465,3.97852-4.21582,1.7002-.95215,3.64941-1.42871,5.84766-1.42871,1.13379,0,2.21582.11426,3.24707.33984,1.03125.22754,1.9209.57812,2.66895,1.05469l-1.29199,2.65137c-.61133-.42969-1.30859-.72461-2.09082-.88379-.78223-.1582-1.60352-.23828-2.46484-.23828-2.42578,0-4.35254.75391-5.78027,2.26172s-2.1416,3.74512-2.1416,6.71533c0,.47461.02246,1.04297.06738,1.69922.0459.6582.15918,1.30469.34082,1.9375l-1.15625-1.15625c.33984-1.04102.87793-1.91992,1.61523-2.63477.73633-.71289,1.62012-1.24609,2.65137-1.59766s2.14746-.52734,3.34961-.52734c1.58594,0,2.99121.29492,4.21582.88477,1.22363.58984,2.18652,1.42188,2.88965,2.49805.70215,1.07812,1.05371,2.35352,1.05371,3.82617,0,1.51758-.37402,2.84375-1.12109,3.97852-.74805,1.13281-1.75684,2.00586-3.02637,2.61719s-2.69824.91797-4.28418.91797ZM562.3635,123.64648c1.04199,0,1.95508-.19141,2.73633-.57812.78223-.38477,1.39941-.92383,1.85352-1.61523.45312-.69141.67969-1.50195.67969-2.43164,0-1.4043-.4873-2.51953-1.46191-3.34766s-2.30078-1.24219-3.97754-1.24219c-1.08789,0-2.04004.20508-2.85645.61328-.81543.4082-1.45605.95703-1.9209,1.64844s-.69727,1.47852-.69727,2.36328c0,.81641.21582,1.57031.64648,2.26172.42969.69141,1.06543,1.25195,1.9043,1.68164.83789.43164,1.86914.64648,3.09375.64648Z"/><path class="uuid-22353085-15e2-4fd0-8d76-9be6fbecc5ae" d="M578.64866,115.11328c-1.08789,0-2.05176-.27344-2.88965-.81641-.83887-.54492-1.49121-1.30273-1.95508-2.2793-.46484-.97266-.69727-2.10693-.69727-3.39893s.23242-2.42578.69727-3.40039c.46387-.97461,1.11621-1.7334,1.95508-2.27832.83789-.54395,1.80176-.81543,2.88965-.81543,1.11035,0,2.0791.27148,2.90723.81543.82715.54492,1.4668,1.29785,1.9209,2.26172.45312.96387.67969,2.10254.67969,3.41699,0,1.29199-.22656,2.42627-.67969,3.39893-.4541.97656-1.09375,1.73438-1.9209,2.2793-.82812.54297-1.79688.81641-2.90723.81641ZM578.68284,113.17383c1.01953,0,1.82422-.40234,2.41406-1.20703.58887-.80273.88379-1.92041.88379-3.34814,0-1.42871-.29492-2.54395-.88379-3.34961-.58984-.80371-1.39453-1.20703-2.41406-1.20703-1.04297,0-1.86426.40332-2.46484,1.20703-.60059.80566-.90137,1.9209-.90137,3.34961,0,1.40527.30078,2.51611.90137,3.33252.60059.81445,1.42188,1.22266,2.46484,1.22266ZM576.74534,126.12891l16.25195-23.80029h2.61719l-16.25195,23.80029h-2.61719ZM593.71116,126.33203c-1.08789,0-2.05176-.27148-2.89062-.81641-.83887-.54297-1.48438-1.30273-1.9375-2.27734-.4541-.97461-.68066-2.10742-.68066-3.40039,0-1.29102.22656-2.42383.68066-3.40039.45312-.97266,1.09863-1.73242,1.9375-2.27734.83887-.54297,1.80273-.81641,2.89062-.81641,1.11035,0,2.0791.27344,2.90625.81641.82715.54492,1.47363,1.30469,1.93848,2.27734.46387.97656.69727,2.10938.69727,3.40039,0,1.29297-.2334,2.42578-.69727,3.40039-.46484.97461-1.11133,1.73438-1.93848,2.27734-.82715.54492-1.7959.81641-2.90625.81641ZM593.71116,124.39453c1.01953,0,1.83008-.40234,2.43066-1.20703s.90137-1.92188.90137-3.34961c0-1.4043-.30078-2.51562-.90137-3.33203s-1.41113-1.22266-2.43066-1.22266c-1.02051,0-1.83105.40234-2.43164,1.20703s-.90039,1.91992-.90039,3.34766.2998,2.54492.90039,3.34961,1.41113,1.20703,2.43164,1.20703Z"/><path class="uuid-22353085-15e2-4fd0-8d76-9be6fbecc5ae" d="M200.54221,150.79492v-2.68555h11.49219v2.68555h-11.49219ZM203.60276,166.12891v-19.61914c0-1.76758.51465-3.17773,1.54688-4.23242,1.03125-1.05469,2.49902-1.58008,4.40234-1.58008.70312,0,1.37793.08398,2.02344.25391.64648.16992,1.19531.4375,1.64941.79883l-.98633,2.48242c-.33984-.27148-.72559-.48047-1.15625-.62891-.43066-.14648-.88379-.2207-1.35938-.2207-.95215,0-1.67773.26562-2.17676.79883-.49805.5332-.74805,1.32031-.74805,2.36328v2.41406l.06836,1.49609v15.67383h-3.26367Z"/><path class="uuid-22353085-15e2-4fd0-8d76-9be6fbecc5ae" d="M215.12815,166.12891v-18.01953h3.12793v4.89453l-.30566-1.22266c.49805-1.24805,1.33691-2.19922,2.51562-2.85742,1.17871-.65625,2.62988-.98633,4.35254-.98633v3.16211c-.13574-.02148-.2666-.0332-.3916-.0332h-.35645c-1.74609,0-3.12793.52148-4.14844,1.56445-1.01953,1.04297-1.5293,2.54883-1.5293,4.52148v8.97656h-3.26465Z"/><path class="uuid-22353085-15e2-4fd0-8d76-9be6fbecc5ae" d="M236.78538,166.33203c-1.79004,0-3.39453-.39648-4.81055-1.18945-1.41699-.79297-2.5332-1.88672-3.34863-3.28125-.81641-1.39453-1.22461-2.97461-1.22461-4.74219,0-1.79102.4082-3.37109,1.22461-4.74414.81543-1.37109,1.92578-2.45312,3.33203-3.24609,1.4043-.79297,3.01367-1.19141,4.82715-1.19141,1.79102,0,3.39453.39258,4.81152,1.17383,1.41602.78125,2.52734,1.86523,3.33203,3.24805s1.20703,2.96875,1.20703,4.75977-.40234,3.37695-1.20703,4.75977-1.91602,2.4707-3.33203,3.26367c-1.41699.79297-3.02051,1.18945-4.81152,1.18945ZM236.78538,163.47656c1.15625,0,2.19336-.25977,3.11133-.78125s1.6377-1.26367,2.15918-2.22852c.52148-.96289.78223-2.07812.78223-3.34766,0-1.29297-.26074-2.4082-.78223-3.34961-.52148-.93945-1.24121-1.67188-2.15918-2.19336s-1.95508-.78125-3.11133-.78125c-1.15527,0-2.1875.25977-3.09375.78125s-1.63184,1.25391-2.17578,2.19336c-.54395.94141-.81641,2.05664-.81641,3.34961,0,1.26953.27246,2.38477.81641,3.34766.54395.96484,1.26953,1.70703,2.17578,2.22852s1.93848.78125,3.09375.78125Z"/><path class="uuid-22353085-15e2-4fd0-8d76-9be6fbecc5ae" d="M273.19944,147.9375c1.4502,0,2.73145.28516,3.8418.85156s1.97754,1.42773,2.60156,2.58398c.62305,1.15625.93457,2.61719.93457,4.38477v10.37109h-3.26367v-9.99609c0-1.74609-.4082-3.06055-1.22363-3.94531-.81641-.88281-1.96094-1.32422-3.43457-1.32422-1.08789,0-2.04004.22656-2.85547.67969-.81641.45312-1.44531,1.12109-1.8877,2.00586-.44141.88281-.66309,1.98242-.66309,3.29688v9.2832h-3.26367v-9.99609c0-1.74609-.40234-3.06055-1.20703-3.94531-.80469-.88281-1.95508-1.32422-3.45117-1.32422-1.06543,0-2.00586.22656-2.82129.67969-.81641.45312-1.45117,1.12109-1.9043,2.00586-.4541.88281-.67969,1.98242-.67969,3.29688v9.2832h-3.26465v-18.01953h3.12793v4.79297l-.50977-1.22461c.56641-1.17773,1.43945-2.0957,2.61816-2.75391,1.17871-.65625,2.5498-.98633,4.11426-.98633,1.72168,0,3.20703.42578,4.4541,1.27539,1.24609.84961,2.06152,2.13672,2.44727,3.85938l-1.32617-.54297c.54492-1.38281,1.49609-2.49414,2.85645-3.33203,1.36035-.83984,2.94629-1.25977,4.75977-1.25977Z"/><path class="uuid-22353085-15e2-4fd0-8d76-9be6fbecc5ae" d="M295.74045,166.12891v-25.22852h3.26465v25.22852h-3.26465Z"/><path class="uuid-22353085-15e2-4fd0-8d76-9be6fbecc5ae" d="M310.49631,166.33203c-1.33789,0-2.51074-.22656-3.51953-.67969s-1.78516-1.08203-2.3291-1.88672-.81543-1.7168-.81543-2.73633c0-.97461.23242-1.85938.69727-2.65234.46387-.79297,1.22363-1.42773,2.27734-1.9043s2.47656-.71484,4.26758-.71484h5.71191v2.3457h-5.57617c-1.63184,0-2.73145.27344-3.29785.81641-.56738.54492-.85059,1.20312-.85059,1.97266,0,.88477.35156,1.5918,1.05469,2.125.70215.5332,1.67676.79883,2.92383.79883,1.22363,0,2.29492-.27148,3.21289-.81641.91797-.54297,1.58105-1.33594,1.98926-2.37891l.64551,2.24414c-.43066,1.06445-1.18945,1.9082-2.27832,2.53125-1.08789.625-2.45898.93555-4.11328.93555ZM316.41233,166.12891v-3.80859l-.16992-.71484v-6.49219c0-1.38281-.40332-2.45508-1.20703-3.21289-.80469-.75977-2.01172-1.14062-3.62109-1.14062-1.06543,0-2.1084.17578-3.12793.52734-1.02051.35156-1.88184.82227-2.58398,1.41211l-1.36035-2.44922c.92871-.74805,2.04492-1.32031,3.34863-1.7168s2.66895-.5957,4.09766-.5957c2.46973,0,4.37402.60156,5.71191,1.80273,1.33691,1.20117,2.00586,3.03711,2.00586,5.50781v10.88086h-3.09375Z"/><path class="uuid-22353085-15e2-4fd0-8d76-9be6fbecc5ae" d="M330.72581,166.33203c-1.49609,0-2.91797-.20312-4.2666-.61133s-2.40918-.90625-3.17871-1.49609l1.35938-2.58398c.77051.52148,1.72266.96289,2.85645,1.32617,1.13281.36328,2.28906.54297,3.46777.54297,1.51855,0,2.6123-.21484,3.28125-.64453.66797-.43164,1.00293-1.03125,1.00293-1.80273,0-.56641-.2041-1.00781-.6123-1.32617-.4082-.31641-.94629-.55469-1.61523-.71484-.66895-.1582-1.41016-.29883-2.22656-.42383s-1.63184-.2832-2.44824-.47656c-.81543-.19141-1.56348-.46484-2.24414-.81641-.67969-.34961-1.22363-.83789-1.63184-1.46094s-.6123-1.45703-.6123-2.5c0-1.08789.30664-2.03906.91797-2.85547.6123-.81641,1.47949-1.44531,2.60156-1.88672s2.45312-.66406,3.99512-.66406c1.17773,0,2.37402.14258,3.58691.42578,1.21191.2832,2.2041.68555,2.97461,1.20703l-1.39355,2.58398c-.81641-.54297-1.66602-.91797-2.5498-1.12109-.88477-.20508-1.76855-.30664-2.65234-.30664-1.42773,0-2.49414.23242-3.19629.69727s-1.05371,1.05859-1.05371,1.78516c0,.61133.20898,1.08203.62891,1.41016.41895.33008.96289.58398,1.63184.76562s1.41113.33398,2.22754.45898c.81543.125,1.63184.2832,2.44727.47656.81641.19141,1.55859.45898,2.22754.79883.66797.33984,1.21191.81445,1.63184,1.42773.41895.61133.62891,1.42773.62891,2.44727,0,1.08789-.31738,2.0293-.95215,2.82227s-1.5293,1.41016-2.68555,1.85352c-1.15625.44141-2.53906.66211-4.14844.66211Z"/><path class="uuid-22353085-15e2-4fd0-8d76-9be6fbecc5ae" d="M340.00803,150.79492v-2.68555h11.49219v2.68555h-11.49219ZM348.78049,166.33203c-1.81348,0-3.21875-.48633-4.21582-1.46094-.99805-.97461-1.49609-2.36914-1.49609-4.18359v-16.52344h3.26367v16.38867c0,.97461.24316,1.72266.73145,2.24414.48633.52148,1.18359.78125,2.09082.78125,1.01953,0,1.87012-.2832,2.5498-.84961l1.01953,2.3457c-.49805.43164-1.09375.74805-1.78418.95312-.69238.20312-1.41113.30469-2.15918.30469Z"/><path class="uuid-22353085-15e2-4fd0-8d76-9be6fbecc5ae" d="M388.35471,147.9375c1.4502,0,2.73145.28516,3.8418.85156s1.97754,1.42773,2.60156,2.58398c.62305,1.15625.93457,2.61719.93457,4.38477v10.37109h-3.26367v-9.99609c0-1.74609-.4082-3.06055-1.22363-3.94531-.81641-.88281-1.96094-1.32422-3.43457-1.32422-1.08789,0-2.04004.22656-2.85547.67969-.81641.45312-1.44531,1.12109-1.8877,2.00586-.44141.88281-.66309,1.98242-.66309,3.29688v9.2832h-3.26367v-9.99609c0-1.74609-.40234-3.06055-1.20703-3.94531-.80469-.88281-1.95508-1.32422-3.45117-1.32422-1.06543,0-2.00586.22656-2.82129.67969-.81641.45312-1.45117,1.12109-1.9043,2.00586-.4541.88281-.67969,1.98242-.67969,3.29688v9.2832h-3.26465v-18.01953h3.12793v4.79297l-.50977-1.22461c.56641-1.17773,1.43945-2.0957,2.61816-2.75391,1.17871-.65625,2.5498-.98633,4.11426-.98633,1.72168,0,3.20703.42578,4.4541,1.27539,1.24609.84961,2.06152,2.13672,2.44727,3.85938l-1.32617-.54297c.54492-1.38281,1.49609-2.49414,2.85645-3.33203,1.36035-.83984,2.94629-1.25977,4.75977-1.25977Z"/><path class="uuid-22353085-15e2-4fd0-8d76-9be6fbecc5ae" d="M409.46799,166.33203c-1.79004,0-3.39453-.39648-4.81055-1.18945-1.41699-.79297-2.5332-1.88672-3.34863-3.28125-.81641-1.39453-1.22461-2.97461-1.22461-4.74219,0-1.79102.4082-3.37109,1.22461-4.74414.81543-1.37109,1.92578-2.45312,3.33203-3.24609,1.4043-.79297,3.01367-1.19141,4.82715-1.19141,1.79102,0,3.39453.39258,4.81152,1.17383,1.41602.78125,2.52734,1.86523,3.33203,3.24805s1.20703,2.96875,1.20703,4.75977-.40234,3.37695-1.20703,4.75977-1.91602,2.4707-3.33203,3.26367c-1.41699.79297-3.02051,1.18945-4.81152,1.18945ZM409.46799,163.47656c1.15625,0,2.19336-.25977,3.11133-.78125s1.6377-1.26367,2.15918-2.22852c.52148-.96289.78223-2.07812.78223-3.34766,0-1.29297-.26074-2.4082-.78223-3.34961-.52148-.93945-1.24121-1.67188-2.15918-2.19336s-1.95508-.78125-3.11133-.78125c-1.15527,0-2.1875.25977-3.09375.78125s-1.63184,1.25391-2.17578,2.19336c-.54395.94141-.81641,2.05664-.81641,3.34961,0,1.26953.27246,2.38477.81641,3.34766.54395.96484,1.26953,1.70703,2.17578,2.22852s1.93848.78125,3.09375.78125Z"/><path class="uuid-22353085-15e2-4fd0-8d76-9be6fbecc5ae" d="M432.96213,147.9375c1.47363,0,2.77148.28516,3.89355.85156s2,1.42773,2.63477,2.58398c.63379,1.15625.95215,2.61719.95215,4.38477v10.37109h-3.26465v-9.99609c0-1.74609-.4248-3.06055-1.27441-3.94531-.85059-.88281-2.0459-1.32422-3.58691-1.32422-1.15625,0-2.16504.22656-3.02637.67969s-1.52441,1.12109-1.98926,2.00586c-.46484.88281-.69629,1.98242-.69629,3.29688v9.2832h-3.26465v-18.01953h3.12793v4.86133l-.50977-1.29297c.58887-1.17773,1.49609-2.0957,2.71973-2.75391,1.22461-.65625,2.65234-.98633,4.28418-.98633Z"/><path class="uuid-22353085-15e2-4fd0-8d76-9be6fbecc5ae" d="M443.91038,150.79492v-2.68555h11.49219v2.68555h-11.49219ZM452.68284,166.33203c-1.81348,0-3.21875-.48633-4.21582-1.46094-.99805-.97461-1.49609-2.36914-1.49609-4.18359v-16.52344h3.26367v16.38867c0,.97461.24316,1.72266.73145,2.24414.48633.52148,1.18359.78125,2.09082.78125,1.01953,0,1.87012-.2832,2.5498-.84961l1.01953,2.3457c-.49805.43164-1.09375.74805-1.78418.95312-.69238.20312-1.41113.30469-2.15918.30469Z"/><path class="uuid-22353085-15e2-4fd0-8d76-9be6fbecc5ae" d="M470.19163,147.9375c1.47363,0,2.77148.28516,3.89355.85156s2,1.42773,2.63477,2.58398c.63379,1.15625.95215,2.61719.95215,4.38477v10.37109h-3.26465v-9.99609c0-1.74609-.4248-3.06055-1.27441-3.94531-.85059-.88281-2.0459-1.32422-3.58691-1.32422-1.15625,0-2.16504.22656-3.02637.67969s-1.52441,1.12109-1.98926,2.00586c-.46484.88281-.69629,1.98242-.69629,3.29688v9.2832h-3.26465v-25.22852h3.26465v12.07031l-.64648-1.29297c.58887-1.17773,1.49609-2.0957,2.71973-2.75391,1.22461-.65625,2.65234-.98633,4.28418-.98633Z"/><path class="uuid-22353085-15e2-4fd0-8d76-9be6fbecc5ae" d="M484.50608,166.33203c-.63477,0-1.17871-.2207-1.63184-.66211-.4541-.44336-.67969-1.00391-.67969-1.68359s.22559-1.23438.67969-1.66602c.45312-.42969.99707-.64648,1.63184-.64648.6123,0,1.13867.2168,1.58105.64648.44238.43164.66309.98633.66309,1.66602s-.2207,1.24023-.66309,1.68359c-.44238.44141-.96875.66211-1.58105.66211Z"/><path class="uuid-24592ef4-5ef1-4b33-9540-9eb64b6913bd" d="M765,46.74463v16.60538h-70.56022c1.39155-1.22882,3.15229-2.22535,5.92078-2.63608,9.11574-1.35115,8.47607-7.76459,16.15986-7.76459,7.59739,0,6.92294,5.64921,16.15986,5.64921,6.15198,0,10.16389-1.6115,16.15986-6.88252,3.54396-3.11526,10.27386-6.86121,16.15986-4.97141Z"/><path class="uuid-79d85382-d9f6-4ab3-bba1-af312677e57a" d="M765,45.11614v1.62832c-5.886-1.8898-12.6159,1.85614-16.15986,4.97141-5.99597,5.27103-10.00788,6.88252-16.15986,6.88252-9.23692,0-8.56247-5.64921-16.15986-5.64921-7.68379,0-7.04412,6.41344-16.15986,7.76459-8.72631,1.29503-7.43801,8.4121-16.15986,10.24805v-8.9575c5.54487.29738,6.93753-5.3148,16.15986-5.10494,8.27744.18853,8.47607-9.91026,16.15986-9.94842,7.72981-.03703,6.92294,3.23534,16.15986,3.23534,8.87222,0,8.17758-9.44567,16.15986-9.44567,6.53352,0,10.27386,2.4857,16.15986,4.37551Z"/><path class="uuid-c26a18ce-de65-4c2a-ad4a-3cfcf0df5359" d="M765,41.77531v3.34083c-5.886-1.88981-9.62634-4.37551-16.15986-4.37551-7.98228,0-7.28764,9.44567-16.15986,9.44567-9.23692,0-8.43005-3.27238-16.15986-3.23534-7.68379.03816-7.88242,10.13695-16.15986,9.94842-9.22233-.20985-10.61499,5.40233-16.15986,5.10494v-6.63003c4.94335.19976,7.00038-6.25858,16.15986-6.46282,8.62084-.19302,8.47607-4.86815,16.15986-4.90631,7.72981-.03703,6.92294,4.20942,16.15986,4.20942,8.87222.00112,8.17758-12.34658,16.15986-12.34658,6.53352,0,9.7958,5.31031,16.15986,5.90733Z"/><g class="uuid-b94b23e7-20fc-4f1c-a55d-1d2d6826ef15"><line class="uuid-38e65cf5-3754-43e1-912c-b3cd6227ea79" x1="684.20066" y1="63.35014" x2="684.874" y2="63.35014"/><line class="uuid-06034e31-7e48-42a6-aaf3-69dbfdb12fc4" x1="686.22068" y1="63.35014" x2="763.6533" y2="63.35014"/><line class="uuid-38e65cf5-3754-43e1-912c-b3cd6227ea79" x1="764.32664" y1="63.35014" x2="764.99998" y2="63.35014"/></g><path class="uuid-044ccdf7-0d46-4357-989f-6ae01e951d57" d="M684.2007,70.94933c8.72215-1.83644,7.43384-8.95404,16.15986-10.24821,9.1163-1.35206,8.47666-7.76459,16.15986-7.76465,7.59778-.00006,6.92331,5.64899,16.15986,5.64899,6.15232,0,10.16455-1.61199,16.15986-6.88217,3.5438-3.11518,10.27367-6.86118,16.15986-4.97187"/><path class="uuid-0cee3084-8837-49e4-ae5f-be482fcb22bf" d="M684.2007,61.99073c5.54453.29838,6.93777-5.31433,16.15986-5.10446,8.27779.18838,8.47675-9.91056,16.15986-9.9478,7.72961-.03746,6.92331,3.2352,16.15986,3.23527,8.87186.00007,8.17747-9.44616,16.15986-9.44608,6.53381.00007,10.27367,2.48594,16.15986,4.37525"/><path class="uuid-1a9a825d-91ae-41d4-9eff-c59719067251" d="M684.2007,55.36157c4.94383.19894,7.00053-6.25874,16.15986-6.46346,8.6205-.19267,8.47675-4.86834,16.15986-4.90558,7.72961-.03746,6.92331,4.20944,16.15986,4.20951,8.87186.00007,8.17747-12.3469,16.15986-12.34682,6.53381.00007,9.79586,5.31025,16.15986,5.90681"/><circle class="uuid-c7d1e963-25b3-4eb3-9e07-a98c5501eb2c" cx="700.39891" cy="48.88875" r=".89777"/><circle class="uuid-16ffb20a-adcb-492f-83b5-2b025f8b62a5" cx="700.3586" cy="56.90654" r=".89777"/><circle class="uuid-a338f667-9dda-4cf3-9475-be6635b3363e" cx="700.3586" cy="60.71002" r=".89777"/><circle class="uuid-a338f667-9dda-4cf3-9475-be6635b3363e" cx="716.52042" cy="52.94753" r=".89777"/><circle class="uuid-a338f667-9dda-4cf3-9475-be6635b3363e" cx="732.68028" cy="58.58552" r=".89777"/><circle class="uuid-a338f667-9dda-4cf3-9475-be6635b3363e" cx="748.84014" cy="51.68913" r=".89777"/><circle class="uuid-16ffb20a-adcb-492f-83b5-2b025f8b62a5" cx="716.52042" cy="46.92965" r=".89777"/><circle class="uuid-16ffb20a-adcb-492f-83b5-2b025f8b62a5" cx="732.68028" cy="50.18093" r=".89777"/><circle class="uuid-16ffb20a-adcb-492f-83b5-2b025f8b62a5" cx="748.84014" cy="40.74384" r=".89777"/><circle class="uuid-c7d1e963-25b3-4eb3-9e07-a98c5501eb2c" cx="716.55877" cy="43.98244" r=".89777"/><circle class="uuid-c7d1e963-25b3-4eb3-9e07-a98c5501eb2c" cx="732.68028" cy="48.20642" r=".89777"/><circle class="uuid-c7d1e963-25b3-4eb3-9e07-a98c5501eb2c" cx="748.84014" cy="35.85958" r=".89777"/><circle class="uuid-c7d1e963-25b3-4eb3-9e07-a98c5501eb2c" cx="213.76831" cy="63.94802" r="13"/><path class="uuid-724098ed-eb3d-426f-8388-5959a940c400" d="M211.40486,69.64691l-5.35559-5.3561c-.14531-.14527-.14534-.38082-.00007-.52613.00002-.00002.00005-.00005.00007-.00007l1.31574-1.31534c.14531-.14529.38089-.14529.5262,0l3.77703,3.77703,7.97735-7.9772c.1453-.14529.38086-.14529.52616,0l1.31562,1.31511c.14532.14532.14532.38092,0,.52624h0s-9.55631,9.55646-9.55631,9.55646c-.14527.14531-.38082.14534-.52613.00007-.00003-.00003-.00005-.00005-.00007-.00007Z"/></svg>