<?xml version="1.0" encoding="UTF-8"?><svg id="uuid-e76c2131-9948-4f7b-9594-5ae26456ffb9" xmlns="http://www.w3.org/2000/svg" viewBox="0 0 100 100"><defs><style>.uuid-3c1435bf-65f0-4d0a-8c6e-be30e8950e1e{fill:#6f56e5;}.uuid-14ca12f7-4406-4bba-aa50-23530dbf8dc7{fill:#b6aaf1;}.uuid-400f04b5-5a4b-4746-929d-02acb0386263{fill:#e2ddfa;}</style></defs><circle class="uuid-400f04b5-5a4b-4746-929d-02acb0386263" cx="50" cy="50" r="50"/><path class="uuid-14ca12f7-4406-4bba-aa50-23530dbf8dc7" d="M22.5,59.06868l18.94572-12.18223,17.1105,5.144,18.94358-22.19876v38.50178c0,2.02497-1.64157,3.66653-3.66654,3.66653H26.16653c-2.02497,0-3.66652-1.64156-3.66653-3.66653v-9.26479Z"/><path class="uuid-3c1435bf-65f0-4d0a-8c6e-be30e8950e1e" d="M24.33657,60.90311c-1.01238.00093-1.83382-.819-1.83476-1.83138-.00055-.59361.28639-1.15073.76998-1.495l16.379-11.66291c.92127-.66026,2.09735-.85415,3.18181-.52456l15.0421,4.5223,16.34008-21.19715c.6162-.80325,1.76688-.95488,2.57014-.33868.80325.6162.95487,1.76689.33868,2.57013-.00164.00214-.00329.00428-.00494.00641l-16.33965,21.19716c-.93197,1.1996-2.50423,1.70491-3.96059,1.2729l-15.04074-4.52234-16.37901,11.663c-.30982.22152-.68123.34045-1.06209.34011Z"/></svg>