<svg xmlns="http://www.w3.org/2000/svg" viewBox="0 0 100 100">
  <defs>
    <style>
      .aacd3019-4432-4301-85a8-4d745b3e7244 {
        fill: #d4eaf6;
      }

      .efce47aa-b3fc-4c22-9679-a2ed731cbc43 {
        fill: #8ec8e8;
      }

      .a9f2944f-2b05-468c-b54b-697cec20edd7 {
        fill: #2697d4;
      }
    </style>
  </defs>
  
  <circle class="aacd3019-4432-4301-85a8-4d745b3e7244" cx="50" cy="50" r="50"/>
  <path class="efce47aa-b3fc-4c22-9679-a2ed731cbc43" d="M48.28,40.939l1.5259,32.8638L51.2374,40.939c12.5587-8.662,19.2019-9.39,19.2019-9.39L69.4768,54.46A34.2956,34.2956,0,0,0,49.8055,75.1174a33.07512,33.07512,0,0,0-19.7418-20.446L28.8665,31.5728C36.9886,33.0047,48.28,40.939,48.28,40.939Z"/>
  <path class="a9f2944f-2b05-468c-b54b-697cec20edd7" d="M20.9792,34.554l1.15,26.6432A35.21112,35.21112,0,0,1,48.6552,75.61,31.80757,31.80757,0,0,0,27.5285,56.69l-.7043-19.46A8.00461,8.00461,0,0,0,20.9792,34.554Z"/>
  <path class="a9f2944f-2b05-468c-b54b-697cec20edd7" d="M72.7632,37.23,72.059,56.69A31.73739,31.73739,0,0,0,50.9322,75.61,35.2114,35.2114,0,0,1,77.458,61.1972l1.15-26.6432A8.005,8.005,0,0,0,72.7632,37.23Z"/>
</svg>
