<svg xmlns="http://www.w3.org/2000/svg" viewBox="0 0 100 100">
  <defs>
    <style>
      .a5069fc4-a55d-49f7-b663-54df69860fde {
        fill: #daf6ea;
      }

      .eced3ad4-3a25-4929-a7ba-b30314dd7ac2 {
        fill: #8fe3bf;
      }

      .f28ea669-8a85-4dbb-bf82-69208d453102 {
        fill: #44d094;
      }
    </style>
  </defs>
  
  <circle class="a5069fc4-a55d-49f7-b663-54df69860fde" cx="50" cy="50" r="50"/>
  <g>
    <path class="eced3ad4-3a25-4929-a7ba-b30314dd7ac2" d="M68.3333,46.9484c5.446,0,9.39,2.3474,8.5916,5.2582l-3.169,13.1455a7.20641,7.20641,0,0,1-6.6432,5.07H64.4366a5.58531,5.58531,0,0,1-1.8544-.3051l4.3662-17.9812a5.68091,5.68091,0,0,0-1.1737-5L65.493,46.948Z"/>
    <path class="eced3ad4-3a25-4929-a7ba-b30314dd7ac2" d="M65.8451,31.1268A6.5728,6.5728,0,1,1,59.2723,37.7h0A6.5961,6.5961,0,0,1,65.8451,31.1268Z"/>
  </g>
  <g>
    <path class="f28ea669-8a85-4dbb-bf82-69208d453102" d="M53.4038,44.6009c7.4647,0,12.7464,3.216,11.737,7.2066L60.7981,69.8122a9.85921,9.85921,0,0,1-9.1549,7.1831H48.0751a9.71829,9.71829,0,0,1-9.0375-7.1831L34.8122,51.8075c-.939-3.9906,4.3662-7.2066,11.7371-7.2066Z"/>
    <circle class="f28ea669-8a85-4dbb-bf82-69208d453102" cx="50" cy="31.9953" r="8.9906"/>
  </g>
  <g>
    <path class="eced3ad4-3a25-4929-a7ba-b30314dd7ac2" d="M34.1549,31.1268a6.5727,6.5727,0,1,1-6.5492,6.5962V37.7A6.5727,6.5727,0,0,1,34.1549,31.1268Z"/>
    <path class="eced3ad4-3a25-4929-a7ba-b30314dd7ac2" d="M37.277,70.2113h0a5.58517,5.58517,0,0,1-1.8545.3051H32.8639a7.04219,7.04219,0,0,1-6.5963-5.2347L23.1925,52.1361c-.7981-2.84,3.0751-5.1877,8.5211-5.1877h2.8169l-.2817.3521a5.72788,5.72788,0,0,0-1.1972,4.9765Z"/>
  </g>
</svg>
