<svg xmlns="http://www.w3.org/2000/svg" viewBox="0 0 100 100">
  <defs>
    <style>
      .fb853d2a-9624-4df5-8af5-c66098a7ee4d {
        fill: #e4e6ec;
      }

      .ed53abea-0018-4b16-abf1-c2068ffae641 {
        fill: #b8becd;
      }

      .e184ea24-f671-48ee-8b95-cbf13cbe267a {
        fill: #7882a0;
      }
    </style>
  </defs>
  
  <circle class="fb853d2a-9624-4df5-8af5-c66098a7ee4d" cx="50" cy="50" r="50"/>
  <path class="ed53abea-0018-4b16-abf1-c2068ffae641" d="M70.0235,64.2488H67.6761V43.2864h2.3474a1.50229,1.50229,0,0,0,1.50229-1.5023v-1.878a1.50229,1.50229,0,0,0-1.50229-1.5023H30.2582a1.5023,1.5023,0,0,0-1.5023,1.5023h0v1.9718A1.5023,1.5023,0,0,0,30.2582,43.38H31.784V64.3427H30.2582A1.50229,1.50229,0,0,0,28.7559,65.845V69.0376H27.5117a1.50229,1.50229,0,0,0-1.5023,1.50229V72.5118a1.47891,1.47891,0,0,0,1.4787,1.47911H72.5117a1.4789,1.4789,0,0,0,1.4789-1.4789V70.4225A1.5023,1.5023,0,0,0,72.5117,68.92h-.9859V65.7277A1.5024,1.5024,0,0,0,70.0235,64.2488Zm-22.77,0V43.2864h5.2348V64.2488Zm15.446,0H57.4413V43.2864H62.7ZM36.8779,43.2864h5.2348V64.2488H36.7606Z"/>
  <path class="e184ea24-f671-48ee-8b95-cbf13cbe267a" d="M72.77,31.69,51.385,26.2676a6.28993,6.28993,0,0,0-2.9578,0L27.1361,31.69a1.47891,1.47891,0,0,0-1.1267,1.4554V35.493a1.5023,1.5023,0,0,0,1.5023,1.5023h45a1.5023,1.5023,0,0,0,1.4789-1.5023V33.1455A1.479,1.479,0,0,0,72.77,31.69Z"/>
</svg>
