<?xml version="1.0" encoding="UTF-8"?><svg id="uuid-874911f1-285e-430f-a6c1-452f1bc3b46e" xmlns="http://www.w3.org/2000/svg" viewBox="0 0 720 323"><defs><style>.uuid-b6ce5f98-639b-4bc8-8057-bb3a1c9be747,.uuid-6e6ddca3-0897-4b39-8348-ef56c9be3021,.uuid-9ea27af6-d26d-459d-a3f6-f7e31d81f7b1,.uuid-9e47acad-90c5-4973-86ac-70592ade1935,.uuid-b59864a9-4783-4b9a-961a-c310faab851d{fill:none;stroke-miterlimit:10;}.uuid-b6ce5f98-639b-4bc8-8057-bb3a1c9be747,.uuid-6e6ddca3-0897-4b39-8348-ef56c9be3021,.uuid-9e47acad-90c5-4973-86ac-70592ade1935{stroke:#767ead;}.uuid-b6ce5f98-639b-4bc8-8057-bb3a1c9be747,.uuid-9e47acad-90c5-4973-86ac-70592ade1935{stroke-width:2px;}.uuid-6e6ddca3-0897-4b39-8348-ef56c9be3021,.uuid-9ea27af6-d26d-459d-a3f6-f7e31d81f7b1,.uuid-b59864a9-4783-4b9a-961a-c310faab851d{stroke-linecap:round;stroke-width:5px;}.uuid-9ea27af6-d26d-459d-a3f6-f7e31d81f7b1{stroke:#2697d4;}.uuid-4c4fee77-c2ca-4287-932d-0ccf0ff230d4,.uuid-bb233c3c-4d75-4247-931f-74c200feae49,.uuid-3713141b-5349-4432-ab7c-5130055195dc{fill:#2697d4;}.uuid-9648dfeb-faaf-4e78-8c54-8a2c65f2e49b,.uuid-48bd69ac-a7e4-467c-9969-61fdf88d479a{fill:#44d094;}.uuid-bb233c3c-4d75-4247-931f-74c200feae49{opacity:.16;}.uuid-3713141b-5349-4432-ab7c-5130055195dc,.uuid-37c4928b-3fc3-48b4-95dd-c6d4145bdf83,.uuid-48bd69ac-a7e4-467c-9969-61fdf88d479a{opacity:.25;}.uuid-9e47acad-90c5-4973-86ac-70592ade1935{stroke-dasharray:12 12;}.uuid-fb997d22-d54a-4e3f-ac38-41cbf4f7404e{opacity:.3;}.uuid-b59864a9-4783-4b9a-961a-c310faab851d{stroke:#44d094;}.uuid-ab1cc150-027c-4b15-913a-a88a44bb55cd,.uuid-ca56cb62-2889-47e1-80cc-ac734d2be0ca,.uuid-37c4928b-3fc3-48b4-95dd-c6d4145bdf83{fill:#767ead;}.uuid-ca56cb62-2889-47e1-80cc-ac734d2be0ca{opacity:.12;}</style></defs><path class="uuid-3713141b-5349-4432-ab7c-5130055195dc" d="M720,104.99629v147.97003H91.24011c12.40002-10.95001,28.08997-19.83002,52.75989-23.48999,81.2301-12.04004,75.53003-69.19,144-69.19,67.70007,0,61.69006,50.33997,144,50.33997,54.82007,0,90.57007-14.35999,144-61.32996,31.58008-27.76001,91.55005-61.14001,144-44.30005Z"/><path class="uuid-bb233c3c-4d75-4247-931f-74c200feae49" d="M91.24177,252.96633C64.55171,276.51631,53.06172,309.6263.00166,320.79634v-67.83002h91.24011Z"/><path class="uuid-ca56cb62-2889-47e1-80cc-ac734d2be0ca" d="M91.24177,252.96633C64.55171,276.51631,53.06172,309.6263.00166,320.79634v-67.83002h91.24011Z"/><path class="uuid-37c4928b-3fc3-48b4-95dd-c6d4145bdf83" d="M720,90.48486v14.50995c-52.44995-16.83997-112.41992,16.54004-144,44.30005-53.42993,46.96997-89.17993,61.32996-144,61.32996-82.30994,0-76.29993-50.33997-144-50.33997-68.46997,0-62.7699,57.14996-144,69.19-77.75989,11.53998-66.27991,74.95996-144,91.32001v-79.82001c49.41016,2.64996,61.82007-47.35999,144-45.48999,73.76001,1.67999,75.53003-88.31,144-88.65002,68.88013-.33002,61.69006,28.83002,144,28.83002,79.06006,0,72.87012-84.17004,144-84.17004,58.21997,0,91.55005,22.15002,144,38.99005Z"/><path class="uuid-48bd69ac-a7e4-467c-9969-61fdf88d479a" d="M720,60.71484v29.77002c-52.44995-16.84003-85.78003-38.99005-144-38.99005-71.12988,0-64.93994,84.17004-144,84.17004-82.30994,0-75.11987-29.16003-144-28.83002-68.46997.34003-70.23999,90.33002-144,88.65002-82.17993-1.87-94.58984,48.13995-144,45.48999v-59.08002c44.05005,1.78003,62.38013-55.77002,144-57.59003,76.82007-1.71997,75.53003-43.37994,144-43.71997,68.88013-.33002,61.69006,37.51001,144,37.51001,79.06006.01001,72.87012-110.02002,144-110.02002,58.21997,0,87.29004,47.32001,144,52.64001Z"/><g class="uuid-fb997d22-d54a-4e3f-ac38-41cbf4f7404e"><line class="uuid-b6ce5f98-639b-4bc8-8057-bb3a1c9be747" x1="-.00005" y1="252.96748" x2="5.99995" y2="252.96748"/><line class="uuid-9e47acad-90c5-4973-86ac-70592ade1935" x1="17.99995" y1="252.96748" x2="707.99995" y2="252.96748"/><line class="uuid-b6ce5f98-639b-4bc8-8057-bb3a1c9be747" x1="713.99995" y1="252.96748" x2="719.99995" y2="252.96748"/></g><path class="uuid-9ea27af6-d26d-459d-a3f6-f7e31d81f7b1" d="M0,320.68364c77.72278-16.36445,66.24273-79.78913,144-91.32148,81.23509-12.04816,75.53526-69.18997,144-69.19055,67.70356-.00058,61.69341,50.33795,144,50.33795,54.82309,0,90.57597-14.36438,144-61.32683,31.57869-27.75928,91.54835-61.13979,144-44.3042"/><path class="uuid-6e6ddca3-0897-4b39-8348-ef56c9be3021" d="M0,240.85385c49.40714,2.65884,61.82223-47.35583,144-45.48565,73.76309,1.67869,75.53606-88.31268,144-88.6445,68.87827-.33383,61.69341,28.82879,144,28.8294,79.05688.00059,72.86915-84.17444,144-84.17373,58.22255.00058,91.54835,22.15209,144,38.98769"/><path class="uuid-b59864a9-4783-4b9a-961a-c310faab851d" d="M0,181.78158c44.05429,1.77276,62.38146-55.77141,144-57.59565,76.817-1.71691,75.53606-43.3816,144-43.71343,68.87827-.33383,61.69341,37.51023,144,37.51084,79.05688.00059,72.86915-110.0228,144-110.02209,58.22255.00058,87.29063,47.31949,144,52.63541"/><circle class="uuid-9648dfeb-faaf-4e78-8c54-8a2c65f2e49b" cx="144.34175" cy="124.10248" r="8"/><circle class="uuid-ab1cc150-027c-4b15-913a-a88a44bb55cd" cx="143.98257" cy="195.54876" r="8"/><circle class="uuid-4c4fee77-c2ca-4287-932d-0ccf0ff230d4" cx="143.98257" cy="229.44147" r="8"/><circle class="uuid-4c4fee77-c2ca-4287-932d-0ccf0ff230d4" cx="288" cy="160.27015" r="8"/><circle class="uuid-4c4fee77-c2ca-4287-932d-0ccf0ff230d4" cx="432" cy="210.51014" r="8"/><circle class="uuid-4c4fee77-c2ca-4287-932d-0ccf0ff230d4" cx="576" cy="149.05663" r="8"/><circle class="uuid-ab1cc150-027c-4b15-913a-a88a44bb55cd" cx="288" cy="106.645" r="8"/><circle class="uuid-ab1cc150-027c-4b15-913a-a88a44bb55cd" cx="432" cy="135.61708" r="8"/><circle class="uuid-ab1cc150-027c-4b15-913a-a88a44bb55cd" cx="576" cy="51.52347" r="8"/><circle class="uuid-9648dfeb-faaf-4e78-8c54-8a2c65f2e49b" cx="288.34175" cy="80.38251" r="8"/><circle class="uuid-9648dfeb-faaf-4e78-8c54-8a2c65f2e49b" cx="432" cy="118.02233" r="8"/><circle class="uuid-9648dfeb-faaf-4e78-8c54-8a2c65f2e49b" cx="576" cy="8" r="8"/></svg>