<?xml version="1.0" encoding="UTF-8"?><svg id="uuid-79850797-29ad-41f8-8d99-4d008b67bafb" xmlns="http://www.w3.org/2000/svg" viewBox="0 0 360 300"><defs><style>.uuid-7fd226bf-016f-4d25-9eeb-c3ff23b0c9de{fill:#f15270;}.uuid-1e06aacf-3b33-4611-b659-c0625de9a2e1{fill:#44d094;}</style></defs><path class="uuid-1e06aacf-3b33-4611-b659-c0625de9a2e1" d="M8.1875,83.33333h63.625c4.5188,0,8.1875,3.6687,8.1875,8.1875v91.8125H0v-91.8125c0-4.5188,3.6687-8.1875,8.1875-8.1875Z"/><path class="uuid-7fd226bf-016f-4d25-9eeb-c3ff23b0c9de" d="M0,183.33333h80v58.47917c0,4.5188-3.6687,8.1875-8.1875,8.1875H8.1875c-4.5188,0-8.1875-3.6687-8.1875-8.1875v-58.47917h0Z"/><path class="uuid-1e06aacf-3b33-4611-b659-c0625de9a2e1" d="M101.52083,0h63.625c4.5188,0,8.1875,3.6687,8.1875,8.1875v175.14583h-80V8.1875c0-4.5188,3.6687-8.1875,8.1875-8.1875Z"/><path class="uuid-7fd226bf-016f-4d25-9eeb-c3ff23b0c9de" d="M93.33333,183.33333h80v25.14583c0,4.5188-3.6687,8.1875-8.1875,8.1875h-63.625c-4.5188,0-8.1875-3.6687-8.1875-8.1875v-25.14583h0Z"/><path class="uuid-1e06aacf-3b33-4611-b659-c0625de9a2e1" d="M194.85417,116.66667h63.625c4.5188,0,8.1875,3.6687,8.1875,8.1875v58.47917h-80v-58.47917c0-4.5188,3.6687-8.1875,8.1875-8.1875Z"/><path class="uuid-7fd226bf-016f-4d25-9eeb-c3ff23b0c9de" d="M186.66667,183.33333h80v108.47917c0,4.5188-3.6687,8.1875-8.1875,8.1875h-63.625c-4.5188,0-8.1875-3.6687-8.1875-8.1875v-108.47917h0Z"/><path class="uuid-1e06aacf-3b33-4611-b659-c0625de9a2e1" d="M288.1875,66.66667h63.625c4.5188,0,8.1875,3.6687,8.1875,8.1875v108.47917h-80v-108.47917c0-4.5188,3.6687-8.1875,8.1875-8.1875Z"/><path class="uuid-7fd226bf-016f-4d25-9eeb-c3ff23b0c9de" d="M280,183.33333h80v41.8125c0,4.5188-3.6687,8.1875-8.1875,8.1875h-63.625c-4.5188,0-8.1875-3.6687-8.1875-8.1875v-41.8125h0Z"/></svg>