<?xml version="1.0" encoding="UTF-8"?><svg id="uuid-a1b7cffa-59b5-4c11-9c16-b308661ae269" xmlns="http://www.w3.org/2000/svg" viewBox="0 0 400 400"><defs><style>.uuid-b1fe2a5e-fefd-4337-ab3b-15f529fe3663{fill:#3c416d;}.uuid-b9a84fa1-c6ec-4fc2-aa8d-61a9190ac919{stroke-width:6px;}.uuid-b9a84fa1-c6ec-4fc2-aa8d-61a9190ac919,.uuid-b5cdb3e7-9bdb-4700-a39f-8976225d93ea,.uuid-2997db27-6095-48a6-bcb7-e4fb4c118708,.uuid-a939f909-af16-48f9-a426-27b4170bbec6{stroke:#767ead;stroke-miterlimit:10;}.uuid-b9a84fa1-c6ec-4fc2-aa8d-61a9190ac919,.uuid-a939f909-af16-48f9-a426-27b4170bbec6{fill:none;stroke-linecap:round;}.uuid-b5cdb3e7-9bdb-4700-a39f-8976225d93ea,.uuid-6f02bef8-7063-4eb9-a557-e6eccb00b2ac{fill:#b6bcdc;}.uuid-b5cdb3e7-9bdb-4700-a39f-8976225d93ea,.uuid-a939f909-af16-48f9-a426-27b4170bbec6{stroke-width:3px;}.uuid-ed814e70-861d-4329-ac3b-408cae980d30{fill:#ebeefa;}.uuid-2997db27-6095-48a6-bcb7-e4fb4c118708{fill:#f8db6d;}.uuid-2ec7bcfd-148f-409a-a353-753ef5a3006c{fill:#d2d7eb;}.uuid-8234301f-deac-47ee-a3dd-f32ec9a25d6f{fill:#767ead;}</style></defs><rect class="uuid-2ec7bcfd-148f-409a-a353-753ef5a3006c" x="78" y="217.31156" width="322" height="140" rx="11.67811" ry="11.67811"/><path class="uuid-b1fe2a5e-fefd-4337-ab3b-15f529fe3663" d="M96.88965,248.87169v-14h6.05957c1.25293,0,2.33301.2041,3.24023.61035.90625.40723,1.60645.99023,2.09961,1.75.49316.76074.74023,1.66016.74023,2.7002,0,1.05273-.24707,1.95703-.74023,2.70996s-1.19336,1.33691-2.09961,1.75c-.90723.41309-1.9873.62012-3.24023.62012h-4.2793l1.47949-1.45996v5.31934h-3.25977ZM100.14941,243.91271l-1.47949-1.54102h4.09961c.98633,0,1.7334-.21289,2.24023-.63965.50586-.42676.75977-1.02637.75977-1.7998s-.25391-1.37012-.75977-1.79004c-.50684-.41992-1.25391-.62988-2.24023-.62988h-4.09961l1.47949-1.54004v7.94043Z"/><path class="uuid-b1fe2a5e-fefd-4337-ab3b-15f529fe3663" d="M109.68945,248.87169l6.21973-14h3.2002l6.2793,14h-3.39941l-5.13965-12.35938h1.2998l-5.14062,12.35938h-3.31934ZM112.8291,245.87169l.82031-2.45898h7.23926l.84082,2.45898h-8.90039Z"/><path class="uuid-b1fe2a5e-fefd-4337-ab3b-15f529fe3663" d="M130.3291,248.87169v-5.71973l.74023,1.95996-6.17969-10.24023h3.45996l4.71973,7.83984h-1.97949l4.73926-7.83984h3.16016l-6.13965,10.24023.74023-1.95996v5.71973h-3.26074Z"/><path class="uuid-b1fe2a5e-fefd-4337-ab3b-15f529fe3663" d="M147.06934,249.11192c-1.08008,0-2.08398-.17676-3.01074-.5293-.92676-.35352-1.72949-.85742-2.40918-1.50977-.68066-.6543-1.20996-1.4209-1.59082-2.30078-.37988-.87988-.56934-1.84668-.56934-2.90039,0-1.05273.18945-2.01953.56934-2.89941.38086-.87988.91309-1.64648,1.60059-2.2998.68652-.65332,1.49316-1.15625,2.41992-1.50977s1.92969-.53125,3.00977-.53125c1.21289,0,2.31348.21094,3.2998.63086.9873.41992,1.81348,1.03711,2.48047,1.84961l-2.10059,1.91992c-.4668-.54688-.99609-.95898-1.58984-1.24023-.59277-.2793-1.23633-.41992-1.92969-.41992-.65332,0-1.25391.11035-1.7998.33008-.54688.2207-1.02051.53027-1.41992.92969-.40039.40039-.70996.87402-.93066,1.4209-.21973.54688-.33008,1.15332-.33008,1.81934,0,.66797.11035,1.27344.33008,1.82031.2207.54688.53027,1.01953.93066,1.41992.39941.40039.87305.71094,1.41992.92969.5459.2207,1.14648.33008,1.7998.33008.69336,0,1.33691-.14258,1.92969-.42969.59375-.28711,1.12305-.70312,1.58984-1.25l2.10059,1.91992c-.66699.81348-1.49316,1.43359-2.48047,1.86035-.98633.42676-2.09277.63965-3.31934.63965Z"/><path class="uuid-b1fe2a5e-fefd-4337-ab3b-15f529fe3663" d="M158.28906,248.87169h-3.25977v-14h3.25977v14ZM164.86914,243.13146h-6.83984v-2.73926h6.83984v2.73926ZM164.62891,234.87169h3.24023v14h-3.24023v-14Z"/><path class="uuid-b1fe2a5e-fefd-4337-ab3b-15f529fe3663" d="M174.4082,246.27208h7.62012v2.59961h-10.83984v-14h10.58008v2.60059h-7.36035v8.7998ZM174.16797,240.49278h6.74023v2.53906h-6.74023v-2.53906Z"/><path class="uuid-b1fe2a5e-fefd-4337-ab3b-15f529fe3663" d="M191.30859,249.11192c-1.08008,0-2.08398-.17676-3.01074-.5293-.92676-.35352-1.72949-.85742-2.40918-1.50977-.68066-.6543-1.20996-1.4209-1.59082-2.30078-.37988-.87988-.56934-1.84668-.56934-2.90039,0-1.05273.18945-2.01953.56934-2.89941.38086-.87988.91309-1.64648,1.60059-2.2998.68652-.65332,1.49316-1.15625,2.41992-1.50977s1.92969-.53125,3.00977-.53125c1.21289,0,2.31348.21094,3.2998.63086.9873.41992,1.81348,1.03711,2.48047,1.84961l-2.10059,1.91992c-.4668-.54688-.99609-.95898-1.58984-1.24023-.59277-.2793-1.23633-.41992-1.92969-.41992-.65332,0-1.25391.11035-1.7998.33008-.54688.2207-1.02051.53027-1.41992.92969-.40039.40039-.70996.87402-.93066,1.4209-.21973.54688-.33008,1.15332-.33008,1.81934,0,.66797.11035,1.27344.33008,1.82031.2207.54688.53027,1.01953.93066,1.41992.39941.40039.87305.71094,1.41992.92969.5459.2207,1.14648.33008,1.7998.33008.69336,0,1.33691-.14258,1.92969-.42969.59375-.28711,1.12305-.70312,1.58984-1.25l2.10059,1.91992c-.66699.81348-1.49316,1.43359-2.48047,1.86035-.98633.42676-2.09277.63965-3.31934.63965Z"/><path class="uuid-b1fe2a5e-fefd-4337-ab3b-15f529fe3663" d="M199.26855,248.87169v-14h3.21973v14h-3.21973ZM202.14844,245.67247l-.16016-3.74023,6.7002-7.06055h3.59961l-6.01953,6.5-1.83984,1.91992-2.28027,2.38086ZM208.84863,248.87169l-4.98047-6.08008,2.12012-2.31934,6.66016,8.39941h-3.7998Z"/><rect class="uuid-2997db27-6095-48a6-bcb7-e4fb4c118708" x="312.05662" y="233.96202" width="72" height="18" rx="4" ry="4"/><path class="uuid-8234301f-deac-47ee-a3dd-f32ec9a25d6f" d="M118.51953,331.62755c-3.73438,0-7.30371-.57031-10.70996-1.71484-3.40723-1.14258-6.08984-2.625-8.0498-4.44434l2.58984-5.45996c1.86621,1.63379,4.24609,2.98633,7.13965,4.05957,2.89355,1.07422,5.90332,1.61035,9.03027,1.61035,2.8457,0,5.15625-.32617,6.92969-.98047,1.77344-.65332,3.08008-1.55078,3.9209-2.69531.83984-1.14258,1.25977-2.4375,1.25977-3.88477,0-1.67969-.54883-3.0332-1.64551-4.05957s-2.51953-1.85547-4.26953-2.48535-3.6748-1.17773-5.77539-1.64453c-2.09961-.46582-4.21191-1.01562-6.33496-1.64551-2.12402-.62988-4.05957-1.43457-5.80957-2.41504-1.75-.97949-3.16211-2.29785-4.23535-3.95508-1.07422-1.65527-1.61035-3.79102-1.61035-6.4043,0-2.52051.66504-4.8418,1.99512-6.96582,1.33008-2.12305,3.38281-3.8252,6.16016-5.10938,2.77637-1.2832,6.31152-1.9248,10.60547-1.9248,2.8457,0,5.66992.37402,8.46973,1.11914,2.7998.74707,5.22559,1.82031,7.28027,3.2207l-2.31055,5.59961c-2.09961-1.39941-4.31641-2.41504-6.64941-3.04492-2.33398-.62988-4.59766-.94531-6.79004-.94531-2.75391,0-5.01758.35059-6.79004,1.05078-1.77441.69922-3.06934,1.63379-3.88574,2.7998-.81641,1.16699-1.22461,2.47363-1.22461,3.91992,0,1.72656.54785,3.10352,1.64551,4.12988,1.0957,1.02734,2.51953,1.84375,4.26953,2.4502s3.6748,1.1543,5.77539,1.64453c2.09961.49023,4.21094,1.03906,6.33496,1.64551,2.12305.60645,4.05957,1.39941,5.80957,2.37988,1.75.97949,3.16113,2.28711,4.23535,3.91992,1.07227,1.63379,1.60938,3.73438,1.60938,6.2998,0,2.47461-.67676,4.77246-2.0293,6.89551-1.35449,2.12402-3.44238,3.82617-6.26562,5.10938-2.82422,1.28418-6.38184,1.9248-10.6748,1.9248ZM116.76953,339.46837v-65.80078h4.48047v65.80078h-4.48047Z"/><line class="uuid-b9a84fa1-c6ec-4fc2-aa8d-61a9190ac919" x1="160.11992" y1="286.20063" x2="280.11992" y2="286.20063"/><line class="uuid-b9a84fa1-c6ec-4fc2-aa8d-61a9190ac919" x1="160.11992" y1="306.20063" x2="280.11992" y2="306.20063"/><line class="uuid-b9a84fa1-c6ec-4fc2-aa8d-61a9190ac919" x1="160.11992" y1="326.20063" x2="220.11992" y2="326.20063"/><circle class="uuid-b5cdb3e7-9bdb-4700-a39f-8976225d93ea" cx="348.05662" cy="306.20063" r="24"/><path class="uuid-a939f909-af16-48f9-a426-27b4170bbec6" d="M336.05662,305.71709l7.75332,7.75332c.39052.39052,1.02369.39052,1.41421,0l14.83246-14.83246"/><path class="uuid-ed814e70-861d-4329-ac3b-408cae980d30" d="M328.73649,53.92103v153.38955H89.67643c-11.94995,0-21.67993,9.72995-21.67993,21.67993v116.63966c0,11.95999,9.72998,21.67993,21.67993,21.67993h239.06006v13.58999c0,10.50998-8.6001,19.09992-19.1001,19.09992H55.68644c-10.5,0-19.08997-8.58994-19.08997-19.09992V53.92103c0-10.49997,8.58997-19.08991,19.08997-19.08991h253.94995c10.5,0,19.1001,8.58994,19.1001,19.08991Z"/><path class="uuid-b1fe2a5e-fefd-4337-ab3b-15f529fe3663" d="M84.02734,108.74767l-11.04004-33.59961h8.06445l9.55176,29.75977h-4.03223l9.98438-29.75977h7.2002l9.59961,29.75977h-3.8877l9.79199-29.75977h7.43945l-11.04004,33.59961h-8.25586l-8.54395-26.1123h2.20801l-8.73535,26.1123h-8.30469Z"/><path class="uuid-b1fe2a5e-fefd-4337-ab3b-15f529fe3663" d="M130.25195,98.23595v-6h13.58398v6h-13.58398Z"/><path class="uuid-b1fe2a5e-fefd-4337-ab3b-15f529fe3663" d="M147.86719,108.74767v-5.04004l12.95996-12.24023c1.02344-.92773,1.7832-1.75195,2.28027-2.47168.49512-.71973.82324-1.3916.9834-2.01562s.24023-1.20801.24023-1.75195c0-1.3125-.44824-2.33594-1.34375-3.07227-.89648-.73633-2.24023-1.10449-4.03223-1.10449-1.43945,0-2.75195.28809-3.93555.86426-1.18457.57617-2.19238,1.4248-3.02441,2.54395l-5.61621-3.64746c1.24805-1.91992,3.02441-3.43945,5.32812-4.56055,2.30371-1.11914,4.95996-1.67969,7.96777-1.67969,2.49609,0,4.6875.40039,6.57617,1.2002,1.8877.7998,3.35156,1.94336,4.39258,3.43164,1.03906,1.48828,1.55957,3.25684,1.55957,5.30371,0,1.05664-.15234,2.12891-.45605,3.21582-.30469,1.08887-.85645,2.22461-1.65625,3.4082-.7998,1.18457-1.98438,2.5127-3.55176,3.98438l-10.75195,10.08008-1.48828-2.78418h19.00879v6.33594h-25.44043Z"/><rect class="uuid-6f02bef8-7063-4eb9-a557-e6eccb00b2ac" x="73.11127" y="143.38688" width="103.78585" height="11.53173" rx="5.73703" ry="5.73703"/><rect class="uuid-6f02bef8-7063-4eb9-a557-e6eccb00b2ac" x="73.11127" y="177.98206" width="103.78585" height="11.53173" rx="5.73703" ry="5.73703"/><rect class="uuid-6f02bef8-7063-4eb9-a557-e6eccb00b2ac" x="199.96064" y="143.38688" width="92.25409" height="46.1269" rx="7.68782" ry="7.68782"/><path class="uuid-ed814e70-861d-4329-ac3b-408cae980d30" d="M0,346.07803V19.09323C0,8.59717,8.58675,0,19.09322,0h253.95149c10.49603,0,19.09322,8.59717,19.09322,19.09323v5.30022s-238.21756,0-238.21756,0c-16.27636,0-29.52685,13.25045-29.52685,29.5267v311.25111s-5.3003,0-5.3003,0C8.58675,365.17126,0,356.58453,0,346.07803Z"/></svg>