<?xml version="1.0" encoding="UTF-8"?><svg id="uuid-0ec7ce56-0e4e-419d-b4d6-bec43ce0b107" xmlns="http://www.w3.org/2000/svg" viewBox="0 0 327 400"><defs><style>.uuid-37ad3334-264e-44ce-a792-65d0d8f44065{fill:#3c416d;}.uuid-d1a6a0ad-9aac-46b9-a924-d188b1f3d44c{fill:#b6bcdc;}.uuid-22d23f50-d905-4fbc-847a-668634485fd8{fill:#ebeefa;}</style></defs><rect class="uuid-22d23f50-d905-4fbc-847a-668634485fd8" width="292.13794" height="365.17242" rx="19.09439" ry="19.09439"/><path class="uuid-37ad3334-264e-44ce-a792-65d0d8f44065" d="M42.39355,72.98985v-30.72021l3.36035,3.36035h-10.08008v-6.24023h14.49609v33.6001h-7.77637Z"/><path class="uuid-37ad3334-264e-44ce-a792-65d0d8f44065" d="M61.20996,72.98985v-30.72021l3.36035,3.36035h-10.08008v-6.24023h14.49609v33.6001h-7.77637Z"/><path class="uuid-37ad3334-264e-44ce-a792-65d0d8f44065" d="M74.55371,72.98985v-5.04004l12.95996-12.23975c1.02344-.92773,1.7832-1.75244,2.28027-2.47217.49512-.72021.82324-1.39209.9834-2.01611s.24023-1.20752.24023-1.75195c0-1.31152-.44824-2.33545-1.34375-3.07178-.89648-.73584-2.24023-1.104-4.03223-1.104-1.43945,0-2.75195.2876-3.93555.86377-1.18457.57617-2.19238,1.42432-3.02441,2.54395l-5.61621-3.64795c1.24805-1.91992,3.02441-3.43945,5.32812-4.56006,2.30371-1.11963,4.95996-1.67969,7.96777-1.67969,2.49609,0,4.6875.40039,6.57617,1.19971,1.8877.80029,3.35156,1.94385,4.39258,3.43213,1.03906,1.48779,1.55957,3.25635,1.55957,5.30371,0,1.05615-.15234,2.12891-.45605,3.21631-.30469,1.08838-.85645,2.22461-1.65625,3.40771-.7998,1.18457-1.98438,2.5127-3.55176,3.98438l-10.75195,10.08008-1.48828-2.78418h19.00879v6.33594h-25.44043Z"/><path class="uuid-37ad3334-264e-44ce-a792-65d0d8f44065" d="M117.56152,73.56603c-2.75293,0-5.20801-.67969-7.36816-2.04004-2.16016-1.35986-3.87207-3.32812-5.13672-5.9043-1.26367-2.5752-1.89551-5.71924-1.89551-9.43164,0-3.71191.63184-6.85596,1.89551-9.43213,1.26465-2.57568,2.97656-4.54346,5.13672-5.9043,2.16016-1.35938,4.61523-2.03955,7.36816-2.03955,2.7832,0,5.25586.68018,7.41602,2.03955,2.15918,1.36084,3.87109,3.32861,5.13574,5.9043,1.26367,2.57617,1.89551,5.72021,1.89551,9.43213,0,3.7124-.63184,6.85645-1.89551,9.43164-1.26465,2.57617-2.97656,4.54443-5.13574,5.9043-2.16016,1.36035-4.63281,2.04004-7.41602,2.04004ZM117.56152,67.03771c1.31152,0,2.45508-.37549,3.43164-1.12793.97559-.75146,1.74316-1.92725,2.30371-3.52783.55957-1.59961.83984-3.66406.83984-6.19189s-.28027-4.5918-.83984-6.19238c-.56055-1.59961-1.32812-2.77539-2.30371-3.52783-.97656-.75146-2.12012-1.12793-3.43164-1.12793-1.24805,0-2.36914.37646-3.36035,1.12793-.99219.75244-1.77637,1.92822-2.35254,3.52783-.5752,1.60059-.86328,3.66455-.86328,6.19238s.28809,4.59229.86328,6.19189c.57617,1.60059,1.36035,2.77637,2.35254,3.52783.99121.75244,2.1123,1.12793,3.36035,1.12793Z"/><path class="uuid-37ad3334-264e-44ce-a792-65d0d8f44065" d="M136.37695,62.47765v-6h13.58398v6h-13.58398Z"/><path class="uuid-37ad3334-264e-44ce-a792-65d0d8f44065" d="M167.48047,73.56603c-2.68848,0-5.27246-.36035-7.75195-1.08008-2.48047-.72021-4.47266-1.65625-5.97656-2.80811l2.64062-5.85596c1.40723,1.02441,3.10352,1.86426,5.08789,2.52002,1.9834.65625,3.9834.98389,6,.98389,1.53613,0,2.77539-.15967,3.71973-.47998.94336-.31934,1.63965-.74414,2.08789-1.27197s.67188-1.14355.67188-1.84814c0-.89551-.35254-1.60791-1.05566-2.13574-.7041-.52832-1.64062-.95996-2.80762-1.2959-1.16895-.33643-2.44141-.65576-3.81641-.95996-1.37598-.3042-2.75977-.67236-4.15234-1.104-1.3916-.43213-2.67188-1.0083-3.83984-1.72803-1.16797-.72021-2.0957-1.66357-2.78418-2.83203-.68848-1.16797-1.03125-2.63184-1.03125-4.39209,0-1.91992.51074-3.67188,1.53516-5.25586s2.58398-2.84814,4.68066-3.79199c2.0957-.94385,4.72754-1.41602,7.89551-1.41602,2.1123,0,4.2002.25635,6.26465.76758,2.06348.5127,3.86328,1.24805,5.39941,2.20801l-2.44824,5.85596c-1.50391-.86377-3.05566-1.51172-4.65527-1.94385-1.60059-.43213-3.13672-.64795-4.6084-.64795-1.53613,0-2.76855.16797-3.69629.50391s-1.60742.79199-2.04004,1.36816c-.43164.57617-.64746,1.21631-.64746,1.91992,0,.89648.35156,1.61621,1.05566,2.16016.7041.54443,1.63184.96826,2.78418,1.27197,1.15234.3042,2.43164.6084,3.83984.91211,1.4082.3042,2.7998.68018,4.17578,1.12793,1.37598.44824,2.64062,1.01611,3.79199,1.7041,1.15234.68848,2.08887,1.61621,2.80859,2.78369.71973,1.16846,1.08008,2.61621,1.08008,4.34424,0,1.88818-.52051,3.61621-1.56055,5.18408s-2.61621,2.83154-4.72754,3.79199c-2.1123.95996-4.75195,1.43994-7.91992,1.43994Z"/><rect class="uuid-d1a6a0ad-9aac-46b9-a924-d188b1f3d44c" x="36.51724" y="107.62977" width="103.78585" height="11.53176" rx="5.76587" ry="5.76587"/><rect class="uuid-d1a6a0ad-9aac-46b9-a924-d188b1f3d44c" x="36.51724" y="142.22505" width="103.78585" height="11.53176" rx="5.76587" ry="5.76587"/><rect class="uuid-d1a6a0ad-9aac-46b9-a924-d188b1f3d44c" x="36.51724" y="176.82033" width="103.78585" height="11.53176" rx="5.76587" ry="5.76587"/><rect class="uuid-d1a6a0ad-9aac-46b9-a924-d188b1f3d44c" x="36.51724" y="211.41561" width="103.78585" height="11.53176" rx="5.76587" ry="5.76587"/><rect class="uuid-d1a6a0ad-9aac-46b9-a924-d188b1f3d44c" x="36.51724" y="246.01089" width="219.10345" height="11.53176" rx="5.76587" ry="5.76587"/><rect class="uuid-d1a6a0ad-9aac-46b9-a924-d188b1f3d44c" x="36.51724" y="280.60618" width="219.10345" height="11.53176" rx="5.76587" ry="5.76587"/><rect class="uuid-d1a6a0ad-9aac-46b9-a924-d188b1f3d44c" x="36.51724" y="315.20146" width="219.10345" height="11.53176" rx="5.76587" ry="5.76587"/><rect class="uuid-d1a6a0ad-9aac-46b9-a924-d188b1f3d44c" x="163.36661" y="107.62977" width="92.25409" height="46.12704" rx="7.68784" ry="7.68784"/><rect class="uuid-d1a6a0ad-9aac-46b9-a924-d188b1f3d44c" x="163.36661" y="176.82033" width="92.25409" height="46.12704" rx="7.68784" ry="7.68784"/><path class="uuid-22d23f50-d905-4fbc-847a-668634485fd8" d="M327,53.92093v326.98578c0,10.4961-8.58675,19.09329-19.09322,19.09329H53.95529c-10.49603,0-19.09322-8.59719-19.09322-19.09329v-5.30023h238.21756c16.27636,0,29.52685-13.25049,29.52685-29.52679V34.82764h5.3003c10.50648,0,19.09322,8.58675,19.09322,19.09329Z"/></svg>