<svg xmlns="http://www.w3.org/2000/svg" viewBox="0 0 57.9971 45.0867"><defs><style>.cloud{fill:#2697d4}.number{fill:#fff}</style></defs><path class="cloud" d="M52.412 26.477s-.8 11.47-12.39 11c0 0-4.43 7.61-13.33 7.61s-13.45-7.87-13.45-7.87-9.38 1.56-12.77-7.77c0 0-2.73-7.75 4.94-11 0 0 1.24-11.8 13.47-10.62a15.463 15.463 0 0 1 26.74-.27s6.84-.67 10.39 5h-.02c3.54 5.67 2.42 11.25-3.58 13.92z"/><path class="number" d="M7.648 26.092h3.442a3.004 3.004 0 0 0 .719 2.208 2.916 2.916 0 0 0 2.157.77 2.75 2.75 0 0 0 2.105-.719 2.508 2.508 0 0 0 .77-2.003 2.454 2.454 0 0 0-.873-2.003 4.149 4.149 0 0 0-2.619-.667h-.256a.868.868 0 0 0-.257.051v-2.464h.36a3.748 3.748 0 0 0 2.362-.617 2.224 2.224 0 0 0 .77-1.848 2.236 2.236 0 0 0-.667-1.643 2.381 2.381 0 0 0-1.746-.565 2.299 2.299 0 0 0-1.849.667 2.72 2.72 0 0 0-.668 2.003v.103h-1.85c-.718 0-1.147-.197-1.282-.591a2.226 2.226 0 0 1-.052-1.258A4.575 4.575 0 0 1 9.6 15.205a6.401 6.401 0 0 1 4.467-1.49 6.503 6.503 0 0 1 4.314 1.336 4.287 4.287 0 0 1 1.643 3.492 3.692 3.692 0 0 1-.565 2.054 4.184 4.184 0 0 1-1.644 1.438 5.518 5.518 0 0 1 2.106 1.644 4.276 4.276 0 0 1 .72 2.515 5.315 5.315 0 0 1-1.798 4.263 7.29 7.29 0 0 1-4.878 1.49 6.682 6.682 0 0 1-4.725-1.49 5.52 5.52 0 0 1-1.593-4.314zM26.512 21.213A4.259 4.259 0 0 1 28 20.29a6.245 6.245 0 0 1 1.951-.36 6.055 6.055 0 0 1 4.315 1.592 5.918 5.918 0 0 1 1.591 4.211 6.293 6.293 0 0 1-1.746 4.57 6.536 6.536 0 0 1-4.673 1.644 6.008 6.008 0 0 1-5.033-2.157q-1.643-2.157-1.643-6.522 0-4.672 1.798-7.087a6.215 6.215 0 0 1 5.289-2.464 5.923 5.923 0 0 1 3.903 1.232 4.974 4.974 0 0 1 1.644 3.338h-2.671a1.023 1.023 0 0 1-.796-.308q-.283-.308-.591-.667a6.67 6.67 0 0 0-.719-.514 2.245 2.245 0 0 0-1.18-.256 2.392 2.392 0 0 0-2.106 1.18 6.545 6.545 0 0 0-.822 3.492zm.052 4.622a3.645 3.645 0 0 0 .77 2.414 2.568 2.568 0 0 0 2.105.873 2.362 2.362 0 0 0 2.002-.873 3.69 3.69 0 0 0 .72-2.414 2.989 2.989 0 0 0-.77-2.208 2.672 2.672 0 0 0-2.055-.77 2.775 2.775 0 0 0-2.054.77 3.234 3.234 0 0 0-.718 2.208zM44.503 13.716a5.982 5.982 0 0 1 4.622 1.9q1.95 2.209 1.951 7.241 0 5.135-2.003 7.292a5.78 5.78 0 0 1-4.57 1.797 6.183 6.183 0 0 1-4.776-1.95q-1.746-1.952-1.746-7.139 0-5.085 1.952-7.293a5.7 5.7 0 0 1 4.57-1.848zm0 2.876a1.992 1.992 0 0 0-1.284.41 4.133 4.133 0 0 0-1.18 2.285 14.868 14.868 0 0 0-.412 3.57 16.481 16.481 0 0 0 .385 3.646 3.48 3.48 0 0 0 1.258 2.26 2.045 2.045 0 0 0 1.233.41 2.447 2.447 0 0 0 1.283-.41 3.871 3.871 0 0 0 1.182-2.26 15.237 15.237 0 0 0 .41-3.595 14.414 14.414 0 0 0-.436-3.595 4.282 4.282 0 0 0-1.207-2.31 1.916 1.916 0 0 0-1.232-.411z"/></svg>