<?xml version="1.0" encoding="UTF-8"?><svg id="uuid-0aff5ff2-7a3e-4dd5-8a77-e5e75fe072e8" xmlns="http://www.w3.org/2000/svg" viewBox="0 0 40 40"><defs><style>.uuid-8546c269-e245-4efc-b7b8-a1c6b39c81e9{fill:#2697d4;}.uuid-8546c269-e245-4efc-b7b8-a1c6b39c81e9,.uuid-cfe408c7-5a26-40f9-8fa6-cde83c5b700f{stroke-width:0px;}.uuid-cfe408c7-5a26-40f9-8fa6-cde83c5b700f{fill:#8ec8e8;}</style></defs><path class="uuid-8546c269-e245-4efc-b7b8-a1c6b39c81e9" d="m40,8.00161v4.00033H0v-4.00033c.00634-2.20652,1.79343-3.99375,4-4.00031h4.5v2.50019c0,1.38068,1.11929,2.49994,2.5,2.49994s2.5-1.11926,2.5-2.49994v-2.50019h13v2.50019c0,1.38068,1.11929,2.49994,2.5,2.49994s2.5-1.11926,2.5-2.49994v-2.50019h4.5c2.20657.00656,3.99366,1.79379,4,4.00031Z"/><path class="uuid-cfe408c7-5a26-40f9-8fa6-cde83c5b700f" d="m0,12.99783h40v23.00184c-.00632,2.20653-1.79342,3.99377-4,4.00033H4c-2.20658-.00656-3.99367-1.7938-4-4.00033V12.99783Z"/><rect class="uuid-8546c269-e245-4efc-b7b8-a1c6b39c81e9" x="5" y="18.99832" width="8" height="6.00049" rx="1.00006" ry="1.00006"/><rect class="uuid-8546c269-e245-4efc-b7b8-a1c6b39c81e9" x="16" y="18.99832" width="8" height="6.00049" rx="1.00004" ry="1.00004"/><rect class="uuid-8546c269-e245-4efc-b7b8-a1c6b39c81e9" x="27" y="18.99832" width="8" height="6.00049" rx="1.00006" ry="1.00006"/><rect class="uuid-8546c269-e245-4efc-b7b8-a1c6b39c81e9" x="5" y="27.99904" width="8" height="6.00049" rx="1.00003" ry="1.00003"/><rect class="uuid-8546c269-e245-4efc-b7b8-a1c6b39c81e9" x="16" y="27.99904" width="8" height="6.00049" rx="1.00003" ry="1.00003"/><rect class="uuid-8546c269-e245-4efc-b7b8-a1c6b39c81e9" x="27" y="27.99904" width="8" height="6.00049" rx="1.00006" ry="1.00006"/><path class="uuid-cfe408c7-5a26-40f9-8fa6-cde83c5b700f" d="m12.5,1.50109v5.0004c.00062.82841-.67044,1.50047-1.49887,1.50109-.82843.00062-1.5005-.67043-1.50113-1.49884V1.50109C9.49938.67268,10.17045.00062,10.99887,0c.82843-.00062,1.5005.67043,1.50113,1.49884v.00226Z"/><path class="uuid-cfe408c7-5a26-40f9-8fa6-cde83c5b700f" d="m30.5,1.50109v5.0004c.00062.82841-.67044,1.50047-1.49887,1.50109s-1.5005-.67043-1.50113-1.49884V1.50109C27.49938.67268,28.17044.00062,28.99887,0s1.5005.67043,1.50113,1.49884v.00226Z"/></svg>