<?xml version="1.0" encoding="UTF-8"?><svg xmlns="http://www.w3.org/2000/svg" viewBox="0 0 600 540"><defs><style>.uuid-bbfd9300-74b8-4f8e-ae69-bff4baa7dde8{fill:#f15270;}.uuid-4b910085-21a6-4134-a917-29ee70be2bca{fill:#3c416d;}.uuid-60248b75-5fe4-4419-94b8-e0d5922c1f6c{fill:#2697d4;}.uuid-fe06e38f-5876-4f44-80a8-eab17e088859{stroke:#44d093;}.uuid-fe06e38f-5876-4f44-80a8-eab17e088859,.uuid-bdb26349-320b-448d-84b5-3814e988c9dd{fill:none;stroke-linecap:round;stroke-miterlimit:10;stroke-width:3px;}.uuid-5843ef0f-3911-4578-932e-20a99392a55f{fill:#fff;}.uuid-bdb26349-320b-448d-84b5-3814e988c9dd{stroke:#2697d4;}</style></defs><g id="uuid-bfb08e81-3af7-46b8-907f-34540aa2998c"><rect class="uuid-5843ef0f-3911-4578-932e-20a99392a55f" x="0" width="600" height="540" rx="16" ry="16"/></g><g id="uuid-417476b3-51ba-4eff-b37e-92c4fe3becad"><rect class="uuid-bbfd9300-74b8-4f8e-ae69-bff4baa7dde8" x="426" y="51" width="120" height="52.5" rx="7" ry="7"/><path class="uuid-fe06e38f-5876-4f44-80a8-eab17e088859" d="M54.35962,270s58.23589,216,122.91009,216c54.94711,0,73.77583-156,122.9101-156,43.90453,0,48.11403,125.37827,122.9101,125.37827,46.59741,0,122.9101-77.37827,122.9101-77.37827"/><path class="uuid-bdb26349-320b-448d-84b5-3814e988c9dd" d="M54.35962,430.78986s63.53256-72.43737,122.91009-72.43737,74.66249,84.39906,122.9101,84.39906c50.10711,0,68.49394-151.52037,122.9101-151.52037,51.91393,0,122.9101,139.47729,122.9101,139.47729"/><path class="uuid-4b910085-21a6-4134-a917-29ee70be2bca" d="M69.83984,92.2998c-2.21387,0-4.25391-.35352-6.12012-1.06055-1.86621-.70605-3.47949-1.71289-4.83984-3.01953s-2.41992-2.83984-3.17969-4.60059c-.75977-1.75977-1.14062-3.69238-1.14062-5.7998,0-2.10645.38086-4.04004,1.14062-5.7998s1.83301-3.29297,3.21973-4.59961,3.01367-2.31348,4.87988-3.02051c1.86621-.70605,3.91992-1.05957,6.16016-1.05957,2.48047,0,4.71289.41309,6.7002,1.23926,1.98633.82715,3.66016,2.02734,5.01953,3.60059l-4.12012,3.83984c-1.04004-1.09277-2.15918-1.90039-3.35938-2.41992-1.2002-.52051-2.52051-.78027-3.95996-.78027-1.33398,0-2.56055.2207-3.68066.66016-1.11914.44043-2.08691,1.06055-2.89941,1.86035-.81348.7998-1.44043,1.74707-1.87988,2.83984-.44043,1.09375-.66016,2.30664-.66016,3.63965,0,1.28027.21973,2.47363.66016,3.58008.43945,1.10742,1.06641,2.06055,1.87988,2.86035.8125.7998,1.77344,1.42676,2.87988,1.87988,1.10645.4541,2.32617.67969,3.66016.67969,1.28027,0,2.52637-.21289,3.74023-.63965,1.21289-.42676,2.39258-1.13281,3.54004-2.12012l3.67969,4.67969c-1.54688,1.17383-3.32031,2.06055-5.32031,2.66016-2,.60059-4,.90039-6,.90039ZM75.24023,87.89941v-10.51953h5.91992v11.35938l-5.91992-.83984Z"/><path class="uuid-4b910085-21a6-4134-a917-29ee70be2bca" d="M86.71973,91.81934v-21.51953h5.95996v6.12012l-.83984-1.80078c.63965-1.51953,1.66602-2.67285,3.08008-3.45996,1.41309-.78613,3.13281-1.17969,5.16016-1.17969v5.7998c-.24023-.05273-.47363-.09277-.7002-.12012-.22656-.02539-.44727-.04004-.66016-.04004-1.75977,0-3.16016.49414-4.2002,1.48047-1.04004.9873-1.55957,2.50684-1.55957,4.55957v10.16016h-6.24023Z"/><path class="uuid-4b910085-21a6-4134-a917-29ee70be2bca" d="M114.16016,92.13965c-2.2666,0-4.28711-.48047-6.06055-1.44043s-3.16602-2.27246-4.17969-3.93945c-1.01367-1.66602-1.51953-3.56641-1.51953-5.7002,0-2.16016.50586-4.07324,1.51953-5.74023,1.01367-1.66602,2.40625-2.97266,4.17969-3.91992,1.77344-.94629,3.79395-1.41992,6.06055-1.41992,2.29297,0,4.33301.47363,6.12012,1.41992,1.78613.94727,3.18652,2.25391,4.2002,3.91992,1.0127,1.66699,1.51953,3.58008,1.51953,5.74023s-.50684,4.06641-1.51953,5.71973c-1.01367,1.6543-2.41406,2.95996-4.2002,3.91992-1.78711.95996-3.82715,1.44043-6.12012,1.44043ZM114.16016,87.01953c1.06641,0,2.00586-.2334,2.82031-.7002.8125-.46582,1.46582-1.15332,1.95996-2.05957.49316-.90625.73926-1.97363.73926-3.2002,0-1.25293-.24609-2.32031-.73926-3.2002-.49414-.87988-1.14746-1.55273-1.95996-2.01953-.81445-.4668-1.74023-.7002-2.78027-.7002s-1.97363.2334-2.7998.7002c-.82715.4668-1.4873,1.13965-1.98047,2.01953s-.74023,1.94727-.74023,3.2002c0,1.22656.24707,2.29395.74023,3.2002s1.15332,1.59375,1.98047,2.05957c.82617.4668,1.74609.7002,2.75977.7002Z"/><path class="uuid-4b910085-21a6-4134-a917-29ee70be2bca" d="M137.39941,92.13965c-1.83984,0-3.60059-.21973-5.28027-.66016-1.67969-.43945-3.02637-.99316-4.04004-1.66016l2.04004-4.43945c1.01367.58691,2.19336,1.07324,3.54004,1.45996s2.67285.58008,3.98047.58008c1.43945,0,2.45996-.17383,3.05957-.52051.59961-.3457.90039-.82617.90039-1.43945,0-.50684-.23438-.88672-.7002-1.14062-.4668-.25293-1.08008-.44629-1.83984-.58008-.76074-.13281-1.60742-.26562-2.54004-.39941-.93359-.13379-1.86035-.32031-2.78027-.56055-.91992-.23926-1.77344-.58008-2.55957-1.01953-.78711-.44043-1.41406-1.04688-1.88086-1.82031s-.69922-1.77344-.69922-3c0-1.36035.39941-2.56641,1.19922-3.62012.80078-1.05273,1.93359-1.87305,3.40039-2.45996,1.4668-.58594,3.24023-.87988,5.32031-.87988,1.49316,0,2.99316.16699,4.5.5,1.50586.33398,2.7793.79395,3.81934,1.37988l-2.11914,4.44043c-1.01465-.58691-2.04688-1-3.10059-1.24023s-2.05957-.36035-3.01953-.36035c-1.44043,0-2.48047.1875-3.12012.56055-.64062.37402-.95996.85352-.95996,1.43945,0,.53418.24023.94043.71973,1.2207.48047.2793,1.10645.48633,1.87988.62012.77344.13281,1.62598.2666,2.56055.39941.93262.13379,1.85254.32031,2.75977.56055.90625.23926,1.75293.5791,2.54004,1.01953.78613.44043,1.41309,1.04688,1.87988,1.82031.46582.77344.7002,1.77344.7002,3,0,1.30664-.40039,2.47363-1.2002,3.5s-1.9541,1.83301-3.45996,2.41992c-1.50684.58594-3.33984.87988-5.5.87988Z"/><path class="uuid-4b910085-21a6-4134-a917-29ee70be2bca" d="M158.63965,92.13965c-1.83984,0-3.60059-.21973-5.28027-.66016-1.67969-.43945-3.02637-.99316-4.04004-1.66016l2.04004-4.43945c1.01367.58691,2.19336,1.07324,3.54004,1.45996s2.67285.58008,3.98047.58008c1.43945,0,2.45996-.17383,3.05957-.52051.59961-.3457.90039-.82617.90039-1.43945,0-.50684-.23438-.88672-.7002-1.14062-.4668-.25293-1.08008-.44629-1.83984-.58008-.76074-.13281-1.60742-.26562-2.54004-.39941-.93359-.13379-1.86035-.32031-2.78027-.56055-.91992-.23926-1.77344-.58008-2.55957-1.01953-.78711-.44043-1.41406-1.04688-1.88086-1.82031s-.69922-1.77344-.69922-3c0-1.36035.39941-2.56641,1.19922-3.62012.80078-1.05273,1.93359-1.87305,3.40039-2.45996,1.4668-.58594,3.24023-.87988,5.32031-.87988,1.49316,0,2.99316.16699,4.5.5,1.50586.33398,2.7793.79395,3.81934,1.37988l-2.11914,4.44043c-1.01465-.58691-2.04688-1-3.10059-1.24023s-2.05957-.36035-3.01953-.36035c-1.44043,0-2.48047.1875-3.12012.56055-.64062.37402-.95996.85352-.95996,1.43945,0,.53418.24023.94043.71973,1.2207.48047.2793,1.10645.48633,1.87988.62012.77344.13281,1.62598.2666,2.56055.39941.93262.13379,1.85254.32031,2.75977.56055.90625.23926,1.75293.5791,2.54004,1.01953.78613.44043,1.41309,1.04688,1.87988,1.82031.46582.77344.7002,1.77344.7002,3,0,1.30664-.40039,2.47363-1.2002,3.5s-1.9541,1.83301-3.45996,2.41992c-1.50684.58594-3.33984.87988-5.5.87988Z"/><path class="uuid-4b910085-21a6-4134-a917-29ee70be2bca" d="M184.39844,91.81934v-28h12.12012c2.50586,0,4.66602.40723,6.47949,1.2207s3.21289,1.97949,4.2002,3.5c.98633,1.51953,1.47949,3.31934,1.47949,5.39941,0,2.10742-.49316,3.91406-1.47949,5.41992-.9873,1.50684-2.38672,2.67383-4.2002,3.5-1.81348.82715-3.97363,1.24023-6.47949,1.24023h-8.56055l2.95996-2.91992v10.63965h-6.51953ZM190.91797,81.89941l-2.95996-3.08008h8.2002c1.97266,0,3.46582-.42578,4.47949-1.2793s1.52051-2.05371,1.52051-3.60059c0-1.5459-.50684-2.74023-1.52051-3.58008s-2.50684-1.25977-4.47949-1.25977h-8.2002l2.95996-3.08008v15.87988Z"/><path class="uuid-4b910085-21a6-4134-a917-29ee70be2bca" d="M213.23828,91.81934v-21.51953h5.95996v6.12012l-.83984-1.80078c.63965-1.51953,1.66602-2.67285,3.08008-3.45996,1.41309-.78613,3.13281-1.17969,5.16016-1.17969v5.7998c-.24023-.05273-.47363-.09277-.7002-.12012-.22656-.02539-.44727-.04004-.66016-.04004-1.75977,0-3.16016.49414-4.2002,1.48047-1.04004.9873-1.55957,2.50684-1.55957,4.55957v10.16016h-6.24023Z"/><path class="uuid-4b910085-21a6-4134-a917-29ee70be2bca" d="M240.67871,92.13965c-2.2666,0-4.28711-.48047-6.06055-1.44043s-3.16602-2.27246-4.17969-3.93945c-1.01367-1.66602-1.51953-3.56641-1.51953-5.7002,0-2.16016.50586-4.07324,1.51953-5.74023,1.01367-1.66602,2.40625-2.97266,4.17969-3.91992,1.77344-.94629,3.79395-1.41992,6.06055-1.41992,2.29297,0,4.33301.47363,6.12012,1.41992,1.78613.94727,3.18652,2.25391,4.2002,3.91992,1.0127,1.66699,1.51953,3.58008,1.51953,5.74023s-.50684,4.06641-1.51953,5.71973c-1.01367,1.6543-2.41406,2.95996-4.2002,3.91992-1.78711.95996-3.82715,1.44043-6.12012,1.44043ZM240.67871,87.01953c1.06641,0,2.00586-.2334,2.82031-.7002.8125-.46582,1.46582-1.15332,1.95996-2.05957.49316-.90625.73926-1.97363.73926-3.2002,0-1.25293-.24609-2.32031-.73926-3.2002-.49414-.87988-1.14746-1.55273-1.95996-2.01953-.81445-.4668-1.74023-.7002-2.78027-.7002s-1.97363.2334-2.7998.7002c-.82715.4668-1.4873,1.13965-1.98047,2.01953s-.74023,1.94727-.74023,3.2002c0,1.22656.24707,2.29395.74023,3.2002s1.15332,1.59375,1.98047,2.05957c.82617.4668,1.74609.7002,2.75977.7002Z"/><path class="uuid-4b910085-21a6-4134-a917-29ee70be2bca" d="M254.11914,75.5791v-4.7998h14.91992v4.7998h-14.91992ZM257.43848,91.81934v-22c0-2.45312.7207-4.39941,2.16016-5.83984,1.44043-1.43945,3.49316-2.16016,6.16016-2.16016.87988,0,1.74609.09375,2.59961.28027s1.57324.4668,2.16016.83984l-1.63965,4.56055c-.34668-.24023-.7334-.42676-1.16016-.56055-.42676-.13281-.87988-.2002-1.36035-.2002-.90625,0-1.60645.25391-2.09961.76074-.49414.50684-.74023,1.30664-.74023,2.39941v2l.2002,2.64062v17.2793h-6.28027ZM275.67871,67.2998c-1.17383,0-2.12012-.33301-2.83984-1-.71973-.66602-1.08008-1.49316-1.08008-2.48047,0-.98633.36035-1.8125,1.08008-2.47949s1.66602-1,2.83984-1c1.14648,0,2.08594.31348,2.82031.93945.7334.62695,1.09961,1.43359,1.09961,2.41992,0,1.04004-.35938,1.90039-1.08008,2.58008-.71973.68066-1.66699,1.02051-2.83984,1.02051ZM272.55859,91.81934v-21.51953h6.24023v21.51953h-6.24023Z"/><path class="uuid-4b910085-21a6-4134-a917-29ee70be2bca" d="M281.99805,75.5791v-4.7998h14.91992v4.7998h-14.91992ZM293.35742,92.13965c-2.5332,0-4.50684-.64648-5.91992-1.94043-1.41309-1.29297-2.12012-3.21973-2.12012-5.7793v-18.87988h6.28027v18.75977c0,.90625.2334,1.61328.7002,2.12012.46582.50684,1.09961.75977,1.89941.75977,1.01367,0,1.86719-.2666,2.56055-.7998l1.63965,4.39941c-.61328.4541-1.36621.79395-2.25977,1.02051-.89355.22559-1.82031.33984-2.78027.33984Z"/><path class="uuid-4b910085-21a6-4134-a917-29ee70be2bca" d="M60.20215,195.99512c-1.26562,0-2.51855-.16895-3.75684-.50684-1.24023-.33887-2.30176-.82812-3.18555-1.46973l1.66406-3.19727c.67578.50293,1.46875.90527,2.37891,1.20898.91016.30273,1.8418.4541,2.79492.4541,1.05762,0,1.89355-.21191,2.50977-.63672.61426-.4248.92285-1.00977.92285-1.75488,0-.48535-.12598-.90137-.37695-1.24805-.25195-.34668-.68555-.61914-1.30078-.81934-.61523-.19824-1.47754-.29883-2.58691-.29883h-4.62793l.91016-10.24414h11.12793v3.38086h-9.62012l2.18457-1.9248-.67578,7.30664-2.1582-1.89844h3.84766c1.80273,0,3.25.24316,4.3418.72852,1.09277.48535,1.89355,1.15625,2.40527,2.01465.51074.8584.7666,1.82422.7666,2.89941,0,1.05664-.26855,2.04492-.80566,2.96387s-1.36523,1.65527-2.4834,2.20996c-1.11719.55469-2.54297.83203-4.27637.83203Z"/><path class="uuid-4b910085-21a6-4134-a917-29ee70be2bca" d="M72.39551,195.68262l7.33203-16.58789,1.0918,1.82031h-9.77539l1.81934-1.97656v4.9668h-3.71777v-6.42285h14.58594v2.73047l-6.75977,15.46973h-4.57617Z"/><path class="uuid-4b910085-21a6-4134-a917-29ee70be2bca" d="M87.99609,195.89062c-.69336,0-1.28711-.23828-1.78125-.71484s-.74121-1.0791-.74121-1.80664c0-.7627.24707-1.37793.74121-1.84668.49414-.46777,1.08789-.70117,1.78125-.70117.70996,0,1.30859.2334,1.79395.70117.48535.46875.72754,1.08398.72754,1.84668,0,.72754-.24219,1.33008-.72754,1.80664s-1.08398.71484-1.79395.71484Z"/><path class="uuid-4b910085-21a6-4134-a917-29ee70be2bca" d="M95.22363,195.68262v-16.63965l1.81934,1.82031h-5.45996v-3.38086h7.85254v18.2002h-4.21191Z"/><path class="uuid-4b910085-21a6-4134-a917-29ee70be2bca" d="M106.79395,187.31055c-.86719,0-1.63867-.20312-2.31445-.61035s-1.20508-.98828-1.58594-1.74219-.57227-1.64258-.57227-2.66504.19141-1.91113.57227-2.66504.91016-1.33496,1.58594-1.74219,1.44727-.61133,2.31445-.61133c.90039,0,1.68945.2041,2.36621.61133.67578.40723,1.2041.98438,1.58594,1.72949.38086.74512.57129,1.6377.57129,2.67773,0,1.02246-.19043,1.91113-.57129,2.66504-.38184.75391-.91016,1.33496-1.58594,1.74219-.67676.40723-1.46582.61035-2.36621.61035ZM106.81934,185.17871c.57227,0,1.02734-.23828,1.36523-.71484s.50684-1.2002.50684-2.1709-.16895-1.69434-.50684-2.1709-.79297-.71484-1.36523-.71484c-.57129,0-1.03125.24219-1.37793.72754s-.51953,1.20508-.51953,2.1582.17285,1.67285.51953,2.1582.80664.72754,1.37793.72754ZM105.2334,195.68262l12.42871-18.2002h3.09375l-12.42773,18.2002h-3.09473ZM119.16992,195.89062c-.86719,0-1.64258-.2041-2.32715-.61035-.68457-.40723-1.21387-.98828-1.58594-1.74219-.37305-.75391-.55957-1.64258-.55957-2.66504s.18652-1.91113.55957-2.66504c.37207-.75391.90137-1.33496,1.58594-1.74219s1.45996-.61133,2.32715-.61133c.90137,0,1.68945.2041,2.36621.61133.67578.40723,1.2041.98828,1.58594,1.74219.38086.75391.57129,1.64258.57129,2.66504s-.19043,1.91113-.57129,2.66504c-.38184.75391-.91016,1.33496-1.58594,1.74219-.67676.40625-1.46484.61035-2.36621.61035ZM119.16992,193.75879c.57227,0,1.03516-.24219,1.39062-.72754s.5332-1.20508.5332-2.1582-.17773-1.67285-.5332-2.1582-.81836-.72754-1.39062-.72754c-.55469,0-1.00977.23828-1.36523.71484s-.5332,1.2002-.5332,2.1709.17773,1.69434.5332,2.1709.81055.71484,1.36523.71484Z"/><path class="uuid-60248b75-5fe4-4419-94b8-e0d5922c1f6c" d="M433.57324,190.3457v-3.92383l11.87988-15.98438h6.12012l-11.5918,15.98438-2.88086-.82812h19.83691v4.75195h-23.36426ZM447.14551,195.6377v-5.29199l.17969-4.75195v-4.71582h5.50781v14.75977h-5.6875Z"/><path class="uuid-60248b75-5fe4-4419-94b8-e0d5922c1f6c" d="M467.52051,170.00586c2.32812,0,4.33789.47461,6.03027,1.42188,1.69238.94824,2.98828,2.35254,3.8877,4.21191.90039,1.86035,1.35059,4.13477,1.35059,6.82227,0,2.92871-.54688,5.40039-1.63867,7.41602s-2.59766,3.55176-4.51758,4.6084c-1.9209,1.05566-4.15234,1.58398-6.69629,1.58398-1.32031,0-2.5918-.15039-3.81543-.4502-1.22461-.2998-2.28027-.72559-3.16797-1.27832l2.12402-4.28418c.69531.48047,1.44531.81055,2.25.99023.80371.17969,1.6377.27051,2.50195.27051,2.15918,0,3.88184-.66602,5.16602-1.99805,1.2832-1.33203,1.92578-3.28223,1.92578-5.85059,0-.43164-.0127-.91113-.03613-1.43945-.02441-.52832-.08398-1.05566-.17969-1.58398l1.58398,1.51172c-.40918.93555-.98438,1.72266-1.72852,2.3584s-1.6084,1.11523-2.5918,1.43945c-.98438.32422-2.08789.48633-3.31152.48633-1.6084,0-3.06641-.32422-4.37402-.97266-1.30859-.64746-2.35254-1.55957-3.13281-2.73535s-1.16992-2.55664-1.16992-4.14062c0-1.70312.42578-3.18555,1.27832-4.44531.85156-1.26074,2.00391-2.23242,3.45605-2.91602,1.45215-.68457,3.05371-1.02637,4.80566-1.02637ZM467.88086,174.3623c-.84082,0-1.57812.14941-2.21387.44922-.63672.30078-1.12891.73242-1.47656,1.29688-.34766.56348-.52148,1.22949-.52148,1.99707,0,1.15234.38965,2.07031,1.16992,2.75488.7793.68359,1.81836,1.02539,3.11426,1.02539.86328,0,1.61914-.16699,2.26758-.50391.64844-.33594,1.15234-.78613,1.51172-1.34961.36035-.56348.54004-1.21777.54004-1.96191,0-.69629-.16797-1.32617-.50391-1.89062-.33594-.56348-.83398-1.00781-1.49414-1.33203-.66016-.32324-1.45801-.48535-2.39355-.48535Z"/><path class="uuid-60248b75-5fe4-4419-94b8-e0d5922c1f6c" d="M484.9082,195.92578c-.95996,0-1.78223-.3291-2.46582-.99023-.68359-.65918-1.02637-1.49316-1.02637-2.50195,0-1.05566.34277-1.90723,1.02637-2.55566s1.50586-.97168,2.46582-.97168c.98438,0,1.81152.32324,2.48438.97168.67188.64844,1.00781,1.5,1.00781,2.55566,0,1.00879-.33594,1.84277-1.00781,2.50195-.67285.66113-1.5.99023-2.48438.99023Z"/><path class="uuid-60248b75-5fe4-4419-94b8-e0d5922c1f6c" d="M490.74023,190.3457v-3.92383l11.87988-15.98438h6.12012l-11.5918,15.98438-2.88086-.82812h19.83691v4.75195h-23.36426ZM504.3125,195.6377v-5.29199l.17969-4.75195v-4.71582h5.50781v14.75977h-5.6875Z"/><path class="uuid-60248b75-5fe4-4419-94b8-e0d5922c1f6c" d="M521.62793,184.0459c-1.2002,0-2.26855-.28223-3.2041-.8457-.93652-.56348-1.66895-1.36816-2.19629-2.41211-.52832-1.04395-.79199-2.27344-.79199-3.69043,0-1.41602.26367-2.64551.79199-3.68945.52734-1.04395,1.25977-1.84766,2.19629-2.41211.93555-.56348,2.00391-.8457,3.2041-.8457,1.24707,0,2.33984.28223,3.27539.8457.93652.56445,1.66797,1.3623,2.19629,2.39355.52734,1.03223.79199,2.26855.79199,3.70801,0,1.41699-.26465,2.64648-.79199,3.69043-.52832,1.04395-1.25977,1.84863-2.19629,2.41211-.93555.56348-2.02832.8457-3.27539.8457ZM521.66406,181.09375c.79199,0,1.42188-.3291,1.88965-.99023.46777-.65918.70215-1.66113.70215-3.00586,0-1.34375-.23438-2.3457-.70215-3.00586s-1.09766-.99023-1.88965-.99023-1.42871.33691-1.9082,1.00879c-.48047.67188-.71973,1.66797-.71973,2.9873,0,1.32031.23926,2.31641.71973,2.98828.47949.67188,1.11621,1.00781,1.9082,1.00781ZM519.46777,195.6377l17.20801-25.2002h4.28418l-17.20801,25.2002h-4.28418ZM538.76367,195.92578c-1.2002,0-2.27441-.28223-3.22168-.8457-.94824-.56348-1.68066-1.36816-2.19629-2.41211-.5166-1.04395-.77441-2.27344-.77441-3.69043,0-1.41504.25781-2.64551.77441-3.68945.51562-1.04395,1.24805-1.84766,2.19629-2.41211.94727-.56348,2.02148-.8457,3.22168-.8457,1.24805,0,2.33984.28223,3.27637.8457.93555.56445,1.66797,1.36816,2.19531,2.41211.52832,1.04395.79199,2.27441.79199,3.68945,0,1.41699-.26367,2.64648-.79199,3.69043-.52734,1.04395-1.25977,1.84863-2.19531,2.41211-.93652.56348-2.02832.8457-3.27637.8457ZM538.76367,192.97363c.79199,0,1.43359-.33594,1.92578-1.00781s.73828-1.66797.73828-2.98828c0-1.31934-.24609-2.31543-.73828-2.9873s-1.13379-1.00781-1.92578-1.00781c-.76855,0-1.39844.33008-1.88965.98926-.49219.66016-.73828,1.66211-.73828,3.00586,0,1.34473.24609,2.34668.73828,3.00684.49121.66016,1.12109.98926,1.88965.98926Z"/><path class="uuid-5843ef0f-3911-4578-932e-20a99392a55f" d="M438.00098,82.44824v-4h9.05566v4h-9.05566Z"/><path class="uuid-5843ef0f-3911-4578-932e-20a99392a55f" d="M453.39258,89.45605v-20.48047l2.24023,2.24023h-6.7207v-4.16016h9.66406v22.40039h-5.18359Z"/><path class="uuid-5843ef0f-3911-4578-932e-20a99392a55f" d="M469.71289,89.83984c-1.55762,0-3.09375-.20801-4.6084-.62402s-2.81641-1.01855-3.9043-1.80762l2.0166-3.93652c.85254.61914,1.83984,1.11523,2.95996,1.48828s2.2666.55957,3.43945.55957c1.30078,0,2.3252-.26074,3.07227-.78418.74609-.52246,1.12012-1.23145,1.12012-2.12793,0-.85254-.33105-1.52441-.99219-2.01562-.66113-.49023-1.72754-.73633-3.2002-.73633h-2.33594v-3.3916l6.20801-7.10449.57617,1.85645h-11.74414v-4.16016h15.67969v3.36035l-6.20801,7.07227-2.62402-1.50488h1.50488c2.75195,0,4.83691.61914,6.25586,1.85645,1.41797,1.2373,2.12793,2.81641,2.12793,4.73633,0,1.2793-.33594,2.47461-1.00781,3.58398-.67285,1.10938-1.69141,2-3.05664,2.67188s-3.125,1.00781-5.2793,1.00781Z"/><path class="uuid-5843ef0f-3911-4578-932e-20a99392a55f" d="M484.36816,89.71191c-.85352,0-1.58398-.29297-2.19238-.87988s-.91211-1.32812-.91211-2.22461c0-.93848.30371-1.69531.91211-2.27148s1.33887-.86426,2.19238-.86426c.87402,0,1.61035.28809,2.20801.86426.59668.57617.89551,1.33301.89551,2.27148,0,.89648-.29883,1.6377-.89551,2.22461-.59766.58691-1.33398.87988-2.20801.87988Z"/><path class="uuid-5843ef0f-3911-4578-932e-20a99392a55f" d="M497.4248,89.83984c-1.55762,0-3.09961-.20801-4.62402-.62402-1.52539-.41602-2.83203-1.01855-3.91992-1.80762l2.04785-3.93652c.83203.61914,1.80762,1.11523,2.92773,1.48828s2.2666.55957,3.44043.55957c1.30078,0,2.33008-.26074,3.08789-.78418.75684-.52246,1.13574-1.24219,1.13574-2.15918,0-.59766-.15527-1.10938-.46387-1.53613-.30957-.42676-.84277-.7627-1.59961-1.00781-.75781-.24512-1.81934-.36816-3.18457-.36816h-5.69629l1.12012-12.6084h13.69629v4.16016h-11.83984l2.6875-2.36816-.83203,8.99219-2.65527-2.33594h4.73535c2.21875,0,4,.29883,5.34473.89551,1.34375.59766,2.33008,1.4248,2.95996,2.48047.62891,1.05566.94336,2.24512.94336,3.56836,0,1.30078-.33105,2.5166-.99219,3.64746s-1.67969,2.03809-3.05566,2.71973c-1.37598.68262-3.13086,1.02441-5.26367,1.02441Z"/><path class="uuid-5843ef0f-3911-4578-932e-20a99392a55f" d="M514,79.15137c-1.06738,0-2.0166-.25-2.84863-.75195-.83203-.50098-1.48242-1.21582-1.95215-2.14355-.46875-.92773-.70312-2.02148-.70312-3.28027,0-1.25781.23438-2.35156.70312-3.2793.46973-.92871,1.12012-1.64258,1.95215-2.14453.83203-.50098,1.78125-.75195,2.84863-.75195,1.1084,0,2.08008.25098,2.91113.75195.83203.50195,1.4834,1.21094,1.95215,2.12793.46973.91797.7041,2.0166.7041,3.2959,0,1.25879-.23438,2.35254-.7041,3.28027-.46875.92773-1.12012,1.64258-1.95215,2.14355-.83105.50195-1.80273.75195-2.91113.75195ZM514.03125,76.52734c.7041,0,1.26465-.29297,1.68066-.87988.41602-.58594.62402-1.47656.62402-2.67188,0-1.19434-.20801-2.08496-.62402-2.67188-.41602-.58594-.97656-.87988-1.68066-.87988s-1.26953.29883-1.69531.89551c-.42773.59766-.64062,1.4834-.64062,2.65625,0,1.17383.21289,2.05957.64062,2.65625.42578.59766.99121.89551,1.69531.89551ZM512.08008,89.45605l15.2959-22.40039h3.80762l-15.2959,22.40039h-3.80762ZM529.23145,89.71191c-1.06641,0-2.02148-.25098-2.86426-.75195s-1.49316-1.21582-1.95117-2.14453c-.45898-.92773-.68848-2.02051-.68848-3.2793s.22949-2.35254.68848-3.28027c.45801-.92773,1.1084-1.64258,1.95117-2.14453.84277-.50098,1.79785-.75195,2.86426-.75195,1.10938,0,2.08008.25098,2.91211.75195.83203.50195,1.48242,1.2168,1.95215,2.14453.46875.92773.7041,2.02148.7041,3.28027s-.23535,2.35156-.7041,3.2793c-.46973.92871-1.12012,1.64355-1.95215,2.14453s-1.80273.75195-2.91211.75195ZM529.23145,87.08789c.7041,0,1.27441-.29883,1.71191-.89648.4375-.59668.65625-1.48242.65625-2.65527s-.21875-2.05859-.65625-2.65625c-.4375-.59668-1.00781-.89648-1.71191-.89648-.68262,0-1.24316.29395-1.67969.88086-.4375.58691-.65625,1.47754-.65625,2.67188s.21875,2.08496.65625,2.67188c.43652.58691.99707.87988,1.67969.87988Z"/></g></svg>