<?xml version="1.0" encoding="UTF-8"?><svg xmlns="http://www.w3.org/2000/svg" viewBox="0 0 600 540"><defs><style>.uuid-9549dd67-e1fd-472b-abe9-c8bce8ec1887{fill:#3c416d;}.uuid-85f9dfcb-5033-4c9f-9bf9-35469fdc59d6{fill:#44d093;}.uuid-ebf3f323-ca8a-4af6-9379-3c3d213bf186{fill:#2697d4;}.uuid-bfb2fe5d-28e4-4759-b029-a26e0b41b9e1{stroke:#44d093;}.uuid-bfb2fe5d-28e4-4759-b029-a26e0b41b9e1,.uuid-65618dc4-52a6-45ca-994c-ea7a9b670375{fill:none;stroke-linecap:round;stroke-miterlimit:10;stroke-width:3px;}.uuid-facf06bb-950e-413a-9665-359da25b7ecd{fill:#fff;}.uuid-65618dc4-52a6-45ca-994c-ea7a9b670375{stroke:#2697d4;}</style></defs><g id="uuid-d89ff57b-8fd9-4d93-91d1-51b9d0bef1a9"><rect class="uuid-facf06bb-950e-413a-9665-359da25b7ecd" x="0" width="600" height="540" rx="16" ry="16"/></g><g id="uuid-b6b43b1f-73c7-4927-a1f5-0091f154fd86"><rect class="uuid-85f9dfcb-5033-4c9f-9bf9-35469fdc59d6" x="425.82019" y="51" width="120" height="52.5" rx="7" ry="7"/><path class="uuid-65618dc4-52a6-45ca-994c-ea7a9b670375" d="M54.17982,420.5999s61.31735-71.77279,122.91009-71.77279,62.4749,21.26557,122.73029,21.26557c77.99048,0,66.90159-95.66226,246-100.09268"/><path class="uuid-bfb2fe5d-28e4-4759-b029-a26e0b41b9e1" d="M54.17982,486s79.92512-14.0072,122.91009-52.99493c42.98497-38.98773,74.66249-137.34302,122.73029-137.34302,52.05968,0,63.64426,111.8681,123.0899,111.8681s122.9101-106.33065,122.9101-106.33065"/><path class="uuid-9549dd67-e1fd-472b-abe9-c8bce8ec1887" d="M56.32031,91.81934v-28h12.12012c2.50586,0,4.66602.40723,6.47949,1.2207s3.21289,1.97949,4.2002,3.5c.98633,1.51953,1.47949,3.31934,1.47949,5.39941,0,2.10742-.49316,3.91406-1.47949,5.41992-.9873,1.50684-2.38672,2.6543-4.2002,3.44043-1.81348.78711-3.97363,1.17969-6.47949,1.17969h-8.56055l2.95996-2.7998v10.63965h-6.51953ZM62.83984,81.89941l-2.95996-3.08008h8.2002c1.97266,0,3.46582-.42578,4.47949-1.2793s1.52051-2.05371,1.52051-3.60059c0-1.5459-.50684-2.74023-1.52051-3.58008s-2.50684-1.25977-4.47949-1.25977h-8.2002l2.95996-3.08008v15.87988ZM74.16016,91.81934l-7.04004-10.16016h6.95996l7.04004,10.16016h-6.95996Z"/><path class="uuid-9549dd67-e1fd-472b-abe9-c8bce8ec1887" d="M95.95898,92.13965c-2.45312,0-4.59961-.48047-6.43945-1.44043s-3.2666-2.27246-4.28027-3.93945c-1.01367-1.66602-1.51953-3.56641-1.51953-5.7002,0-2.13281.48633-4.04004,1.45996-5.71973.97266-1.68066,2.33301-2.99316,4.08008-3.94043,1.74609-.94629,3.71289-1.41992,5.89941-1.41992,2.10645,0,4.00684.4541,5.7002,1.36035s3.0332,2.18652,4.02051,3.83984c.98535,1.65332,1.47949,3.63965,1.47949,5.95996,0,.24023-.01367.51367-.04004.82031s-.05371.59375-.08008.85938h-17.47949v-3.63965h14.19922l-2.43945,1.08008c.02637-1.12012-.18652-2.09375-.63965-2.91992-.4541-.82617-1.08008-1.47363-1.88086-1.94043-.7998-.46582-1.7334-.7002-2.7998-.7002s-2.00684.23438-2.81934.7002c-.81445.4668-1.44727,1.12012-1.90039,1.95996-.4541.83984-.67969,1.83398-.67969,2.98047v.95996c0,1.2002.26562,2.24023.7998,3.12012.5332.87988,1.26562,1.55371,2.2002,2.01953.93262.4668,2.05273.7002,3.35938.7002,1.12012,0,2.11328-.17285,2.98047-.52051.86621-.3457,1.66016-.86621,2.37988-1.55957l3.32031,3.59961c-.9873,1.12012-2.22754,1.98047-3.7207,2.58008-1.49316.60059-3.21387.90039-5.16016.90039Z"/><path class="uuid-9549dd67-e1fd-472b-abe9-c8bce8ec1887" d="M116.39941,91.81934l-9.04004-21.51953h6.40039l7.51953,18.51953h-3.19922l7.83984-18.51953h5.95996l-9.08008,21.51953h-6.40039Z"/><path class="uuid-9549dd67-e1fd-472b-abe9-c8bce8ec1887" d="M145.11816,92.13965c-2.45312,0-4.59961-.48047-6.43945-1.44043s-3.2666-2.27246-4.28027-3.93945c-1.01367-1.66602-1.51953-3.56641-1.51953-5.7002,0-2.13281.48633-4.04004,1.45996-5.71973.97266-1.68066,2.33301-2.99316,4.08008-3.94043,1.74609-.94629,3.71289-1.41992,5.89941-1.41992,2.10645,0,4.00684.4541,5.7002,1.36035s3.0332,2.18652,4.02051,3.83984c.98535,1.65332,1.47949,3.63965,1.47949,5.95996,0,.24023-.01367.51367-.04004.82031s-.05371.59375-.08008.85938h-17.47949v-3.63965h14.19922l-2.43945,1.08008c.02637-1.12012-.18652-2.09375-.63965-2.91992-.4541-.82617-1.08008-1.47363-1.88086-1.94043-.7998-.46582-1.7334-.7002-2.7998-.7002s-2.00684.23438-2.81934.7002c-.81445.4668-1.44727,1.12012-1.90039,1.95996-.4541.83984-.67969,1.83398-.67969,2.98047v.95996c0,1.2002.26562,2.24023.7998,3.12012.5332.87988,1.26562,1.55371,2.2002,2.01953.93262.4668,2.05273.7002,3.35938.7002,1.12012,0,2.11328-.17285,2.98047-.52051.86621-.3457,1.66016-.86621,2.37988-1.55957l3.32031,3.59961c-.9873,1.12012-2.22754,1.98047-3.7207,2.58008-1.49316.60059-3.21387.90039-5.16016.90039Z"/><path class="uuid-9549dd67-e1fd-472b-abe9-c8bce8ec1887" d="M172.75879,69.97949c1.70605,0,3.2334.33984,4.58008,1.02051,1.34668.67969,2.40625,1.71973,3.17969,3.11914.77344,1.40039,1.16016,3.19434,1.16016,5.38086v12.31934h-6.24023v-11.35938c0-1.7334-.37988-3.01367-1.13965-3.84082-.75977-.82617-1.83398-1.23926-3.21973-1.23926-.9873,0-1.87402.21387-2.66016.63965-.78711.42676-1.40039,1.05371-1.83984,1.87988-.44043.82715-.66016,1.91992-.66016,3.28027v10.63965h-6.24023v-21.51953h5.95996v5.95996l-1.12012-1.7998c.77344-1.44043,1.87988-2.54688,3.32031-3.32031s3.08008-1.16016,4.91992-1.16016Z"/><path class="uuid-9549dd67-e1fd-472b-abe9-c8bce8ec1887" d="M196.39844,92.13965c-1.81348,0-3.41406-.34668-4.7998-1.04004-1.38672-.69336-2.4668-1.75977-3.24023-3.2002-.77344-1.43945-1.16016-3.25293-1.16016-5.43945v-12.16016h6.24023v11.2002c0,1.81348.37988,3.13965,1.13965,3.97949.76074.83984,1.83301,1.25977,3.2207,1.25977.95996,0,1.8125-.21289,2.55957-.63965.74609-.42676,1.33984-1.06641,1.78027-1.91992.43945-.85352.66016-1.91992.66016-3.2002v-10.67969h6.19922v21.51953h-5.91992v-5.95996l1.08008,1.75977c-.74707,1.49414-1.81348,2.62012-3.2002,3.38086-1.38672.75977-2.90625,1.13965-4.55957,1.13965Z"/><path class="uuid-9549dd67-e1fd-472b-abe9-c8bce8ec1887" d="M225.47754,92.13965c-2.45312,0-4.59961-.48047-6.43945-1.44043s-3.2666-2.27246-4.28027-3.93945c-1.01367-1.66602-1.51953-3.56641-1.51953-5.7002,0-2.13281.48633-4.04004,1.45996-5.71973.97266-1.68066,2.33301-2.99316,4.08008-3.94043,1.74609-.94629,3.71289-1.41992,5.89941-1.41992,2.10645,0,4.00684.4541,5.7002,1.36035s3.0332,2.18652,4.02051,3.83984c.98535,1.65332,1.47949,3.63965,1.47949,5.95996,0,.24023-.01367.51367-.04004.82031s-.05371.59375-.08008.85938h-17.47949v-3.63965h14.19922l-2.43945,1.08008c.02637-1.12012-.18652-2.09375-.63965-2.91992-.4541-.82617-1.08008-1.47363-1.88086-1.94043-.7998-.46582-1.7334-.7002-2.7998-.7002s-2.00684.23438-2.81934.7002c-.81445.4668-1.44727,1.12012-1.90039,1.95996-.4541.83984-.67969,1.83398-.67969,2.98047v.95996c0,1.2002.26562,2.24023.7998,3.12012.5332.87988,1.26562,1.55371,2.2002,2.01953.93262.4668,2.05273.7002,3.35938.7002,1.12012,0,2.11328-.17285,2.98047-.52051.86621-.3457,1.66016-.86621,2.37988-1.55957l3.32031,3.59961c-.9873,1.12012-2.22754,1.98047-3.7207,2.58008-1.49316.60059-3.21387.90039-5.16016.90039Z"/><path class="uuid-9549dd67-e1fd-472b-abe9-c8bce8ec1887" d="M64.35059,192.99512c-1.45605,0-2.85596-.19531-4.19922-.58496-1.34326-.39062-2.42236-.89746-3.23682-1.52148l1.43018-3.17188c.76221.55469,1.68066,1.00977,2.75586,1.36523,1.07471.35547,2.15771.5332,3.25.5332.83203,0,1.50342-.08691,2.01514-.26074.51074-.17285.8877-.40234,1.13086-.68848.24268-.28613.36377-.62012.36377-1.00098,0-.48535-.19092-.87109-.57178-1.15723-.38135-.28613-.88867-.51953-1.521-.70215-.63281-.18164-1.32178-.35449-2.06689-.51953-.74561-.16504-1.49512-.36426-2.24902-.59863-.75391-.2334-1.44775-.5459-2.08008-.93555-.63281-.38965-1.13574-.90137-1.5083-1.53418s-.55859-1.42578-.55859-2.37891c0-1.04004.27686-1.98926.83203-2.84668.5542-.8584,1.39941-1.54297,2.53467-2.05469,1.13525-.51074,2.56104-.7666,4.27734-.7666,1.14355,0,2.2749.13867,3.39258.41602,1.11816.27734,2.09326.67578,2.92529,1.19629l-1.32617,3.17188c-.81494-.46777-1.65527-.81934-2.52197-1.05273-.8667-.23438-1.69873-.35156-2.49609-.35156-.83203,0-1.49951.09082-2.00195.27344-.50293.18164-.87109.42871-1.10498.74023-.23389.3125-.35107.65918-.35107,1.04004,0,.48535.19092.87598.57227,1.16992.38086.29492.88379.52539,1.50781.68945.62402.16504,1.31738.3291,2.08008.49414s1.5166.36816,2.26221.61133c.74463.24219,1.42969.5498,2.05371.92285s1.13086.875,1.521,1.50781.58496,1.41699.58496,2.35254c0,1.02344-.28174,1.95898-.84473,2.80859-.56348.84961-1.41699,1.53418-2.56104,2.05371s-2.57422.78027-4.29004.78027ZM63.38867,195.80273v-24.43945h2.62598v24.43945h-2.62598Z"/><path class="uuid-9549dd67-e1fd-472b-abe9-c8bce8ec1887" d="M79.66406,192.99512c-1.26562,0-2.51367-.16895-3.74414-.50684-1.23096-.33887-2.28809-.82812-3.17188-1.46973l1.6377-3.19727c.69336.50293,1.49512.90527,2.40527,1.20898.90967.30273,1.84131.4541,2.79492.4541,1.05713,0,1.88916-.21191,2.49609-.63672.60645-.4248.90967-1.00098.90967-1.72852,0-.69336-.26855-1.23926-.80566-1.63867-.5376-.39844-1.4043-.59766-2.6001-.59766h-1.89795v-2.75586l5.04395-5.77246.46777,1.50879h-9.54199v-3.38086h12.74023v2.73047l-5.04395,5.74609-2.13184-1.22168h1.22168c2.23584,0,3.93018.50293,5.08301,1.50781s1.729,2.28809,1.729,3.84766c0,1.04004-.27295,2.01074-.81885,2.91211s-1.37402,1.625-2.48291,2.1709c-1.10986.5459-2.53955.81934-4.29004.81934Z"/><path class="uuid-9549dd67-e1fd-472b-abe9-c8bce8ec1887" d="M88.97217,188.86133v-2.83398l8.58008-11.54492h4.41992l-8.37207,11.54492-2.08008-.59863h14.32617v3.43262h-16.87402ZM98.77393,192.68262v-3.82129l.12988-3.43262v-3.40625h3.97803v10.66016h-4.10791Z"/><path class="uuid-9549dd67-e1fd-472b-abe9-c8bce8ec1887" d="M114.63428,192.99512c-1.54297,0-2.88232-.22559-4.01709-.67578-1.13574-.45117-2.02393-1.09668-2.66504-1.9375-.6416-.84082-.96191-1.83301-.96191-2.97656,0-1.12695.31201-2.08008.93604-2.86035s1.51172-1.37793,2.66504-1.79395c1.15234-.41602,2.5-.62402,4.04297-.62402,1.55957,0,2.91162.20801,4.05566.62402s2.03223,1.01855,2.66504,1.80664c.63281.78906.94922,1.73828.94922,2.84766,0,1.14355-.31641,2.13574-.94922,2.97656s-1.52539,1.48633-2.67773,1.9375c-1.15332.4502-2.50049.67578-4.04297.67578ZM114.63428,184.25879c-1.4043,0-2.63086-.19043-3.6792-.57227-1.04883-.38086-1.86328-.93945-2.44385-1.67676-.58105-.73633-.87109-1.625-.87109-2.66504,0-1.05664.29443-1.97168.88379-2.74316.58936-.77051,1.4126-1.36914,2.47021-1.79395,1.05713-.42383,2.27051-.63672,3.64014-.63672,1.40381,0,2.62988.21289,3.67871.63672,1.04883.4248,1.86768,1.02344,2.45703,1.79395.58936.77148.88428,1.68652.88428,2.74316,0,1.04004-.28613,1.92871-.8584,2.66504-.57178.7373-1.38672,1.2959-2.44385,1.67676-1.05762.38184-2.29688.57227-3.71777.57227ZM114.63428,189.90039c1.05664,0,1.89355-.2334,2.50879-.70117.61523-.46875.92285-1.11816.92285-1.9502,0-.78027-.30762-1.4043-.92285-1.87207s-1.45215-.70215-2.50879-.70215c-1.04004,0-1.86816.23438-2.4834.70215s-.92285,1.0918-.92285,1.87207c0,.83203.30762,1.48145.92285,1.9502.61523.46777,1.44336.70117,2.4834.70117ZM114.63428,181.78906c.88379,0,1.58154-.19922,2.09277-.59863.51123-.39844.76709-.95215.76709-1.66309s-.26465-1.26562-.79297-1.66406c-.52881-.39941-1.21826-.59863-2.06689-.59863-.83203,0-1.5083.19922-2.02832.59863-.52002.39844-.77979.96191-.77979,1.68945,0,.69336.25098,1.23926.75391,1.6377.50244.39941,1.18701.59863,2.0542.59863Z"/><path class="uuid-9549dd67-e1fd-472b-abe9-c8bce8ec1887" d="M124.38379,196.68652l1.71582-6.23926.57227,2.36523c-.72803,0-1.33057-.2207-1.80713-.66309-.47705-.44141-.71484-1.03516-.71484-1.78027,0-.78027.24219-1.39941.72803-1.85938.48486-.45898,1.08301-.68848,1.79395-.68848.72803,0,1.32568.2334,1.79395.70117.46777.46875.70215,1.08398.70215,1.84668,0,.20801-.01758.41992-.05225.63672-.03516.2168-.1001.47266-.19482.7666-.0957.29492-.24707.68555-.45508,1.16992l-1.48193,3.74414h-2.6001Z"/><path class="uuid-9549dd67-e1fd-472b-abe9-c8bce8ec1887" d="M136.94141,192.99512c-1.26562,0-2.51367-.16895-3.74414-.50684-1.23096-.33887-2.28809-.82812-3.17188-1.46973l1.6377-3.19727c.69336.50293,1.49512.90527,2.40527,1.20898.90967.30273,1.84131.4541,2.79492.4541,1.05713,0,1.88916-.21191,2.49609-.63672.60645-.4248.90967-1.00098.90967-1.72852,0-.69336-.26855-1.23926-.80566-1.63867-.5376-.39844-1.4043-.59766-2.6001-.59766h-1.89795v-2.75586l5.04395-5.77246.46777,1.50879h-9.54199v-3.38086h12.74023v2.73047l-5.04395,5.74609-2.13184-1.22168h1.22168c2.23584,0,3.93018.50293,5.08301,1.50781s1.729,2.28809,1.729,3.84766c0,1.04004-.27295,2.01074-.81885,2.91211s-1.37402,1.625-2.48291,2.1709c-1.10986.5459-2.53955.81934-4.29004.81934Z"/><path class="uuid-9549dd67-e1fd-472b-abe9-c8bce8ec1887" d="M154.59521,192.99512c-1.66406,0-3.10303-.34277-4.31592-1.02734-1.21338-.68457-2.15381-1.69824-2.8208-3.04199-.66748-1.34277-1.00098-2.98535-1.00098-4.92676,0-2.11426.39404-3.90039,1.18262-5.35645s1.88086-2.56445,3.27637-3.32812c1.39502-.76172,3.01123-1.14355,4.84863-1.14355.95312,0,1.87207.1084,2.75635.3252.88379.2168,1.64648.52441,2.28809.92285l-1.56006,3.09375c-.50293-.34668-1.04004-.58496-1.6123-.71484-.57178-.12988-1.16992-.19531-1.79395-.19531-1.56006,0-2.80811.48145-3.74414,1.44336-.93555.96191-1.40381,2.37012-1.40381,4.22461,0,.3125.00879.65918.02588,1.04004.01709.38184.06934.76367.15625,1.14453l-1.16992-1.0918c.3291-.67676.75391-1.24414,1.27393-1.70312s1.13965-.80664,1.85889-1.04004c.71924-.23438,1.51221-.35156,2.37891-.35156,1.17871,0,2.23633.23438,3.17236.70215.93555.46777,1.68506,1.12695,2.24854,1.97656.56348.84863.84521,1.8457.84521,2.98926,0,1.23145-.30322,2.30176-.91016,3.21094-.60693.91016-1.42969,1.6123-2.46973,2.10645s-2.20996.74121-3.51025.74121ZM154.36133,189.84863c.58887,0,1.11377-.10742,1.57324-.3252.45898-.21582.81885-.53223,1.07861-.94824.26025-.41602.39014-.89258.39014-1.43066,0-.83203-.28174-1.49512-.84473-1.98828-.56348-.49414-1.31348-.74121-2.24902-.74121-.62402,0-1.17041.12109-1.63818.36426-.46826.24219-.83643.56738-1.10498.97461-.26904.40723-.40283.87988-.40283,1.41699,0,.50293.12988.95801.38965,1.36523.26025.40723.62402.72754,1.09229.96191.46777.2334,1.04004.35059,1.71582.35059Z"/><path class="uuid-9549dd67-e1fd-472b-abe9-c8bce8ec1887" d="M165.82666,192.68262v-16.63965l1.82031,1.82031h-5.45996v-3.38086h7.85205v18.2002h-4.2124Z"/><path class="uuid-ebf3f323-ca8a-4af6-9379-3c3d213bf186" d="M388.47314,196.06982c-2.01611,0-3.95459-.27002-5.81396-.81006-1.86035-.54004-3.35449-1.24219-4.48242-2.10596l1.97998-4.39209c1.05615.76855,2.32764,1.39844,3.81641,1.89014,1.48779.49219,2.98779.73779,4.5.73779,1.15186,0,2.08154-.11963,2.79004-.35986.70752-.23975,1.22949-.55811,1.56592-.9541.33545-.396.50391-.85791.50391-1.38623,0-.67139-.26465-1.20557-.79199-1.60156-.52832-.396-1.23047-.72021-2.10596-.97217-.87646-.25195-1.83057-.4917-2.8623-.72021-1.03223-.22754-2.06982-.50391-3.11377-.82764-1.04395-.32422-2.00439-.75635-2.87988-1.29639-.87646-.53955-1.57227-1.24756-2.08838-2.12402-.51611-.87549-.77393-1.97363-.77393-3.29395,0-1.43994.38379-2.75391,1.15234-3.94189.76758-1.18799,1.9375-2.13574,3.50977-2.84375,1.57178-.70801,3.5459-1.06201,5.92188-1.06201,1.58398,0,3.15039.19238,4.69824.57568,1.54785.38428,2.89795.93604,4.0498,1.65625l-1.83594,4.39209c-1.12842-.64795-2.29199-1.13428-3.49219-1.45801-1.2002-.32422-2.35205-.48633-3.45557-.48633-1.15234,0-2.07617.12598-2.77197.37793-.69678.25244-1.20605.59424-1.53027,1.02637-.32373.43164-.48584.91211-.48584,1.43994,0,.67188.26367,1.21191.79199,1.62012.52734.4082,1.22412.72607,2.08789.95361.86377.22852,1.82373.45654,2.87988.68408,1.05615.22852,2.1001.51025,3.13232.84619,1.03125.33643,1.97998.76221,2.84375,1.27783.86426.5166,1.56592,1.2124,2.10596,2.08789.54004.87646.81006,1.9624.81006,3.2583,0,1.41602-.39014,2.7124-1.16992,3.8877-.78027,1.17627-1.96191,2.12402-3.5459,2.84424-1.58398.71973-3.56396,1.08008-5.93994,1.08008ZM387.14111,199.95752v-33.83984h3.63574v33.83984h-3.63574Z"/><path class="uuid-ebf3f323-ca8a-4af6-9379-3c3d213bf186" d="M409.67627,196.06982c-1.75244,0-3.48047-.23389-5.18408-.70215-1.7041-.46777-3.16797-1.146-4.39209-2.03418l2.26807-4.42773c.95947.69629,2.06982,1.25439,3.33008,1.67383,1.25977.42041,2.5498.62988,3.87012.62988,1.46338,0,2.61572-.29346,3.45605-.88184.83984-.58789,1.25977-1.38574,1.25977-2.39404,0-.95947-.37256-1.71533-1.11572-2.26807-.74463-.55176-1.94434-.82764-3.6001-.82764h-2.62793v-3.81641l6.98389-7.9917.64795,2.08789h-13.21191v-4.68018h17.63965v3.78027l-6.98389,7.95605-2.95166-1.69189h1.69189c3.0957,0,5.44141.69629,7.03809,2.08789,1.5957,1.39209,2.39355,3.16797,2.39355,5.32764,0,1.44043-.37793,2.78467-1.13379,4.03223-.75586,1.24805-1.90234,2.25-3.43799,3.00586-1.53613.75635-3.51611,1.13428-5.93994,1.13428Z"/><path class="uuid-ebf3f323-ca8a-4af6-9379-3c3d213bf186" d="M431.70801,170.00586c2.32764,0,4.33838.47412,6.03027,1.42188,1.69189.94824,2.98779,2.35254,3.88818,4.21191.8999,1.86035,1.34961,4.13428,1.34961,6.82227,0,2.92822-.5459,5.3999-1.6377,7.41602-1.09229,2.01562-2.59814,3.55176-4.51807,4.60791-1.92041,1.05615-4.15234,1.58398-6.69629,1.58398-1.31982,0-2.5918-.15039-3.81592-.4502-1.22363-.2998-2.28027-.72559-3.16797-1.27783l2.12402-4.28418c.6958.48047,1.4458.81006,2.25.99023.80371.17969,1.63818.27002,2.50195.27002,2.16016,0,3.88184-.66602,5.16602-1.99805,1.28369-1.33203,1.92627-3.28174,1.92627-5.8501,0-.43213-.0127-.91162-.03613-1.43994-.02441-.52783-.08447-1.05566-.18018-1.58398l1.58398,1.51172c-.4082.93604-.98438,1.72266-1.72803,2.3584-.74414.63574-1.60791,1.11572-2.5918,1.43994-.98438.32373-2.08789.48584-3.31201.48584-1.6084,0-3.06641-.32422-4.37402-.97217-1.30811-.64795-2.35254-1.55957-3.13184-2.73584-.78027-1.17578-1.16992-2.55615-1.16992-4.14014,0-1.70361.42578-3.18604,1.27783-4.4458.85156-1.26025,2.00342-2.23193,3.45605-2.91602,1.45166-.68408,3.05371-1.02588,4.80566-1.02588ZM432.06836,174.36182c-.84033,0-1.57861.1499-2.21436.44971-.63574.30078-1.12793.73242-1.47559,1.29639-.34814.56396-.52197,1.22998-.52197,1.99756,0,1.15234.38965,2.07031,1.16992,2.75439.7793.68359,1.81787,1.02588,3.11377,1.02588.86426,0,1.62012-.16748,2.26807-.50391.64795-.33594,1.15186-.78613,1.51221-1.3501.35986-.56348.54004-1.21777.54004-1.96191,0-.6958-.16846-1.32617-.50439-1.89014-.33643-.56348-.83398-1.00781-1.49365-1.33203-.66064-.32373-1.45801-.48584-2.39404-.48584Z"/><path class="uuid-ebf3f323-ca8a-4af6-9379-3c3d213bf186" d="M445.56787,195.6377v-3.77979l9.72021-9.18018c.76758-.6958,1.3374-1.31396,1.70996-1.854.37158-.54004.61768-1.04395.73779-1.51221.11963-.46777.18018-.90527.18018-1.31396,0-.98389-.33643-1.75146-1.0083-2.30371-.67188-.55176-1.68018-.82812-3.02393-.82812-1.08008,0-2.06445.21582-2.95215.64795-.88818.43213-1.64404,1.06836-2.26758,1.9082l-4.2124-2.73633c.93604-1.43994,2.26807-2.57959,3.99609-3.41992,1.72803-.83984,3.71973-1.25977,5.97607-1.25977,1.87207,0,3.51562.30029,4.93213.8999,1.41553.6001,2.51367,1.45801,3.29395,2.57373.77979,1.11621,1.16992,2.44238,1.16992,3.97803,0,.79199-.11426,1.59668-.3418,2.41211-.22852.81641-.64258,1.66846-1.24219,2.55615-.6001.88818-1.48828,1.88428-2.66406,2.98779l-8.06396,7.56006-1.11572-2.08789h14.25586v4.75195h-19.08008Z"/><path class="uuid-ebf3f323-ca8a-4af6-9379-3c3d213bf186" d="M467.2041,201.18164l2.37598-8.64014.79199,3.27637c-1.00781,0-1.84229-.30615-2.50195-.91797-.66016-.6123-.99023-1.43408-.99023-2.46631,0-1.08008.33594-1.9375,1.0083-2.57373.67139-.63574,1.49951-.9541,2.48389-.9541,1.00781,0,1.83594.32373,2.48389.97217.64795.64795.97217,1.5.97217,2.55566,0,.28809-.02441.58252-.07178.88232-.04883.30029-.13867.65381-.27002,1.06201-.13232.4082-.34229.94824-.63037,1.61963l-2.05176,5.18408h-3.6001Z"/><path class="uuid-ebf3f323-ca8a-4af6-9379-3c3d213bf186" d="M486.896,196.06982c-2.13672,0-3.99072-.3125-5.56201-.93604-1.57227-.62402-2.80273-1.51758-3.69043-2.68213-.88818-1.16357-1.33203-2.53809-1.33203-4.12207,0-1.55957.43213-2.87988,1.29639-3.95996.86377-1.08008,2.09326-1.90771,3.68994-2.48389,1.5957-.57617,3.46143-.86426,5.59814-.86426,2.15967,0,4.03174.28809,5.61572.86426s2.81348,1.41016,3.68994,2.50195c.87598,1.09229,1.31396,2.40625,1.31396,3.94189,0,1.58398-.43799,2.9585-1.31396,4.12207-.87646,1.16455-2.1123,2.05811-3.70801,2.68213-1.59619.62354-3.46191.93604-5.59766.93604ZM486.896,183.97363c-1.94434,0-3.64258-.26367-5.09424-.79199-1.45215-.52734-2.58008-1.30176-3.38379-2.32178-.80469-1.02002-1.20605-2.25-1.20605-3.68994,0-1.46387.40771-2.72998,1.22363-3.79834.81592-1.06738,1.95605-1.89551,3.42041-2.48389,1.46338-.58789,3.14355-.88184,5.04004-.88184,1.94385,0,3.6416.29395,5.09375.88184,1.45166.58838,2.58594,1.4165,3.40186,2.48389.81592,1.06836,1.22412,2.33447,1.22412,3.79834,0,1.43994-.396,2.66992-1.18799,3.68994s-1.92041,1.79443-3.38379,2.32178c-1.46436.52832-3.18066.79199-5.14795.79199ZM486.896,191.78564c1.46338,0,2.62158-.32373,3.47363-.97217.85156-.64795,1.27832-1.54785,1.27832-2.69971,0-1.08008-.42676-1.94385-1.27832-2.59229-.85205-.64795-2.01025-.97168-3.47363-.97168-1.44043,0-2.58643.32373-3.43848.97168-.85205.64844-1.27783,1.51221-1.27783,2.59229,0,1.15186.42578,2.05176,1.27783,2.69971.85205.64844,1.99805.97217,3.43848.97217ZM486.896,180.55371c1.22363,0,2.18945-.27588,2.89795-.82812.70752-.55176,1.06201-1.31934,1.06201-2.30371,0-.98389-.36621-1.75195-1.09814-2.3042-.73242-.55176-1.68652-.82812-2.86182-.82812-1.15234,0-2.08838.27637-2.80811.82812-.72021.55225-1.08008,1.33203-1.08008,2.33984,0,.96045.34766,1.71631,1.04395,2.26807.6958.55225,1.64355.82812,2.84424.82812Z"/><path class="uuid-ebf3f323-ca8a-4af6-9379-3c3d213bf186" d="M509.0708,170.00586c2.32764,0,4.33838.47412,6.03027,1.42188,1.69189.94824,2.98779,2.35254,3.88818,4.21191.8999,1.86035,1.34961,4.13428,1.34961,6.82227,0,2.92822-.5459,5.3999-1.6377,7.41602-1.09229,2.01562-2.59814,3.55176-4.51807,4.60791-1.92041,1.05615-4.15234,1.58398-6.69629,1.58398-1.31982,0-2.5918-.15039-3.81592-.4502-1.22363-.2998-2.28027-.72559-3.16797-1.27783l2.12402-4.28418c.6958.48047,1.4458.81006,2.25.99023.80371.17969,1.63818.27002,2.50195.27002,2.16016,0,3.88184-.66602,5.16602-1.99805,1.28369-1.33203,1.92627-3.28174,1.92627-5.8501,0-.43213-.0127-.91162-.03613-1.43994-.02441-.52783-.08447-1.05566-.18018-1.58398l1.58398,1.51172c-.4082.93604-.98438,1.72266-1.72803,2.3584-.74414.63574-1.60791,1.11572-2.5918,1.43994-.98438.32373-2.08789.48584-3.31201.48584-1.6084,0-3.06641-.32422-4.37402-.97217-1.30811-.64795-2.35254-1.55957-3.13184-2.73584-.78027-1.17578-1.16992-2.55615-1.16992-4.14014,0-1.70361.42578-3.18604,1.27783-4.4458.85156-1.26025,2.00342-2.23193,3.45605-2.91602,1.45166-.68408,3.05371-1.02588,4.80566-1.02588ZM509.43115,174.36182c-.84033,0-1.57861.1499-2.21436.44971-.63574.30078-1.12793.73242-1.47559,1.29639-.34814.56396-.52197,1.22998-.52197,1.99756,0,1.15234.38965,2.07031,1.16992,2.75439.7793.68359,1.81787,1.02588,3.11377,1.02588.86426,0,1.62012-.16748,2.26807-.50391.64795-.33594,1.15186-.78613,1.51221-1.3501.35986-.56348.54004-1.21777.54004-1.96191,0-.6958-.16846-1.32617-.50439-1.89014-.33643-.56348-.83398-1.00781-1.49365-1.33203-.66064-.32373-1.45801-.48584-2.39404-.48584Z"/><path class="uuid-ebf3f323-ca8a-4af6-9379-3c3d213bf186" d="M533.94727,196.06982c-2.06445,0-3.90625-.50977-5.52588-1.53027-1.62012-1.01953-2.9043-2.49561-3.85205-4.42773-.94873-1.93164-1.42236-4.28955-1.42236-7.07422,0-2.78369.47363-5.1416,1.42236-7.07373.94775-1.93164,2.23193-3.40771,3.85205-4.42822,1.61963-1.01953,3.46143-1.52979,5.52588-1.52979,2.08789,0,3.94189.51025,5.56201,1.52979,1.62012,1.02051,2.90332,2.49658,3.85205,4.42822.94775,1.93213,1.42188,4.29004,1.42188,7.07373,0,2.78467-.47412,5.14258-1.42188,7.07422-.94873,1.93213-2.23193,3.4082-3.85205,4.42773-1.62012,1.02051-3.47412,1.53027-5.56201,1.53027ZM533.94727,191.17383c.98389,0,1.84131-.28174,2.57373-.84619.73193-.56348,1.30811-1.4458,1.72803-2.646.41992-1.19971.63037-2.74756.63037-4.64404,0-1.89551-.21045-3.44336-.63037-4.64404-.41992-1.19971-.99609-2.08154-1.72803-2.646-.73242-.56348-1.58984-.8457-2.57373-.8457-.93604,0-1.77637.28223-2.52002.8457-.74414.56445-1.33203,1.44629-1.76416,2.646-.43213,1.20068-.64795,2.74854-.64795,4.64404,0,1.89648.21582,3.44434.64795,4.64404.43213,1.2002,1.02002,2.08252,1.76416,2.646.74365.56445,1.58398.84619,2.52002.84619Z"/><path class="uuid-facf06bb-950e-413a-9665-359da25b7ecd" d="M446.20801,89.45605v-20.48047l2.24023,2.24023h-6.7207v-4.16016h9.66406v22.40039h-5.18359Z"/><path class="uuid-facf06bb-950e-413a-9665-359da25b7ecd" d="M455.10352,89.45605v-3.36035l8.64062-8.16016c.68262-.61816,1.18848-1.16797,1.51953-1.64746.33105-.48047.54883-.92871.65625-1.34473.10645-.41602.16016-.80469.16016-1.16797,0-.87402-.29883-1.55664-.89648-2.04785-.59766-.49023-1.49316-.73535-2.6875-.73535-.95996,0-1.83496.19141-2.62402.5752-.79004.38477-1.46191.9502-2.0166,1.69629l-3.74316-2.43164c.83203-1.28027,2.01562-2.29297,3.55176-3.04004s3.30664-1.12012,5.31152-1.12012c1.66406,0,3.125.2666,4.38379.7998s2.23535,1.2959,2.92871,2.28809c.69238.99219,1.04004,2.1709,1.04004,3.53613,0,.7041-.10156,1.41895-.30469,2.14355-.20215.72559-.57031,1.4834-1.10352,2.27246s-1.32324,1.6748-2.36816,2.65625l-7.16797,6.71973-.99219-1.85645h12.67188v4.22461h-16.95996Z"/><path class="uuid-facf06bb-950e-413a-9665-359da25b7ecd" d="M477.12012,89.71191c-.85352,0-1.58398-.29297-2.19238-.87988s-.91211-1.32812-.91211-2.22461c0-.93848.30371-1.69531.91211-2.27148s1.33887-.86426,2.19238-.86426c.87402,0,1.61035.28809,2.20801.86426.59668.57617.89551,1.33301.89551,2.27148,0,.89648-.29883,1.6377-.89551,2.22461-.59766.58691-1.33398.87988-2.20801.87988Z"/><path class="uuid-facf06bb-950e-413a-9665-359da25b7ecd" d="M491.83984,89.83984c-1.89941,0-3.54688-.27734-4.94434-.83203s-2.49121-1.34863-3.28027-2.38379-1.18359-2.25586-1.18359-3.66406c0-1.38672.38379-2.56055,1.15234-3.52051.76758-.95996,1.86035-1.69531,3.2793-2.20801,1.41895-.51172,3.07715-.76758,4.97656-.76758,1.91992,0,3.58398.25586,4.99121.76758,1.4082.5127,2.50195,1.25391,3.28027,2.22461s1.16797,2.13867,1.16797,3.50391c0,1.4082-.38965,2.62891-1.16797,3.66406s-1.87695,1.8291-3.2959,2.38379-3.07715.83203-4.97559.83203ZM491.83984,79.08789c-1.72852,0-3.23828-.23438-4.52832-.7041-1.29102-.46875-2.29395-1.15723-3.00781-2.06445-.71484-.90625-1.07227-2-1.07227-3.2793,0-1.30078.3623-2.42676,1.08789-3.37598s1.73828-1.68555,3.04004-2.20801c1.30078-.52246,2.79492-.78418,4.48047-.78418,1.72754,0,3.23633.26172,4.52734.78418s2.29883,1.25879,3.02441,2.20801c.72461.94922,1.08789,2.0752,1.08789,3.37598,0,1.2793-.35156,2.37305-1.05566,3.2793-.7041.90723-1.70703,1.5957-3.00879,2.06445-1.30078.46973-2.82617.7041-4.5752.7041ZM491.83984,86.03223c1.30078,0,2.33008-.28809,3.08789-.86426.75684-.57617,1.13574-1.37598,1.13574-2.40039,0-.95996-.37891-1.72754-1.13574-2.30371-.75781-.57617-1.78711-.86426-3.08789-.86426-1.28027,0-2.2998.28809-3.05664.86426s-1.13574,1.34375-1.13574,2.30371c0,1.02441.37891,1.82422,1.13574,2.40039s1.77637.86426,3.05664.86426ZM491.83984,76.04785c1.08789,0,1.94629-.24512,2.5752-.73633.62988-.49023.94434-1.17285.94434-2.04785,0-.87402-.3252-1.55664-.97559-2.04785-.65137-.49023-1.49902-.73633-2.54395-.73633-1.02441,0-1.85645.24609-2.49609.73633-.64062.49121-.95996,1.18359-.95996,2.08008,0,.85352.30859,1.52539.92773,2.01562.61816.49121,1.46094.73633,2.52832.73633Z"/><path class="uuid-facf06bb-950e-413a-9665-359da25b7ecd" d="M508.83203,79.15137c-1.06738,0-2.0166-.25-2.84863-.75195-.83203-.50098-1.48242-1.21582-1.95215-2.14355-.46875-.92773-.70312-2.02148-.70312-3.28027,0-1.25781.23438-2.35156.70312-3.2793.46973-.92871,1.12012-1.64258,1.95215-2.14453.83203-.50098,1.78125-.75195,2.84863-.75195,1.1084,0,2.08008.25098,2.91113.75195.83203.50195,1.4834,1.21094,1.95215,2.12793.46973.91797.7041,2.0166.7041,3.2959,0,1.25879-.23438,2.35254-.7041,3.28027-.46875.92773-1.12012,1.64258-1.95215,2.14355-.83105.50195-1.80273.75195-2.91113.75195ZM508.86328,76.52734c.7041,0,1.26465-.29297,1.68066-.87988.41602-.58594.62402-1.47656.62402-2.67188,0-1.19434-.20801-2.08496-.62402-2.67188-.41602-.58594-.97656-.87988-1.68066-.87988s-1.26953.29883-1.69531.89551c-.42773.59766-.64062,1.4834-.64062,2.65625,0,1.17383.21289,2.05957.64062,2.65625.42578.59766.99121.89551,1.69531.89551ZM506.91211,89.45605l15.2959-22.40039h3.80762l-15.2959,22.40039h-3.80762ZM524.06348,89.71191c-1.06641,0-2.02148-.25098-2.86426-.75195s-1.49316-1.21582-1.95117-2.14453c-.45898-.92773-.68848-2.02051-.68848-3.2793s.22949-2.35254.68848-3.28027c.45801-.92773,1.1084-1.64258,1.95117-2.14453.84277-.50098,1.79785-.75195,2.86426-.75195,1.10938,0,2.08008.25098,2.91211.75195.83203.50195,1.48242,1.2168,1.95215,2.14453.46875.92773.7041,2.02148.7041,3.28027s-.23535,2.35156-.7041,3.2793c-.46973.92871-1.12012,1.64355-1.95215,2.14453s-1.80273.75195-2.91211.75195ZM524.06348,87.08789c.7041,0,1.27441-.29883,1.71191-.89648.4375-.59668.65625-1.48242.65625-2.65527s-.21875-2.05859-.65625-2.65625c-.4375-.59668-1.00781-.89648-1.71191-.89648-.68262,0-1.24316.29395-1.67969.88086-.4375.58691-.65625,1.47754-.65625,2.67188s.21875,2.08496.65625,2.67188c.43652.58691.99707.87988,1.67969.87988Z"/></g></svg>